<svg viewBox="0 0 71 32" fill="#fff" xmlns="http://www.w3.org/2000/svg" aria-labelledby="KitLogoLabel" aria-label="Kit"><path d="M19.414 13.316c8.722 1.688 11.429 9.762 11.5 17.883a.329.329 0 0 1-.328.332h-10.98a.33.33 0 0 1-.33-.328c-.032-6.3-1.053-11.86-7.296-12.1a.33.33 0 0 0-.341.328v11.77a.329.329 0 0 1-.329.33H.33A.329.329 0 0 1 0 31.2V1.21C0 1.028.147.881.329.881H11.31c.181 0 .329.147.329.328v11.236a.302.302 0 0 0 .59.088C15.056 3.268 20.34.94 28.919.882a.33.33 0 0 1 .33.328v11.208a.329.329 0 0 1-.328.328H19.47a.287.287 0 0 0-.055.57Zm51.438 16.053a.657.657 0 0 1-.35.581c-1.033.543-4.227 2.05-7.88 2.05-7.514 0-13.036-3.112-13.142-11.661h-.003v-7.264c0-.182.147-.329.329-.329h8.08a.288.288 0 0 0 .055-.57C51.62 10.922 48.7 7.282 48.6 1.21a.323.323 0 0 1 .322-.33h11.866a.33.33 0 0 1 .329.33v5.115c0 .181.147.328.328.328h6.804a.33.33 0 0 1 .329.33v5.435a.329.329 0 0 1-.329.328h-6.804a.329.329 0 0 0-.328.329v5.86c0 2.07 1.269 2.752 2.957 2.752 2.644 0 5.253-1.192 6.3-1.732a.328.328 0 0 1 .479.292v9.122ZM34.03 31.202V13.074c0-.181.147-.328.328-.328H45.34c.181 0 .328.147.328.328v18.128a.329.329 0 0 1-.328.329H34.359a.329.329 0 0 1-.328-.33Zm-.622-25.615c0 3.085 2.179 5.587 6.365 5.587s6.365-2.502 6.365-5.587C46.14 2.5 43.96 0 39.774 0S33.41 2.501 33.41 5.587Z"/></svg>