<svg width="32" height="32" fill="none" xmlns="http://www.w3.org/2000/svg"><rect width="32" height="32" rx="7" fill="#2D8C3C"/><path d="M3.586 17.339a1.086 1.086 0 0 1-.691-1.922C4.38 14.19 5.23 12.249 5.23 10.085a1.086 1.086 0 0 1 2.17 0c0 2.814-1.138 5.368-3.124 7.006a1.08 1.08 0 0 1-.69.25v-.002Z" fill="#fff"/><path d="M7.393 13.3H3.585a1.086 1.086 0 0 1 0-2.171h3.808a1.086 1.086 0 0 1 0 2.17Zm6.057.43c-.09 0-.182-.01-.272-.035l-2.289-.59a1.085 1.085 0 1 1 .542-2.102l2.289.59a1.085 1.085 0 0 1-.27 2.137Zm-4.208 9.439c-.799 0-1.624-.349-2.211-.935-.54-.54-.832-1.225-.824-1.932.02-1.622 1.314-2.798 3.077-2.798.182 0 .378.013.583.037v-1.55a1.086 1.086 0 0 1 2.17 0v2.025a21.03 21.03 0 0 1 1.11.355 1.085 1.085 0 1 1-.727 2.046c-.114-.04-.243-.083-.382-.129v.004c0 1.568-1.24 2.86-2.763 2.878H9.24l.001-.001Zm.044-3.495c-.27 0-.9.064-.907.653-.002.158.117.3.188.371.182.183.446.3.675.3h.009c.335-.005.618-.328.618-.707v-.56a3.806 3.806 0 0 0-.583-.056v-.001Zm12.727 3.495c-1.37 0-2.534-.494-3.365-1.428-.988-1.108-1.436-2.77-1.229-4.56.159-1.371.707-2.693 1.266-3.74-.448.076-.874.14-1.264.18a1.084 1.084 0 1 1-.218-2.16c.571-.058 1.281-.185 2.033-.32.502-.09 1.02-.184 1.537-.263a1.087 1.087 0 0 1 1.009 1.756c-.019.023-1.93 2.417-2.206 4.796-.133 1.158.125 2.23.693 2.868.42.47.99.7 1.744.7.603 0 2.442 0 2.797-3.687.154-1.603-.239-3.262-.243-3.28a1.086 1.086 0 0 1 1.837-1.006c.983 1.022 1.89 1.723 2.774 2.143a1.086 1.086 0 0 1-.93 1.962 9.006 9.006 0 0 1-1.232-.715 10.1 10.1 0 0 1-.045 1.104c-.473 4.916-3.31 5.65-4.958 5.65Zm5.829-10.305a.704.704 0 0 1-.605-.342l-.73-1.216a.705.705 0 1 1 1.21-.726l.73 1.216a.706.706 0 0 1-.605 1.069v-.001Zm1.953-.86a.705.705 0 0 1-.605-.341l-.73-1.216a.705.705 0 1 1 1.21-.726l.73 1.215a.705.705 0 0 1-.605 1.07v-.002Z" fill="#fff"/></svg>