<svg width="201" height="49" xmlns="http://www.w3.org/2000/svg" xmlns:xlink="http://www.w3.org/1999/xlink"><defs><path id="a" d="M0 0h200v49H0z"/></defs><g transform="translate(.245)" fill="none" fill-rule="evenodd"><mask id="b" fill="#fff"><use xlink:href="#a"/></mask><g mask="url(#b)" fill="#0CB6F2"><path d="M142.3 13.41v-2.32c0-.13 0-.258-.129-.258-.129-.13-.129-.13-.258-.13h-3.61l-1.419-3.352c0-.129-.129-.258-.258-.387s-.258-.129-.387-.129h-4.642l-.129.13v.258l1.419 3.352h-3.611s-.129 0-.129.129l-.129.129v2.578s0 .128.13.128c.128 0 .128.13.128.13h1.548l-1.419 34.3v.128s0 .13.13.13l.128.128h4.126c.258 0 .387-.129.516-.258.13-.129.258-.386.258-.515l1.16-27.08h.903c.258 0 .387.13.516.259.13.128.258.386.258.515v23.21c0 .259-.129.388-.258.517s-.387.258-.516.258h-.773l-.13.128v.258l.903 2.064c0 .128.13.257.258.386.13.13.258.13.387.13h3.61c.258 0 .387 0 .645-.13.13-.129.387-.129.516-.386a1.78 1.78 0 0 0 .387-.516c.129-.13.129-.387.129-.645V19.213c0-.387-.13-.774-.516-1.031-.258-.258-.645-.516-1.16-.516h-5.03l.13-3.869h6.06c.13 0 .258 0 .258-.129v-.257Zm12.895 4.9v-2.062c0-.129-.13-.129-.13-.258 0-.128-.128-.128-.257-.128h-10.445c-.129 0-.258 0-.258.128-.129.13-.129.13-.129.258v2.321c0 .13 0 .258.13.258.128.13.128.13.257.13h5.03l.128.128s0 .13.129.13v.128l-2.063 6.834h-3.869c-.129 0-.257 0-.257.13-.13.128-.13.128-.13.257v2.321c0 .13 0 .258.13.258.128.13.128.13.257.13h4.127v15.473c0 .258-.13.387-.258.516-.13.128-.387.257-.516.257h-1.29l-.128.13v.258l.902 2.062c0 .13.13.258.258.387.13.13.258.13.387.13h4.642c.258 0 .387 0 .645-.13.129-.129.387-.129.516-.387.129-.129.258-.257.386-.515.13-.13.13-.387.13-.645V29.27h2.449s.128 0 .128-.129l.13-.129v-2.578s0-.129-.13-.129l-.129-.129h-2.579l2.193-6.963c-.516-.258-.387-.516-.387-.902Zm-27.853-.257-.387-9.671c0-.258-.129-.387-.258-.516-.129-.13-.386-.258-.515-.258h-4.901s-.128 0-.128.129l-.13.129v.129l.388 9.67c0 .259.128.388.257.517.13.129.387.257.516.257h4.901s.128 0 .128-.128c0-.13.13-.13.13-.13v-.128Zm-.258 15.86h-4.77c-.259 0-.388.13-.517.258-.129.129-.258.387-.258.516l-.515 13.54v.128s0 .13.129.13l.129.128h4.898c.258 0 .387-.129.516-.258.13-.129.258-.387.258-.516l.516-13.539v-.129s0-.129-.129-.129l-.129-.129h-.129Zm.258-2.708-.387-9.67c0-.259-.129-.388-.258-.517s-.386-.257-.515-.257h-4.901s-.128 0-.128.128l-.13.13v.128l.388 9.671c0 .258.128.387.257.516.13.13.387.258.516.258h4.901s.128 0 .128-.129l.13-.129v-.129Zm20.374-24.371h-3.095c-.129 0-.387.13-.516.13s-.258.257-.258.515l-.773 5.803v.386c0 .13.129.258.129.258.129.13.129.13.258.13.128 0 .257.128.386.128h3.224c.129 0 .387-.129.516-.258s.258-.258.258-.515l.129-.903h7.479s.129 0 .129-.13c0 0 0-.128.129-.128V9.8s0-.129-.13-.129l-.128-.129h-7.092l.257-1.805V7.35c0-.129-.129-.258-.129-.258l-.257-.258h-.516Zm44.358 27.079 3.997-4.77c.129-.13.129-.259.129-.517V24.63c0-.129 0-.129-.129-.258 0-.129-.129-.129-.129-.129h-.258c-.129 0-.129.13-.258.13l-4.255 5.157-1.547-9.284 6.06-.903c.13 0 .387-.129.516-.258s.258-.387.258-.516v-2.064s0-.129-.13-.129c0 0-.128 0-.128-.129s-.129 0-.129 0l-6.705.774-1.677-9.542c0-.129-.128-.387-.257-.516-.13-.129-.387-.129-.516-.129h-6.061s-.129 0-.129.13c0 0 0 .128-.129.128v.13l1.806 10.573-3.353.387c-.258 0-.387.129-.516.257-.129.13-.258.387-.129.516v2.064s0 .128.13.128c0 0 .128 0 .128.13h.13l4.125-.516 2.708 15.473-5.544 6.577c0 .128-.13.128-.13.257v3.353c0 .129 0 .258.13.387.129.129.257.258.386.258h.516c.13 0 .258-.13.387-.258l5.029-5.932 1.032 6.319c0 .387.257.644.515.902s.645.387 1.032.387h6.447c.13 0 .258 0 .387-.129.13-.129.258-.258.258-.387l.903-2.063v-.258l-.13-.129h-1.932c-.13 0-.387 0-.516-.129-.13-.128-.258-.257-.258-.515l-2.063-10.96ZM171.7 27.208l-1.676 3.868-1.677-3.868c-.129-.13-.129-.387-.129-.645V14.828s0-.128-.129-.128l-.128-.129h-4.514c-.129 0-.258 0-.258.129-.128.129-.128.129-.128.258v11.347c0 .387.128.774.257 1.16l4.127 9.414-4.771 11.09v.258l.129.128h4.255c.129 0 .258 0 .387-.129s.258-.258.258-.387l2.32-5.286 2.322 5.286c0 .13.129.258.258.387.129.13.258.13.386.13h4.256l.129-.13v-.258l-4.771-11.09 4.126-9.412c.129-.387.258-.774.258-1.16V11.088c0-.386-.13-.773-.516-1.031-.258-.258-.645-.516-1.16-.516h-12.637c-.13 0-.258 0-.258.13 0 .128-.13.128-.13.257v2.321c0 .129 0 .258.13.258.129.129.129.129.258.129h8.51c.13 0 .13.129.258.129.13.129.13.129.13.258v13.41c.257.387.257.645.128.774Z" fill-rule="nonzero"/><path d="M194.008 8.382h-4.642l-.13.129v.258l1.935 4.384c0 .129.129.258.258.386.129.13.258.13.387.13h4.513l.129-.13v-.258l-1.934-4.384c0-.129-.13-.258-.258-.386.129-.13-.13-.13-.258-.13ZM36.95 6.963l4.9-.645h.258l.129.13v.128l3.224 36.621v.258h-3.868c-.13 0-.13 0-.13-.129l-.129-.129-4.513-36.105v-.258c0 .13 0 .13.129.13-.129 0 0 0 0 0Z" fill-rule="nonzero"/><path d="m30.245 26.305 5.544-.644h.258l.13.128v.13l2.32 19.213v.129l-.129.128-4.126.516h-.129l-.129-.129-3.868-19.084v-.258c-.13 0 0-.129.129-.129-.13 0-.13 0 0 0Zm17.15-.258h5.674v19.6c0 .13 0 .13-.13.13l-.128.128h-3.998c-.129 0-.129 0-.129-.129s-.129-.129-.129-.129l-1.418-19.342v-.258h.258c-.13 0 0 0 0 0ZM28.44 16.505l2.32-.258h.258l.13.13.902 6.962v.258l-.129.13h-.129l-1.934.257h-.13l-.128-.129-1.418-7.092v-.258c.129.13.129.13.257 0-.128 0 0 0 0 0Zm3.739-.129.903 6.963v.13l.129.128h.258l2.192-.258c.128 0 .128 0 .128-.128v-.13l-.902-6.963v-.129c0-.128 0 0-.13-.128-.128-.13 0 0-.128 0H34.5l-2.192.257h-.13l-.128.13c.129-.13.129 0 .129.128 0-.129-.129-.129 0 0Zm14.184 0 .516 6.963s0 .13.129.13h2.062c.129 0 .129 0 .129-.13l.129-.128-.129-6.964c0-.129 0-.129-.129-.129l-.129-.129h-2.578v.387Zm3.74 0 .129 6.963c0 .13 0 .13.129.13l.128.128h2.064c.129 0 .129 0 .129-.129l.129-.129v-6.963c0-.129 0-.129-.13-.129l-.128-.129H50.36c-.13 0-.13 0-.13.13-.128 0-.128.128-.128.128Zm10.444 31.721c0 .13 0 .13.13.13l.128.128c7.092.903 14.313-.644 20.503-4.384 3.224-1.934 7.479-6.576 1.29-10.058-6.577-3.74-12.509-3.997-17.537-3.61h-.258s-.13-.13-.13-.258a149.307 149.307 0 0 1-1.16-28.369v-.129s0-.129-.129-.129h-.258l-8.252 2.966s-.13 0-.13.13v.128a408.917 408.917 0 0 1 5.803 43.455Zm16.119-9.542c-2.192 1.934-4.513 3.61-7.092 4.9h-.258s-.13 0-.13-.129v-.129c-.128-.644-.773-4.642-1.03-7.736v-.13s0-.128.128-.128h.258c2.837.515 5.674 1.418 8.124 2.836.129.258.129.387 0 .516ZM5.487 48.097c0 .13 0 .13.129.13l.129.128c7.092.903 14.313-.644 20.502-4.384 3.224-1.934 7.48-6.576 1.29-10.058-6.576-3.74-12.508-3.997-17.537-3.61h-.258s-.129-.13-.129-.258a150.226 150.226 0 0 1-1.16-28.498v-.129s0-.129-.13-.129h-.258L-.186 4.255l-.129.13v.128a415.815 415.815 0 0 1 5.803 43.584Zm16.118-9.542c-2.192 1.934-4.513 3.61-7.092 4.9h-.258s-.129 0-.129-.129v-.129c-.129-.644-.773-4.642-1.031-7.736v-.13s0-.128.129-.128h.258c2.836.515 5.673 1.418 8.123 2.836.13.258.13.387 0 .516Z"/><path d="m92.14 6.963 4.9-.645h.258l.128.13v.128l3.224 36.621v.258h-3.868c-.13 0-.13 0-.13-.129l-.128-.129L92.01 7.092c0-.129 0-.129.128-.129-.128 0-.128 0 0 0Z" fill-rule="nonzero"/><path d="m85.305 26.305 5.545-.644h.258l.129.128v.13l2.32 19.213v.129l-.128.128-4.126.516h-.13l-.128-.129-3.869-19.084v-.258s0-.129.13-.129Zm17.15-.258H108c.129 0 .129 0 .129.13l.129.128v19.342c0 .13 0 .13-.13.13l-.128.128h-3.997c-.13 0-.13 0-.13-.129l-.128-.129-1.548-19.342v-.258h.258Zm-18.826-9.542 2.321-.258h.258l.129.13.902 6.962v.258l-.128.13h-.13l-1.805.257h-.129l-.129-.129-1.547-7.092v-.258c0 .13.129.13.258 0-.129 0-.129 0 0 0Zm3.611-.129.902 6.963c0 .13 0 .13.13.13h.128l2.192-.258c.13 0 .13 0 .13-.13v-.128l-.775-6.964v-.258h-.258l-2.192.258c-.129 0-.129 0-.129.13-.129.128-.129.128-.129.257Zm14.184 0 .515 6.963s0 .13.13.13h2.063c.129 0 .129 0 .129-.13l.128-.128-.128-6.964c0-.129 0-.129-.13-.129l-.128-.129h-2.579c-.13 0 .129.258 0 .387.129 0 0 0 0 0Zm3.868 0 .13 6.963c0 .13 0 .13.128.13.129 0 .129.128.129.128h2.063c.13 0 .13 0 .13-.129l.128-.129v-7.221h-2.708v.258Z"/></g></g></svg>