<svg width="25" height="25" fill="none" xmlns="http://www.w3.org/2000/svg"><circle cx="7.433" cy="14.031" fill="#73BC06" r="1.8"/><circle cx="18.233" cy="14.031" r="1.8" fill="#73BC06"/><path fill-rule="evenodd" clip-rule="evenodd" d="M4.284 17.092c-.27-.27-.44-.65-.44-1.06 0-3.56.26-4.06.79-5.07.05-.1.11-.21.17-.34l-1.09-.4a.872.872 0 0 1-.53-.63.897.897 0 0 1 0-.46c.04-.16.11-.31.23-.44l.02-.02c.22-.22.57-.36 1.08-.32l1.13.1c.19-.61.4-1.36.62-2.31.09-.39.27-.77.53-1.03.25-.25.56-.4.96-.4h10.15c.39 0 .71.15.96.4.27.27.45.64.54 1.03.22.95.43 1.7.62 2.31l1.12-.09c.51-.04.87.1 1.08.32l.02.02c.12.13.2.28.23.44.03.15.03.31 0 .46-.07.28-.26.53-.53.63l-1.08.39c.06.12.12.23.17.34.53 1.01.78 1.51.78 5.07 0 .41-.17.78-.44 1.06-.27.27-.65.44-1.06.44h-.05v1.18c0 .28-.12.54-.3.72-.18.18-.44.3-.72.3h-1.09c-.28 0-.54-.12-.72-.3-.19-.19-.3-.44-.3-.72v-1.18h-8.6v1.18c0 .28-.11.54-.3.72-.19.18-.44.3-.72.3h-1.09c-.28 0-.54-.12-.72-.3-.19-.19-.3-.44-.3-.72v-1.18h-.05c-.41 0-.79-.17-1.06-.44h-.01Zm13.62-5.75H7.764c-.09 0-.18-.02-.27-.04-.17-.05-.32-.15-.44-.27a.665.665 0 0 1-.2-.45c0-.05 0-.11.02-.16l.97-3.28c.07-.22.16-.44.3-.6.15-.17.34-.27.59-.27h8.2c.23 0 .41.09.55.23.16.17.27.4.34.64l.97 3.28c.02.05.02.11.02.16 0 .17-.08.33-.2.45-.12.12-.28.22-.45.27-.09.03-.18.04-.27.04h.01Zm-8.92 2.92c0 .37-.15.71-.39.95-.24.24-.58.39-.95.39s-.71-.15-.95-.39c-.24-.24-.39-.58-.39-.95s.15-.71.39-.95c.24-.24.58-.39.95-.39s.71.15.95.39c.24.24.39.58.39.95Zm7.7 0c0-.37.15-.71.39-.95.24-.25.58-.39.95-.39s.71.15.95.39c.24.24.39.58.39.95s-.15.71-.39.95c-.24.24-.58.39-.95.39s-.71-.15-.95-.39c-.24-.24-.39-.58-.39-.95Z" fill="#000"/></svg>