<svg width="25" height="25" fill="none" xmlns="http://www.w3.org/2000/svg"><path d="m14.033 8.031-3.6-3.6 1.8-1.2 4.2.6 3.6 2.4.6 3-1.8-.6-4.8-.6Zm-5.4.601 1.2-4.2-2.4.6-2.4 1.8-1.2 4.2h1.8l3-2.4Z" fill="#73BC06"/><path d="M9.833 14.48c-.35 0-.646-.12-.888-.362a1.207 1.207 0 0 1-.362-.888c0-.35.12-.645.362-.887s.538-.363.888-.363.645.121.887.363.362.537.362.887-.12.646-.362.888a1.207 1.207 0 0 1-.887.362Zm6 0c-.35 0-.646-.12-.888-.362a1.207 1.207 0 0 1-.363-.888c0-.35.121-.645.363-.887s.537-.363.887-.363.646.121.888.363.363.537.363.887-.121.646-.363.888a1.207 1.207 0 0 1-.887.362Zm-3 5.75c2.233 0 4.124-.774 5.675-2.325 1.55-1.55 2.325-3.441 2.325-5.675 0-.4-.025-.787-.075-1.162a4.839 4.839 0 0 0-.275-1.088 9.182 9.182 0 0 1-2.15.251 9.787 9.787 0 0 1-4.3-.976 9.983 9.983 0 0 1-3.45-2.725 9.859 9.859 0 0 1-2.288 3.388 9.77 9.77 0 0 1-3.462 2.163v.15c0 2.233.775 4.124 2.325 5.675 1.55 1.55 3.441 2.325 5.674 2.325Zm0 2a9.738 9.738 0 0 1-3.9-.787 10.099 10.099 0 0 1-3.175-2.138 10.1 10.1 0 0 1-2.138-3.174 9.738 9.738 0 0 1-.787-3.9c0-1.384.262-2.684.787-3.9a10.099 10.099 0 0 1 2.138-3.176c.9-.9 1.958-1.612 3.175-2.137a9.738 9.738 0 0 1 3.9-.788 9.74 9.74 0 0 1 3.9.788 10.098 10.098 0 0 1 3.174 2.137c.9.9 1.613 1.959 2.138 3.175a9.737 9.737 0 0 1 .787 3.9 9.738 9.738 0 0 1-.787 3.9 10.1 10.1 0 0 1-2.138 3.175c-.9.9-1.958 1.613-3.174 2.138a9.737 9.737 0 0 1-3.9.787Zm-1.35-17.875a8.016 8.016 0 0 0 2.85 2.813c1.2.708 2.533 1.062 4 1.062.233 0 .458-.012.675-.037.216-.025.441-.054.675-.088a8.016 8.016 0 0 0-2.85-2.812c-1.2-.708-2.534-1.063-4-1.063a5.89 5.89 0 0 0-.675.038 26.21 26.21 0 0 0-.675.087Zm-6.225 5.35A7.987 7.987 0 0 0 7.483 7.83a7.96 7.96 0 0 0 1.425-2.575A7.987 7.987 0 0 0 6.683 7.13a7.96 7.96 0 0 0-1.425 2.575Z" fill="#0C0C0C"/></svg>