<svg xmlns="http://www.w3.org/2000/svg" width="20" height="18" viewBox="0 0 20 18"><path d="M14.754,10a1.75,1.75,0,0,1,1.75,1.75V16.5a4.5,4.5,0,0,1-9,0V11.75A1.75,1.75,0,0,1,9.252,10ZM7.131,10a2.737,2.737,0,0,0-.621,1.531l-.009.22V16.5a5.479,5.479,0,0,0,.533,2.365A3.956,3.956,0,0,1,6,19a4,4,0,0,1-4-4V11.75a1.75,1.75,0,0,1,1.606-1.744L3.75,10Zm9.743,0H20.25A1.75,1.75,0,0,1,22,11.75V15a4,4,0,0,1-5.031,3.866,5.454,5.454,0,0,0,.526-2.052L17.5,16.5V11.75A2.739,2.739,0,0,0,16.875,10ZM12,3A3,3,0,1,1,9,6,3,3,0,0,1,12,3Zm6.5,1A2.5,2.5,0,1,1,16,6.5,2.5,2.5,0,0,1,18.5,4ZM5.5,4A2.5,2.5,0,1,1,3,6.5,2.5,2.5,0,0,1,5.5,4Z" transform="translate(-2 -3)" fill="#fff"/></svg>