<svg xmlns="http://www.w3.org/2000/svg" width="48" height="48" viewBox="0 0 48 48"><path d="M23.957,0a24,24,0,1,0,24,24A24,24,0,0,0,23.957,0Zm.706,36.56a2.493,2.493,0,0,1-1.924.729,2.5,2.5,0,0,1-1.916-.712,2.805,2.805,0,0,1-.668-1.995q0-2.655,2.584-2.654a2.561,2.561,0,0,1,1.934.694,2.709,2.709,0,0,1,.668,1.96A2.8,2.8,0,0,1,24.663,36.56ZM30.931,19.4a6.724,6.724,0,0,1-1.17,1.96,18.9,18.9,0,0,1-2.7,2.426,10.323,10.323,0,0,0-2.189,2.127,3.772,3.772,0,0,0-.531,1.847c0,.016-.008.021-.011.037-.21,1.183-1.584,1.175-1.584,1.175h-.722s-1.195-.188-1.15-1.125a6.633,6.633,0,0,1,.7-3.217,9.172,9.172,0,0,1,2.461-2.654,13.6,13.6,0,0,0,2.7-2.566,3.854,3.854,0,0,0,.607-2.18,2.743,2.743,0,0,0-.984-2.268,4.42,4.42,0,0,0-2.83-.791,9.709,9.709,0,0,0-3.094.475c-.518.173-1.027.369-1.532.58-.011,0-.015,0-.027.007a1.344,1.344,0,0,1-1.707-.466l-.458-.959a1.261,1.261,0,0,1,.63-1.692,15.419,15.419,0,0,1,6.486-1.406A8.262,8.262,0,0,1,29.3,12.4a5.742,5.742,0,0,1,2.021,4.658A6.623,6.623,0,0,1,30.931,19.4Z" transform="translate(0.043)" fill="#fff"/></svg>