<svg xmlns="http://www.w3.org/2000/svg" width="17.978" height="26" viewBox="0 0 17.978 26"><g transform="translate(-7.022 -3)"><path d="M25,4a1,1,0,0,0-1-1H8.022a1,1,0,0,0-1,1V7.989a1,1,0,0,0,1,1H24a1,1,0,0,0,1-1ZM9.022,5V6.989H23V5Z" fill="#fff" fill-rule="evenodd"/><path d="M25,7.846A.933.933,0,0,0,24,7H8.022a.933.933,0,0,0-1,.846V28.154a.933.933,0,0,0,1,.846H24a.933.933,0,0,0,1-.846V7.846ZM11.4,25h1.2a1,1,0,0,0,0-2H11.4a1,1,0,0,0,0,2Zm8,0h1.2a1,1,0,1,0,0-2H19.4a1,1,0,0,0,0,2Zm0-4h1.2a1,1,0,1,0,0-2H19.4a1,1,0,0,0,0,2Zm-3.979,0h1.2a1,1,0,1,0,0-2h-1.2a1,1,0,0,0,0,2ZM11.4,21h1.2a1,1,0,1,0,0-2H11.4a1,1,0,0,0,0,2Zm0-4h1.2a1,1,0,0,0,0-2H11.4a1,1,0,0,0,0,2Zm8,0h1.2a1,1,0,1,0,0-2H19.4a1,1,0,0,0,0,2Zm-3.979,0h1.2a1,1,0,1,0,0-2h-1.2a1,1,0,0,0,0,2ZM11.4,13h1.2a1,1,0,0,0,0-2H11.4a1,1,0,0,0,0,2Zm8,0h1.2a1,1,0,1,0,0-2H19.4a1,1,0,0,0,0,2Zm-3.979,0h1.2a1,1,0,0,0,0-2h-1.2a1,1,0,0,0,0,2Z" fill="#fff" fill-rule="evenodd"/></g></svg>