<svg xmlns="http://www.w3.org/2000/svg" width="128.693" height="101.116" viewBox="0 0 128.693 101.116"><path d="M128.693,288.6v57.022a11.524,11.524,0,0,1-11.49,11.49H11.49a11.065,11.065,0,0,1-8.115-3.375A11.065,11.065,0,0,1,0,345.626V288.6a38.086,38.086,0,0,0,7.253,6.248q26,17.667,35.692,24.776,4.093,3.016,6.643,4.7a41.041,41.041,0,0,0,6.787,3.447,20.7,20.7,0,0,0,7.9,1.759h.144a20.7,20.7,0,0,0,7.9-1.759,41.041,41.041,0,0,0,6.787-3.447q2.549-1.688,6.643-4.7,12.209-8.833,35.764-24.776A39.612,39.612,0,0,0,128.693,288.6Zm0-21.114a18.981,18.981,0,0,1-3.519,10.844,34.145,34.145,0,0,1-8.761,8.833q-27,18.744-33.61,23.34-.718.5-3.052,2.19t-3.878,2.729q-1.544,1.041-3.734,2.334a21.755,21.755,0,0,1-4.129,1.939,11.412,11.412,0,0,1-3.591.646h-.144a11.412,11.412,0,0,1-3.591-.646,21.755,21.755,0,0,1-4.129-1.939q-2.19-1.293-3.734-2.334T48.942,312.7q-2.334-1.688-3.052-2.19-6.535-4.6-18.816-13.106T12.352,287.168a35.656,35.656,0,0,1-8.4-8.295Q0,273.595,0,269.07a14.5,14.5,0,0,1,2.98-9.336Q5.961,256,11.49,256H117.2a11.587,11.587,0,0,1,11.49,11.49Z" transform="translate(0 -256)" fill="#fff"/></svg>