<svg xmlns="http://www.w3.org/2000/svg" width="779.999" height="83.541" viewBox="0 0 779.999 83.541"><path d="M69.523,81.3H47.453V48.247H21.974V81.3H0V.13H22.069V30.25H47.548V.13H69.617V81.3Z" transform="translate(0 1.101)" fill="#fcb315"/><path d="M50.246,81.3H28.366V18.126H8.57V.13H70.042v17.9h-19.8V81.208Z" transform="translate(72.603 1.101)" fill="#fcb315"/><path d="M51.62,81.3,35.044,22.862H34.57c.189,1.515.284,3.6.474,6.157s.284,5.4.474,8.335.189,5.872.189,8.619V81.208H16.29V.13H45.463L62.417,57.718h.474L79.372.13H108.64V81.3H88.465V45.689c0-2.557,0-5.3.095-8.24s.189-5.683.379-8.335.284-4.641.379-6.157h-.474L72.458,81.3H51.62Z" transform="translate(138.005 1.101)" fill="#fcb315"/><path d="M27.88,81.3V.13H49.76V63.591H81.017V81.3Z" transform="translate(236.192 1.101)" fill="#fcb315"/><path d="M73.668,18.091a14.889,14.889,0,0,0-6.914,1.61,14.531,14.531,0,0,0-5.209,4.736,24.151,24.151,0,0,0-3.315,7.577,40.914,40.914,0,0,0-1.137,10.135,36.453,36.453,0,0,0,1.989,12.882,15.774,15.774,0,0,0,5.872,7.862A17.306,17.306,0,0,0,74.9,65.545a34.668,34.668,0,0,0,10.419-1.515c3.315-1.042,6.725-2.179,10.135-3.6V78.994A47.467,47.467,0,0,1,84.466,82.4a68.261,68.261,0,0,1-11.934,1.042c-8.809,0-16.007-1.7-21.6-5.209A31.188,31.188,0,0,1,38.528,63.65,55.047,55.047,0,0,1,34.55,41.96,52.91,52.91,0,0,1,37.107,25.1a37.351,37.351,0,0,1,7.577-13.26A35.041,35.041,0,0,1,57,3.126,42.49,42.49,0,0,1,73.858,0,65.177,65.177,0,0,1,86.266,1.326,51.639,51.639,0,0,1,98.958,5.683L92.233,22.922a80.979,80.979,0,0,0-9-3.6A29.466,29.466,0,0,0,73.574,17.9Z" transform="translate(292.699 0)" fill="#231f20"/><path d="M121.324,41.77a59.893,59.893,0,0,1-2.273,17.049,36.291,36.291,0,0,1-7.009,13.26A30.91,30.91,0,0,1,99.823,80.6c-4.925,1.989-10.987,2.936-17.9,2.936A47.523,47.523,0,0,1,64.21,80.6,31.25,31.25,0,0,1,51.9,72.08a35.865,35.865,0,0,1-7.2-13.26A57.917,57.917,0,0,1,42.33,41.581c0-8.43,1.421-15.818,4.168-21.974A31.093,31.093,0,0,1,59.474,5.115Q68.283,0,81.922,0c9.093,0,16.765,1.7,22.543,5.115A30.3,30.3,0,0,1,117.157,19.7,56.29,56.29,0,0,1,121.23,41.77Zm-55.789,0a40.93,40.93,0,0,0,1.7,12.6,16.165,16.165,0,0,0,5.3,8.146,15.029,15.029,0,0,0,9.472,2.842,15.6,15.6,0,0,0,9.661-2.842,14.972,14.972,0,0,0,5.115-8.146,44.751,44.751,0,0,0,1.61-12.6q0-10.94-3.694-17.333c-2.463-4.262-6.63-6.346-12.6-6.346a15.127,15.127,0,0,0-9.566,2.842,16.047,16.047,0,0,0-5.3,8.24,42.193,42.193,0,0,0-1.61,12.692Z" transform="translate(358.609 0)" fill="#231f20"/><path d="M121.164,39.059c0,9.472-1.8,17.239-5.3,23.49A33.474,33.474,0,0,1,100.99,76.662,50.978,50.978,0,0,1,78.447,81.4H52.21V.13H80.246c8.714,0,16.1,1.515,22.164,4.452a30.53,30.53,0,0,1,13.829,13.166c3.126,5.778,4.736,12.882,4.736,21.217Zm-22.732.758A32.32,32.32,0,0,0,96.443,27.6,15.191,15.191,0,0,0,90.571,20.3a18.638,18.638,0,0,0-9.945-2.368H74.279V63.4H79.2c6.63,0,11.556-1.894,14.681-5.778s4.641-9.756,4.641-17.712Z" transform="translate(442.31 1.101)" fill="#231f20"/><path d="M61.03,81.3V.13H83.1V81.3Z" transform="translate(517.031 1.101)" fill="#231f20"/><path d="M142.489,81.3H113.7L84.049,24.094h-.474c.189,1.7.379,3.789.474,6.251s.284,4.925.379,7.483.189,4.831.189,6.82V81.208H65.2V.13H93.8l29.552,56.357h.379c-.095-1.8-.189-3.883-.379-6.157s-.189-4.736-.284-7.1-.095-4.546-.095-6.346V.13h19.512V81.3Z" transform="translate(552.358 1.101)" fill="#231f20"/><path d="M110.419,34.866h35.045V78.626a86.682,86.682,0,0,1-14.4,3.5,108.842,108.842,0,0,1-16.954,1.326A44.4,44.4,0,0,1,93.559,78.91,31.762,31.762,0,0,1,79.825,65.081C76.6,58.924,74.9,51.063,74.9,41.591c0-8.525,1.61-15.818,4.925-22.069a34.055,34.055,0,0,1,14.4-14.4C100.568,1.715,108.24.01,117.428.01a70.021,70.021,0,0,1,14.4,1.421,56.356,56.356,0,0,1,11.84,3.694L136.75,22.363a40.037,40.037,0,0,0-9.093-3.22A48.961,48.961,0,0,0,117.523,18.1c-4.831,0-8.714,1.137-11.65,3.315a18.693,18.693,0,0,0-6.441,8.714,34.839,34.839,0,0,0-1.989,12.029,33.162,33.162,0,0,0,2.179,12.692,16.85,16.85,0,0,0,6.251,7.862,17.835,17.835,0,0,0,10.04,2.652,29.852,29.852,0,0,0,4.736-.284,41.5,41.5,0,0,0,4.262-.663V51.726H110.419V34.771Z" transform="translate(634.534 0.085)" fill="#231f20"/></svg>