<svg xmlns="http://www.w3.org/2000/svg" width="779.999" height="83.566" viewBox="0 0 779.999 83.566"><path d="M69.523,81.3H47.453V48.247H21.974V81.3H0V.13H22.069V30.25H47.548V.13H69.617V81.3Z" transform="translate(0 1.11)" fill="#fcb315"/><path d="M50.246,81.3H28.366V18.126H8.57V.13H70.042v17.9h-19.8V81.208Z" transform="translate(72.603 1.11)" fill="#fcb315"/><path d="M51.62,81.3,35.044,22.862H34.57c.189,1.515.284,3.6.474,6.157s.284,5.4.474,8.335.189,5.872.189,8.619V81.208H16.29V.13H45.463L62.417,57.718h.474L79.372.13H108.64V81.3H88.465V45.689c0-2.557,0-5.3.095-8.24s.189-5.683.379-8.335.284-4.641.379-6.157h-.474L72.457,81.3H51.62Z" transform="translate(138.005 1.11)" fill="#fcb315"/><path d="M27.88,81.3V.13H49.76V63.591H81.017V81.3Z" transform="translate(236.192 1.11)" fill="#fcb315"/><path d="M73.678,18.1a14.89,14.89,0,0,0-6.914,1.61,14.53,14.53,0,0,0-5.209,4.736,24.154,24.154,0,0,0-3.315,7.577A40.919,40.919,0,0,0,57.1,42.157a36.458,36.458,0,0,0,1.989,12.882A15.77,15.77,0,0,0,64.964,62.9a17.3,17.3,0,0,0,9.945,2.652,34.667,34.667,0,0,0,10.419-1.515c3.315-1.042,6.725-2.179,10.135-3.6V79a47.463,47.463,0,0,1-10.987,3.41,68.262,68.262,0,0,1-11.934,1.042,40.075,40.075,0,0,1-21.6-5.209A31.19,31.19,0,0,1,38.538,63.658a55.05,55.05,0,0,1-3.978-21.69,52.91,52.91,0,0,1,2.557-16.86,37.348,37.348,0,0,1,7.577-13.26A35.046,35.046,0,0,1,57.008,3.133,42.49,42.49,0,0,1,73.868.007,65.175,65.175,0,0,1,86.276,1.334,51.639,51.639,0,0,1,98.968,5.691L92.243,22.929a80.985,80.985,0,0,0-9-3.6,29.467,29.467,0,0,0-9.661-1.421Z" transform="translate(292.689 0.001)" fill="#fff"/><path d="M121.336,41.77a59.892,59.892,0,0,1-2.273,17.049,36.3,36.3,0,0,1-7.009,13.26A30.907,30.907,0,0,1,99.835,80.6a48.22,48.22,0,0,1-17.9,2.936A47.519,47.519,0,0,1,64.221,80.6,31.257,31.257,0,0,1,51.908,72.08a35.869,35.869,0,0,1-7.2-13.26,57.919,57.919,0,0,1-2.368-17.239,53.819,53.819,0,0,1,4.168-21.974A31.1,31.1,0,0,1,59.485,5.115a52.028,52.028,0,0,1,44.991,0A30.31,30.31,0,0,1,117.168,19.7a56.289,56.289,0,0,1,4.073,22.069Zm-55.789,0a40.929,40.929,0,0,0,1.7,12.6,16.168,16.168,0,0,0,5.3,8.146,15.032,15.032,0,0,0,9.472,2.842,15.6,15.6,0,0,0,9.661-2.842A14.975,14.975,0,0,0,96.8,54.368a44.75,44.75,0,0,0,1.61-12.6A34.648,34.648,0,0,0,94.72,24.437a13.26,13.26,0,0,0-12.6-6.346,15.155,15.155,0,0,0-9.566,2.842,16.045,16.045,0,0,0-5.3,8.24,42.2,42.2,0,0,0-1.61,12.692Z" transform="translate(358.598 0.009)" fill="#fff"/><path d="M121.164,39.076a47.357,47.357,0,0,1-5.3,23.49,33.473,33.473,0,0,1-14.871,14.113,50.977,50.977,0,0,1-22.543,4.736H52.21V.147H80.246A50.5,50.5,0,0,1,102.41,4.6a30.528,30.528,0,0,1,13.829,13.166,44.176,44.176,0,0,1,4.736,21.217Zm-22.732.758a32.318,32.318,0,0,0-1.989-12.219,15.155,15.155,0,0,0-5.872-7.293,18.64,18.64,0,0,0-9.945-2.368H74.279V63.418H79.2a17.75,17.75,0,0,0,14.681-5.778,27.885,27.885,0,0,0,4.641-17.712Z" transform="translate(442.31 1.093)" fill="#fff"/><path d="M61.03,81.3V.13H83.1V81.3Z" transform="translate(517.031 1.11)" fill="#fff"/><path d="M142.489,81.3H113.7L84.049,24.094h-.474c.189,1.7.379,3.789.474,6.251s.284,4.925.379,7.483.189,4.831.189,6.82V81.208H65.2V.13H93.8l29.552,56.357h.379c-.095-1.8-.189-3.883-.379-6.157s-.189-4.736-.284-7.1-.095-4.546-.095-6.346V.13h19.512V81.3Z" transform="translate(552.358 1.11)" fill="#fff"/><path d="M110.444,34.888h35.045V78.647a86.683,86.683,0,0,1-14.4,3.5,108.839,108.839,0,0,1-16.954,1.326,44.4,44.4,0,0,1-20.554-4.546A31.758,31.758,0,0,1,79.85,65.1a50.5,50.5,0,0,1-4.925-23.49A46.278,46.278,0,0,1,79.85,19.543a34.1,34.1,0,0,1,14.4-14.4A48.306,48.306,0,0,1,117.453.032a70.025,70.025,0,0,1,14.4,1.421,56.357,56.357,0,0,1,11.84,3.694l-6.914,17.239a40.035,40.035,0,0,0-9.093-3.22,48.959,48.959,0,0,0-10.135-1.042,19.1,19.1,0,0,0-11.65,3.315,18.7,18.7,0,0,0-6.441,8.714,34.836,34.836,0,0,0-1.989,12.029,33.15,33.15,0,0,0,2.179,12.692,16.85,16.85,0,0,0,6.251,7.862,17.835,17.835,0,0,0,10.04,2.652,29.856,29.856,0,0,0,4.736-.284,41.5,41.5,0,0,0,4.262-.663V51.747H110.444V34.793Z" transform="translate(634.509 0.072)" fill="#fff"/></svg>