<svg xmlns="http://www.w3.org/2000/svg" width="36" height="36" viewBox="0 0 36 36"><circle cx="18" cy="18" r="18" fill="#fff"/><path d="M3.706,8.2a.892.892,0,0,0-.288-.746L1.287,4.883V4.5H7.91l5.121,11.23,4.5-11.23h6.317v.383L22.027,6.631a.532.532,0,0,0-.2.51V19.992a.532.532,0,0,0,.2.51l1.781,1.748v.383H14.846V22.25l1.847-1.791c.18-.18.18-.236.18-.51V9.565L11.737,22.6h-.695L5.071,9.565V18.3a1.19,1.19,0,0,0,.331,1l2.4,2.91V22.6H1v-.378L3.4,19.3a1.151,1.151,0,0,0,.307-1Z" transform="translate(6.002 4.5)"/></svg>