<svg xmlns="http://www.w3.org/2000/svg" width="36" height="36" viewBox="0 0 36 36"><circle cx="18" cy="18" r="18" fill="#fff"/><path d="M22.412,8.437c.016.222.016.444.016.666A14.466,14.466,0,0,1,7.861,23.668,14.467,14.467,0,0,1,0,21.37a10.591,10.591,0,0,0,1.236.063,10.253,10.253,0,0,0,6.356-2.187A5.128,5.128,0,0,1,2.805,15.7a6.456,6.456,0,0,0,.967.079A5.415,5.415,0,0,0,5.119,15.6a5.12,5.12,0,0,1-4.105-5.024v-.063a5.156,5.156,0,0,0,2.314.65A5.127,5.127,0,0,1,1.743,4.316,14.552,14.552,0,0,0,12.3,9.673,5.779,5.779,0,0,1,12.173,8.5,5.124,5.124,0,0,1,21.033,5a10.079,10.079,0,0,0,3.249-1.236,5.106,5.106,0,0,1-2.251,2.821,10.263,10.263,0,0,0,2.948-.792,11,11,0,0,1-2.568,2.647Z" transform="translate(6 4.619)"/></svg>