<svg xmlns="http://www.w3.org/2000/svg" width="36" height="36" viewBox="0 0 36 36"><g transform="translate(-3.104 -3.104)"><circle cx="18" cy="18" r="18" transform="translate(3.104 3.104)" fill="#fff"/><path d="M13.244,28.576a17.826,17.826,0,0,1-7.361-1.569c.543.24,1.1.458,1.669.646a1.7,1.7,0,0,0,.312.031.86.86,0,0,0,.918-.9c0-.187,0-.5-.007-.937,0-.539-.012-1.278-.016-2.123a8.609,8.609,0,0,1-1.811.209,4.554,4.554,0,0,1-3.424-1.312A3.644,3.644,0,0,1,2.7,21.313a4.826,4.826,0,0,0-2-2.632c-.513-.351-.743-.625-.685-.816.084-.27.73-.278.8-.278H.82a3.8,3.8,0,0,1,2.757,1.854,3.548,3.548,0,0,0,3.18,1.968,5.166,5.166,0,0,0,2.062-.472,3.875,3.875,0,0,1,1.14-2.407,10.129,10.129,0,0,1-5.6-2.03,6.674,6.674,0,0,1-1.881-2.629A11.282,11.282,0,0,1,1.76,9.636a6.933,6.933,0,0,1,1.852-4.83A6.421,6.421,0,0,1,3.77.042,1.542,1.542,0,0,1,4.17,0c.658,0,2.123.245,4.55,1.887a16.971,16.971,0,0,1,9,0C20.131.245,21.592,0,22.248,0a1.478,1.478,0,0,1,.4.042,6.6,6.6,0,0,1,.18,4.764,6.96,6.96,0,0,1,1.845,4.83,11.286,11.286,0,0,1-.72,4.242A6.641,6.641,0,0,1,22.068,16.5a10.155,10.155,0,0,1-5.608,2.013,4.2,4.2,0,0,1,1.215,3.33c0,1.612-.01,3.011-.017,3.937v.006c0,.46-.006.793-.006.985a.843.843,0,0,0,.906.889,1.742,1.742,0,0,0,.331-.034A17.975,17.975,0,0,0,30.3,16.333,18.014,18.014,0,0,1,13.244,28.576Z" transform="translate(7.8 10.528)"/></g></svg>