<svg xmlns="http://www.w3.org/2000/svg" width="177" height="177" viewBox="0 0 177 177"><g transform="translate(-1064 -3152)"><path d="M62.5,1A61.208,61.208,0,0,0,28.115,11.5,61.682,61.682,0,0,0,5.833,38.562,61.418,61.418,0,0,0,11.5,96.885a61.683,61.683,0,0,0,27.059,22.283,61.418,61.418,0,0,0,58.323-5.67,61.682,61.682,0,0,0,22.283-27.059,61.418,61.418,0,0,0-5.67-58.323A61.682,61.682,0,0,0,86.438,5.833,61.114,61.114,0,0,0,62.5,1m0-1A62.5,62.5,0,1,1,0,62.5,62.5,62.5,0,0,1,62.5,0Z" transform="translate(1090 3178)" fill="#77dfed"/><path d="M88.5,1A88.152,88.152,0,0,0,70.865,2.778,87.016,87.016,0,0,0,39.579,15.943a87.758,87.758,0,0,0-31.7,38.5,87.052,87.052,0,0,0-5.1,16.423,88.363,88.363,0,0,0,0,35.271,87.016,87.016,0,0,0,13.165,31.286,87.758,87.758,0,0,0,38.5,31.7,87.052,87.052,0,0,0,16.423,5.1,88.363,88.363,0,0,0,35.271,0,87.016,87.016,0,0,0,31.286-13.165,87.758,87.758,0,0,0,31.7-38.5,87.052,87.052,0,0,0,5.1-16.423,88.363,88.363,0,0,0,0-35.271,87.016,87.016,0,0,0-13.165-31.286,87.758,87.758,0,0,0-38.5-31.7,87.052,87.052,0,0,0-16.423-5.1A88.152,88.152,0,0,0,88.5,1m0-1A88.5,88.5,0,1,1,0,88.5,88.5,88.5,0,0,1,88.5,0Z" transform="translate(1064 3152)" fill="#77dfed" opacity="0.245"/></g></svg>