<svg xmlns="http://www.w3.org/2000/svg" xmlns:xlink="http://www.w3.org/1999/xlink" width="1076" height="604" viewBox="0 0 1076 604"><defs><linearGradient id="a" x1="1" y1="0.5" x2="0" y2="0.5" gradientUnits="objectBoundingBox"><stop offset="0" stop-color="#b9d6e5"/><stop offset="1" stop-color="#f4fcff"/></linearGradient></defs><g transform="translate(-453 -7866)"><path d="M17.935,0h10.8l8.245-26.1c.425-1.445,1.19-4.675,1.275-5.015A42.2,42.2,0,0,0,39.44-26.1L47.77,0H58.48L75.82-51H62.645l-8.33,26.435c-.51,1.53-1.36,6.375-1.36,6.375s-1.1-4.845-1.53-6.375L43.6-51H33.15L25.415-24.565C24.99-23.035,23.8-18.19,23.8-18.19s-.935-4.93-1.36-6.375L14.11-51H.6ZM81.94,0h35.445V-10.37H95.71V-21.76h17.425V-32.045H95.71V-40.63h21.675V-51H81.94Zm44.965,0h23.46c12.835,0,17.85-6.715,17.85-14.96a13.7,13.7,0,0,0-8.245-12.665,12.977,12.977,0,0,0,5.525-10.03c0-7.31-4.42-13.345-15.98-13.345h-22.61Zm13.77-8.755v-13.6h6.205c5.355,0,7.99,2.3,7.99,6.8s-2.635,6.8-7.99,6.8Zm0-22.355V-42.245H146.2c4.08,0,6.2,1.955,6.2,5.61,0,3.57-2.125,5.525-6.2,5.525ZM224.74,0V-10.03H206.465l6.97-3.4c5.78-2.805,10.115-6.46,10.115-12.58,0-7.735-7.65-12.07-17.51-12.07-5.61,0-13.09,2.635-16.405,5.185V-22.44c4.505-3.315,10.54-5.44,14.45-5.44,3.485,0,5.695,1.275,5.695,3.995,0,2.55-2.295,4.76-8.16,8.075L188.445-8.075V0Z" transform="translate(694 8182)" fill="#3b495a"/><path d="M-95.926,0h10.8l8.245-26.1c.425-1.445,1.19-4.675,1.275-5.015a42.2,42.2,0,0,0,1.19,5.015L-66.091,0h10.71l17.34-51H-51.216l-8.33,26.435c-.51,1.53-1.36,6.375-1.36,6.375s-1.1-4.845-1.53-6.375L-70.256-51H-80.711l-7.735,26.435c-.425,1.53-1.615,6.375-1.615,6.375s-.935-4.93-1.36-6.375L-99.751-51h-13.515Zm64.005,0H3.524V-10.37H-18.151V-21.76H-.726V-32.045H-18.151V-40.63H3.524V-51H-31.921ZM13.044,0H36.5c12.835,0,17.85-6.715,17.85-14.96a13.7,13.7,0,0,0-8.245-12.665,12.977,12.977,0,0,0,5.525-10.03c0-7.31-4.42-13.345-15.98-13.345H13.044Zm13.77-8.755v-13.6h6.2c5.355,0,7.99,2.3,7.99,6.8s-2.635,6.8-7.99,6.8Zm0-22.355V-42.245h5.525c4.08,0,6.205,1.955,6.205,5.61,0,3.57-2.125,5.525-6.205,5.525ZM111.089-.84c0-9.408-6.216-15.12-14.112-16.044L110.249-30.24v-6.048H74.8V-26.04H93.365L79.253-12.012l5.292,5.964a9.605,9.605,0,0,1,6.048-2.436c4.536,0,7.392,2.772,7.392,7.392,0,5.124-3.78,8.484-9.324,8.484A20.531,20.531,0,0,1,74.633,1.26V11.592c3.444,3.108,9.576,5.376,16.38,5.376C101.849,16.968,111.089,10.164,111.089-.84Z" transform="translate(1227 8182)" fill="#3b495a"/><path d="M102.5,205a103.257,103.257,0,0,1-20.657-2.082,101.938,101.938,0,0,1-36.652-15.423A102.8,102.8,0,0,1,8.055,142.4a101.987,101.987,0,0,1-5.972-19.24,103.5,103.5,0,0,1,0-41.315A101.938,101.938,0,0,1,17.505,45.191,102.8,102.8,0,0,1,62.6,8.055a101.986,101.986,0,0,1,19.24-5.972,103.5,103.5,0,0,1,41.315,0,101.939,101.939,0,0,1,36.651,15.423,102.8,102.8,0,0,1,37.136,45.1,101.985,101.985,0,0,1,5.973,19.24,103.5,103.5,0,0,1,0,41.315,101.939,101.939,0,0,1-15.423,36.651,102.8,102.8,0,0,1-45.1,37.136,101.985,101.985,0,0,1-19.24,5.973A103.254,103.254,0,0,1,102.5,205Zm0-175.918a73.959,73.959,0,0,0-14.8,1.492A73.014,73.014,0,0,0,61.452,41.621a73.633,73.633,0,0,0-26.6,32.3A73.051,73.051,0,0,0,30.574,87.7a74.132,74.132,0,0,0,0,29.592,73.013,73.013,0,0,0,11.047,26.252,73.633,73.633,0,0,0,32.3,26.6A73.053,73.053,0,0,0,87.7,174.425a74.134,74.134,0,0,0,29.592,0,73.014,73.014,0,0,0,26.252-11.047,73.633,73.633,0,0,0,26.6-32.3,73.05,73.05,0,0,0,4.278-13.781,74.134,74.134,0,0,0,0-29.592,73.014,73.014,0,0,0-11.047-26.252,73.633,73.633,0,0,0-32.3-26.6A73.05,73.05,0,0,0,117.3,30.574,73.956,73.956,0,0,0,102.5,29.083Z" transform="translate(658 8270) rotate(180)" fill="url(#a)"/><path d="M211.5,423a213.063,213.063,0,0,1-42.625-4.3,210.344,210.344,0,0,1-75.627-31.824,212.116,212.116,0,0,1-76.628-93.054A210.44,210.44,0,0,1,4.3,254.125a213.564,213.564,0,0,1,0-85.249A210.345,210.345,0,0,1,36.121,93.248a212.116,212.116,0,0,1,93.054-76.628A210.44,210.44,0,0,1,168.875,4.3a213.564,213.564,0,0,1,85.249,0,210.345,210.345,0,0,1,75.627,31.824,212.116,212.116,0,0,1,76.628,93.054,210.439,210.439,0,0,1,12.324,39.7,213.564,213.564,0,0,1,0,85.249,210.344,210.344,0,0,1-31.824,75.627,212.116,212.116,0,0,1-93.054,76.628,210.439,210.439,0,0,1-39.7,12.324A213.063,213.063,0,0,1,211.5,423Zm0-393.614a183.457,183.457,0,0,0-36.7,3.7,181.112,181.112,0,0,0-65.119,27.4A182.648,182.648,0,0,0,43.7,140.613,181.2,181.2,0,0,0,33.086,174.8a183.887,183.887,0,0,0,0,73.4,181.113,181.113,0,0,0,27.4,65.119A182.648,182.648,0,0,0,140.613,379.3,181.2,181.2,0,0,0,174.8,389.914a183.887,183.887,0,0,0,73.4,0,181.114,181.114,0,0,0,65.119-27.4A182.647,182.647,0,0,0,379.3,282.387,181.194,181.194,0,0,0,389.914,248.2a183.887,183.887,0,0,0,0-73.4,181.113,181.113,0,0,0-27.4-65.119A182.647,182.647,0,0,0,282.387,43.7,181.2,181.2,0,0,0,248.2,33.086,183.457,183.457,0,0,0,211.5,29.386Z" transform="translate(1019 8379) rotate(180)" fill="url(#a)"/><path d="M302,604a304.236,304.236,0,0,1-60.864-6.136,300.343,300.343,0,0,1-107.988-45.441A302.881,302.881,0,0,1,23.733,419.552a300.476,300.476,0,0,1-17.6-56.688,304.946,304.946,0,0,1,0-121.727A300.346,300.346,0,0,1,51.577,133.149,302.881,302.881,0,0,1,184.448,23.733a300.479,300.479,0,0,1,56.689-17.6,304.946,304.946,0,0,1,121.727,0A300.345,300.345,0,0,1,470.851,51.577,302.882,302.882,0,0,1,580.267,184.448a300.473,300.473,0,0,1,17.6,56.689,304.942,304.942,0,0,1,0,121.727,300.342,300.342,0,0,1-45.441,107.987A302.882,302.882,0,0,1,419.552,580.267a300.472,300.472,0,0,1-56.688,17.6A304.233,304.233,0,0,1,302,604Zm0-571.381a271.372,271.372,0,0,0-54.29,5.473,267.906,267.906,0,0,0-96.324,40.533,270.168,270.168,0,0,0-97.6,118.52,268.018,268.018,0,0,0-15.7,50.566,272,272,0,0,0,0,108.579,267.9,267.9,0,0,0,40.533,96.324,270.17,270.17,0,0,0,118.52,97.6,268.027,268.027,0,0,0,50.566,15.7,272.005,272.005,0,0,0,108.579,0,267.9,267.9,0,0,0,96.324-40.533,270.17,270.17,0,0,0,97.6-118.52,268.028,268.028,0,0,0,15.7-50.566,272.005,272.005,0,0,0,0-108.579,267.9,267.9,0,0,0-40.533-96.324,270.167,270.167,0,0,0-118.52-97.6,268.019,268.019,0,0,0-50.566-15.7A271.37,271.37,0,0,0,302,32.619Z" transform="translate(1529 8470) rotate(180)" fill="url(#a)"/><path d="M-33.552,0h4.064l3.1-9.824c.16-.544.448-1.76.48-1.888a15.887,15.887,0,0,0,.448,1.888L-22.32,0h4.032l6.528-19.2h-4.96l-3.136,9.952c-.192.576-.512,2.4-.512,2.4s-.416-1.824-.576-2.4L-23.888-19.2h-3.936l-2.912,9.952c-.16.576-.608,2.4-.608,2.4s-.352-1.856-.512-2.4L-34.992-19.2H-40.08Zm24.1,0H3.888V-3.9h-8.16V-8.192h6.56v-3.872h-6.56V-15.3h8.16v-3.9H-9.456ZM7.472,0H16.3c4.832,0,6.72-2.528,6.72-5.632a5.156,5.156,0,0,0-3.1-4.768A4.886,4.886,0,0,0,22-14.176c0-2.752-1.664-5.024-6.016-5.024H7.472Zm5.184-3.3v-5.12h2.336c2.016,0,3.008.864,3.008,2.56S17.008-3.3,14.992-3.3Zm0-8.416V-15.9h2.08c1.536,0,2.336.736,2.336,2.112,0,1.344-.8,2.08-2.336,2.08ZM37.584,0V-14.272l-7.04,1.056v3.04h2.048V0Z" transform="translate(556 8176)" fill="#3b495a"/><path d="M-19.723-13.2V0h1.21V-5.236h2.882a3.748,3.748,0,0,0,4.07-3.982,3.758,3.758,0,0,0-4.07-3.982Zm4.092,6.886h-2.882v-5.808h2.882a2.663,2.663,0,0,1,2.86,2.9A2.653,2.653,0,0,1-15.631-6.314Zm6.556,2.486h6.182L-1.309,0H.011L-5.445-13.2h-.99L-11.891,0h1.254Zm5.742-1.078h-5.3L-6-11.4Zm4.62,3.718A6.058,6.058,0,0,0,5.4.286C7.447.286,9.581-.99,9.581-3.5c0-2.134-1.386-3.41-3.96-4.092-2.134-.572-2.75-1.518-2.75-2.6,0-1.3,1.034-2.222,2.75-2.222a5.814,5.814,0,0,1,3.036,1.056l.264-1.034a5.9,5.9,0,0,0-3.3-1.1c-2.42,0-3.982,1.5-3.982,3.3S2.871-7.018,5.115-6.4c2.508.682,3.234,1.584,3.234,3.058A2.675,2.675,0,0,1,5.4-.792,5.674,5.674,0,0,1,1.529-2.4Zm13.75-10.934V0h1.21V-12.122h4.708V-13.2H10.329v1.078Z" transform="translate(556 8140)" fill="#3b495a"/><path d="M-33.29-12V0h1.1V-4.76h2.62a3.407,3.407,0,0,0,3.7-3.62A3.416,3.416,0,0,0-29.57-12Zm3.72,6.26h-2.62v-5.28h2.62a2.421,2.421,0,0,1,2.6,2.64A2.412,2.412,0,0,1-29.57-5.74Zm9.94.72a3.248,3.248,0,0,0,2.92-3.46A3.344,3.344,0,0,0-20.41-12h-3.72V0h1.1V-4.96h2.24l1.54,2.9A3.472,3.472,0,0,0-16.11.14a4.5,4.5,0,0,0,.88-.08V-.8a3.54,3.54,0,0,1-.46.02,2.452,2.452,0,0,1-2.48-1.58Zm-.78-.92h-2.62v-5.08h2.62a2.349,2.349,0,0,1,2.6,2.54A2.341,2.341,0,0,1-20.41-5.94ZM-13.53-12V0h6.8V-.98h-5.7V-5.82h4.7V-6.8h-4.7v-4.22h5.7V-12Zm8.6,10.92A5.507,5.507,0,0,0-1.19.26a3.53,3.53,0,0,0,3.8-3.44c0-1.94-1.26-3.1-3.6-3.72-1.94-.52-2.5-1.38-2.5-2.36,0-1.18.94-2.02,2.5-2.02a5.286,5.286,0,0,1,2.76.96l.24-.94a5.361,5.361,0,0,0-3-1c-2.2,0-3.62,1.36-3.62,3s1.12,2.88,3.16,3.44C.83-5.2,1.49-4.38,1.49-3.04A2.431,2.431,0,0,1-1.19-.72,5.158,5.158,0,0,1-4.71-2.18ZM4.81-12V0h6.8V-.98H5.91V-5.82h4.7V-6.8H5.91v-4.22h5.7V-12Zm9.2,0V0h1.04V-9.78L22.31,0h.76V-12H22.03v9.78L14.77-12Zm15.02.98V0h1.1V-11.02h4.28V-12H24.75v.98Z" transform="translate(808 8105)" fill="#3b495a"/><path d="M-33.29-12V0h1.1V-4.76h2.62a3.407,3.407,0,0,0,3.7-3.62A3.416,3.416,0,0,0-29.57-12Zm3.72,6.26h-2.62v-5.28h2.62a2.421,2.421,0,0,1,2.6,2.64A2.412,2.412,0,0,1-29.57-5.74Zm9.94.72a3.248,3.248,0,0,0,2.92-3.46A3.344,3.344,0,0,0-20.41-12h-3.72V0h1.1V-4.96h2.24l1.54,2.9A3.472,3.472,0,0,0-16.11.14a4.5,4.5,0,0,0,.88-.08V-.8a3.54,3.54,0,0,1-.46.02,2.452,2.452,0,0,1-2.48-1.58Zm-.78-.92h-2.62v-5.08h2.62a2.349,2.349,0,0,1,2.6,2.54A2.341,2.341,0,0,1-20.41-5.94ZM-13.53-12V0h6.8V-.98h-5.7V-5.82h4.7V-6.8h-4.7v-4.22h5.7V-12Zm8.6,10.92A5.507,5.507,0,0,0-1.19.26a3.53,3.53,0,0,0,3.8-3.44c0-1.94-1.26-3.1-3.6-3.72-1.94-.52-2.5-1.38-2.5-2.36,0-1.18.94-2.02,2.5-2.02a5.286,5.286,0,0,1,2.76.96l.24-.94a5.361,5.361,0,0,0-3-1c-2.2,0-3.62,1.36-3.62,3s1.12,2.88,3.16,3.44C.83-5.2,1.49-4.38,1.49-3.04A2.431,2.431,0,0,1-1.19-.72,5.158,5.158,0,0,1-4.71-2.18ZM4.81-12V0h6.8V-.98H5.91V-5.82h4.7V-6.8H5.91v-4.22h5.7V-12Zm9.2,0V0h1.04V-9.78L22.31,0h.76V-12H22.03v9.78L14.77-12Zm15.02.98V0h1.1V-11.02h4.28V-12H24.75v.98Z" transform="translate(1227 8105)" fill="#3b495a"/><path d="M-15.85-5.02a3.248,3.248,0,0,0,2.92-3.46A3.344,3.344,0,0,0-16.63-12h-3.72V0h1.1V-4.96h2.24l1.54,2.9A3.472,3.472,0,0,0-12.33.14a4.5,4.5,0,0,0,.88-.08V-.8a3.54,3.54,0,0,1-.46.02,2.452,2.452,0,0,1-2.48-1.58Zm-.78-.92h-2.62v-5.08h2.62a2.349,2.349,0,0,1,2.6,2.54A2.341,2.341,0,0,1-16.63-5.94ZM-9.75-12V0h6.8V-.98h-5.7V-5.82h4.7V-6.8h-4.7v-4.22h5.7V-12ZM.97-3.48H6.59L8.03,0h1.2L4.27-12h-.9L-1.59,0H-.45Zm5.22-.98H1.37l2.4-5.9ZM10.99-12V0h3.52c4.5,0,6.42-2.7,6.42-6s-1.92-6-6.42-6ZM14.53-1.04H12.09v-9.92h2.44c3.96,0,5.26,2.34,5.26,4.96S18.49-1.04,14.53-1.04Z" transform="translate(556 8201)" fill="#3b495a"/><path d="M-90.86-5.02a3.248,3.248,0,0,0,2.92-3.46A3.344,3.344,0,0,0-91.64-12h-3.72V0h1.1V-4.96h2.24l1.54,2.9A3.472,3.472,0,0,0-87.34.14a4.5,4.5,0,0,0,.88-.08V-.8a3.541,3.541,0,0,1-.46.02A2.452,2.452,0,0,1-89.4-2.36Zm-.78-.92h-2.62v-5.08h2.62a2.349,2.349,0,0,1,2.6,2.54A2.341,2.341,0,0,1-91.64-5.94ZM-84.76-12V0h6.8V-.98h-5.7V-5.82h4.7V-6.8h-4.7v-4.22h5.7V-12Zm10.72,8.52h5.62L-66.98,0h1.2l-4.96-12h-.9L-76.6,0h1.14Zm5.22-.98h-4.82l2.4-5.9Zm4.8-7.54V0h3.52c4.5,0,6.42-2.7,6.42-6S-56-12-60.5-12Zm3.54,10.96h-2.44v-9.92h2.44c3.96,0,5.26,2.34,5.26,4.96S-56.52-1.04-60.48-1.04ZM-51-.46a.846.846,0,0,0-.82-.94.713.713,0,0,0-.7.72.753.753,0,0,0,.6.74h.1a3.551,3.551,0,0,1-.9,1.98l.32.3A3.844,3.844,0,0,0-51-.46ZM-45.84-12l3.96,12h.76l3.18-9.84L-34.8,0h.76l3.96-12h-1.1l-3.2,9.92L-37.52-12h-.76l-3.16,9.92L-44.68-12Zm22.02,6.98A3.248,3.248,0,0,0-20.9-8.48,3.344,3.344,0,0,0-24.6-12h-3.72V0h1.1V-4.96h2.24l1.54,2.9A3.472,3.472,0,0,0-20.3.14a4.5,4.5,0,0,0,.88-.08V-.8a3.54,3.54,0,0,1-.46.02,2.452,2.452,0,0,1-2.48-1.58Zm-.78-.92h-2.62v-5.08h2.62A2.349,2.349,0,0,1-22-8.48,2.341,2.341,0,0,1-24.6-5.94ZM-17.72-12V0h1.1V-12Zm7.06.98V0h1.1V-11.02h4.28V-12h-9.66v.98ZM-3.6-12V0H3.2V-.98H-2.5V-5.82H2.2V-6.8H-2.5v-4.22H3.2V-12ZM7.06-.46a.846.846,0,0,0-.82-.94.713.713,0,0,0-.7.72.753.753,0,0,0,.6.74h.1a3.551,3.551,0,0,1-.9,1.98l.32.3A3.844,3.844,0,0,0,7.06-.46Zm9.36-10.56V0h1.1V-11.02H21.8V-12H12.14v.98Zm11.56,6A3.248,3.248,0,0,0,30.9-8.48,3.344,3.344,0,0,0,27.2-12H23.48V0h1.1V-4.96h2.24l1.54,2.9A3.472,3.472,0,0,0,31.5.14a4.5,4.5,0,0,0,.88-.08V-.8a3.54,3.54,0,0,1-.46.02,2.452,2.452,0,0,1-2.48-1.58Zm-.78-.92H24.58v-5.08H27.2a2.349,2.349,0,0,1,2.6,2.54A2.341,2.341,0,0,1,27.2-5.94Zm7.4,2.46h5.62L41.66,0h1.2L37.9-12H37L32.04,0h1.14Zm5.22-.98H35l2.4-5.9ZM44.62-12V0h1.04V-9.78L52.92,0h.76V-12H52.64v9.78L45.38-12ZM55.88-1.08A5.507,5.507,0,0,0,59.62.26a3.53,3.53,0,0,0,3.8-3.44c0-1.94-1.26-3.1-3.6-3.72-1.94-.52-2.5-1.38-2.5-2.36,0-1.18.94-2.02,2.5-2.02a5.286,5.286,0,0,1,2.76.96l.24-.94a5.361,5.361,0,0,0-3-1c-2.2,0-3.62,1.36-3.62,3s1.12,2.88,3.16,3.44c2.28.62,2.94,1.44,2.94,2.78A2.431,2.431,0,0,1,59.62-.72,5.158,5.158,0,0,1,56.1-2.18ZM66.9-3.48h5.62L73.96,0h1.2L70.2-12h-.9L64.34,0h1.14Zm5.22-.98H67.3l2.4-5.9ZM75.54-6A5.976,5.976,0,0,0,81.68.26a7.015,7.015,0,0,0,3.94-1.2V-2.1A6.211,6.211,0,0,1,81.68-.76a4.9,4.9,0,0,1-5-5.24,4.9,4.9,0,0,1,5-5.24A6.211,6.211,0,0,1,85.62-9.9v-1.16a7.015,7.015,0,0,0-3.94-1.2A5.976,5.976,0,0,0,75.54-6ZM91.1-11.02V0h1.1V-11.02h4.28V-12H86.82v.98Z" transform="translate(808 8223)" fill="#3b495a"/><path d="M-147.4-6A6.011,6.011,0,0,0-141.26.3,6.022,6.022,0,0,0-135.12-6a6.034,6.034,0,0,0-6.14-6.3A6.022,6.022,0,0,0-147.4-6Zm11.14,0a4.941,4.941,0,0,1-5,5.28,4.919,4.919,0,0,1-5-5.28,4.919,4.919,0,0,1,5-5.28A4.941,4.941,0,0,1-136.26-6Zm1.92-6,3.96,12h.76l3.18-9.84L-123.3,0h.76l3.96-12h-1.1l-3.2,9.92L-126.02-12h-.76l-3.16,9.92L-133.18-12Zm17.52,0V0h1.04V-9.78L-108.52,0h.76V-12h-1.04v9.78L-116.06-12Zm11.86,0V0h6.8V-.98h-5.7V-5.82h4.7V-6.8h-4.7v-4.22h5.7V-12Zm13.7,6.98a3.248,3.248,0,0,0,2.92-3.46A3.344,3.344,0,0,0-92.04-12h-3.72V0h1.1V-4.96h2.24l1.54,2.9A3.472,3.472,0,0,0-87.74.14a4.5,4.5,0,0,0,.88-.08V-.8a3.541,3.541,0,0,1-.46.02A2.452,2.452,0,0,1-89.8-2.36Zm-.78-.92h-2.62v-5.08h2.62a2.349,2.349,0,0,1,2.6,2.54A2.341,2.341,0,0,1-92.04-5.94Zm6.1,4.86A5.507,5.507,0,0,0-82.2.26a3.53,3.53,0,0,0,3.8-3.44c0-1.94-1.26-3.1-3.6-3.72-1.94-.52-2.5-1.38-2.5-2.36,0-1.18.94-2.02,2.5-2.02a5.286,5.286,0,0,1,2.76.96l.24-.94a5.361,5.361,0,0,0-3-1c-2.2,0-3.62,1.36-3.62,3s1.12,2.88,3.16,3.44c2.28.62,2.94,1.44,2.94,2.78A2.431,2.431,0,0,1-82.2-.72a5.158,5.158,0,0,1-3.52-1.46ZM-76.2-12V0h1.1V-5.82h7.16V0h1.1V-12h-1.1v5.2H-75.1V-12Zm12.16,0V0h1.1V-12Zm3.9,0V0h1.1V-4.76h2.62a3.407,3.407,0,0,0,3.7-3.62A3.416,3.416,0,0,0-56.42-12Zm3.72,6.26h-2.62v-5.28h2.62a2.421,2.421,0,0,1,2.6,2.64A2.412,2.412,0,0,1-56.42-5.74Zm5.7,5.28a.846.846,0,0,0-.82-.94.713.713,0,0,0-.7.72.753.753,0,0,0,.6.74h.1a3.551,3.551,0,0,1-.9,1.98l.32.3A3.844,3.844,0,0,0-50.72-.46ZM-44.52-12V0h1.1V-12Zm3.9,0V0h1.06V-8.16c0-.96-.02-1.94-.02-1.96.04.08.4,1.06.78,1.92L-35.16,0h.88l3.64-8.2c.36-.82.76-1.88.78-1.92,0,.02-.02,1.02-.02,1.96V0h1.1V-12h-1.2l-4.7,10.54L-39.38-12Zm14.64,0V0h1.06V-8.16c0-.96-.02-1.94-.02-1.96.04.08.4,1.06.78,1.92L-20.52,0h.88L-16-8.2c.36-.82.76-1.88.78-1.92,0,.02-.02,1.02-.02,1.96V0h1.1V-12h-1.2l-4.7,10.54L-24.74-12Zm14.64,0V0h6.8V-.98h-5.7V-5.82h4.7V-6.8h-4.7v-4.22h5.7V-12ZM2.36-5.02A3.248,3.248,0,0,0,5.28-8.48,3.344,3.344,0,0,0,1.58-12H-2.14V0h1.1V-4.96H1.2l1.54,2.9A3.472,3.472,0,0,0,5.88.14,4.5,4.5,0,0,0,6.76.06V-.8a3.54,3.54,0,0,1-.46.02A2.452,2.452,0,0,1,3.82-2.36Zm-.78-.92H-1.04v-5.08H1.58a2.349,2.349,0,0,1,2.6,2.54A2.341,2.341,0,0,1,1.58-5.94Zm6.1,4.86A5.507,5.507,0,0,0,11.42.26a3.53,3.53,0,0,0,3.8-3.44c0-1.94-1.26-3.1-3.6-3.72-1.94-.52-2.5-1.38-2.5-2.36,0-1.18.94-2.02,2.5-2.02a5.286,5.286,0,0,1,2.76.96l.24-.94a5.361,5.361,0,0,0-3-1c-2.2,0-3.62,1.36-3.62,3s1.12,2.88,3.16,3.44c2.28.62,2.94,1.44,2.94,2.78A2.431,2.431,0,0,1,11.42-.72,5.158,5.158,0,0,1,7.9-2.18ZM17.42-12V0h1.1V-12Zm3.32,6A6.011,6.011,0,0,0,26.88.3,6.022,6.022,0,0,0,33.02-6a6.034,6.034,0,0,0-6.14-6.3A6.022,6.022,0,0,0,20.74-6ZM31.88-6a4.941,4.941,0,0,1-5,5.28,4.919,4.919,0,0,1-5-5.28,4.919,4.919,0,0,1,5-5.28A4.941,4.941,0,0,1,31.88-6Zm3.36-6V0h1.04V-9.78L43.54,0h.76V-12H43.26v9.78L36-12ZM48.56-.46a.846.846,0,0,0-.82-.94.713.713,0,0,0-.7.72.753.753,0,0,0,.6.74h.1a3.551,3.551,0,0,1-.9,1.98l.32.3A3.844,3.844,0,0,0,48.56-.46ZM54.76-12V0h6.8V-.98h-5.7V-5.82h4.7V-6.8h-4.7v-4.22h5.7V-12ZM67.24-6.18,62.84,0h1.3l3.78-5.34L71.62,0H73L68.62-6.14,72.78-12h-1.3L67.94-7.02,64.44-12H63.06ZM74.68-12V0h1.1V-4.76H78.4a3.407,3.407,0,0,0,3.7-3.62A3.416,3.416,0,0,0,78.4-12ZM78.4-5.74H75.78v-5.28H78.4A2.421,2.421,0,0,1,81-8.38,2.412,2.412,0,0,1,78.4-5.74ZM83.84-12V0h6.8V-.98h-5.7V-5.82h4.7V-6.8h-4.7v-4.22h5.7V-12Zm13.7,6.98a3.248,3.248,0,0,0,2.92-3.46A3.344,3.344,0,0,0,96.76-12H93.04V0h1.1V-4.96h2.24l1.54,2.9a3.472,3.472,0,0,0,3.14,2.2,4.5,4.5,0,0,0,.88-.08V-.8a3.541,3.541,0,0,1-.46.02A2.452,2.452,0,0,1,99-2.36Zm-.78-.92H94.14v-5.08h2.62a2.349,2.349,0,0,1,2.6,2.54A2.341,2.341,0,0,1,96.76-5.94ZM103.64-12V0h1.1V-12Zm3.9,0V0h6.8V-.98h-5.7V-5.82h4.7V-6.8h-4.7v-4.22h5.7V-12Zm9.2,0V0h1.04V-9.78L125.04,0h.76V-12h-1.04v9.78L117.5-12Zm11.28,6A5.976,5.976,0,0,0,134.16.26a7.015,7.015,0,0,0,3.94-1.2V-2.1a6.211,6.211,0,0,1-3.94,1.34,4.9,4.9,0,0,1-5-5.24,4.9,4.9,0,0,1,5-5.24A6.211,6.211,0,0,1,138.1-9.9v-1.16a7.015,7.015,0,0,0-3.94-1.2A5.976,5.976,0,0,0,128.02-6Zm12.4-6V0h6.8V-.98h-5.7V-5.82h4.7V-6.8h-4.7v-4.22h5.7V-12Z" transform="translate(1227 8223)" fill="#3b495a"/></g></svg>