<svg xmlns="http://www.w3.org/2000/svg" width="79.002" height="79.002"><path d="M0 0h79v79H0Z" fill="none"/><path d="M49.376 29.625H39.4l-3.193-9.875-3.193 9.875h-9.972l8.131 5.793-3.094 9.579 8.131-5.925 8.131 5.925-3.094-9.579Zm0 0H39.4l-3.193-9.875-3.193 9.875h-9.972l8.131 5.793-3.094 9.579 8.131-5.925 8.131 5.925-3.094-9.579Zm26.334 6.6-16.459-.016a3.3 3.3 0 0 0-3.292 3.292v29.625a3.3 3.3 0 0 0 3.292 3.292H75.71A3.3 3.3 0 0 0 79 69.126V39.5a3.287 3.287 0 0 0-3.29-3.275Zm0 29.609H59.251V42.792H75.71ZM65.835 6.583H6.583A6.561 6.561 0 0 0 0 13.166v39.5a6.582 6.582 0 0 0 6.583 6.583h23.043v6.583h-6.584v6.583h26.334v-6.581h-6.583v-6.583h6.583v-6.584H6.583v-39.5h59.252v16.458h6.583V13.166a6.582 6.582 0 0 0-6.583-6.583ZM39.4 29.625l-3.193-9.875-3.193 9.875h-9.972l8.131 5.793-3.094 9.579 8.131-5.925 8.131 5.925-3.094-9.579 8.131-5.793Z" fill="#fff"/></svg>