<svg xmlns="http://www.w3.org/2000/svg" width="106.143" height="72.557"><path d="m42.732 55.047 33.189-44.96a3.684 3.684 0 0 1 6.553 3.02l-.163.522-20.529 51.977a10.983 10.983 0 1 1-19.819-9.361l.365-.612.4-.587 33.193-44.959ZM88.14 12.575a56.541 56.541 0 0 1 10.727 11.521 65.823 65.823 0 0 1 7 12.722 3.979 3.979 0 0 1-7.41 2.9 43.7 43.7 0 0 0-2-4.306l-10.871 6.276a3.979 3.979 0 0 1-4.428-6.59l.449-.3 10.706-6.191-1.223-1.665a48.567 48.567 0 0 0-5.61-6.151l2.017-5.114a9.276 9.276 0 0 0 .46-1.546l.126-.782ZM74.197 4.293a9.1 9.1 0 0 0-2.157 1.743l-.606.738-2.869 3.888a48.826 48.826 0 0 0-11.505-2.5v14.183a3.979 3.979 0 0 1-7.921.54l-.036-.54V8.08a48.312 48.312 0 0 0-24.351 8.66 44.156 44.156 0 0 0-11.245 11.695l11.045 6.376a3.979 3.979 0 0 1-3.493 7.129l-.486-.239-11-6.349q-1.017 2.119-1.886 4.357a3.978 3.978 0 1 1-7.416-2.882c4.278-11.006 11.029-20.383 19.913-26.6a56.451 56.451 0 0 1 54.013-5.934Z" fill="#fff"/></svg>