<svg xmlns="http://www.w3.org/2000/svg" width="60.941" height="75.008"><g fill="#fff"><path d="M30.466 16.408a8.2 8.2 0 1 1 8.2-8.2 8.2 8.2 0 0 1-8.2 8.2Z"/><path d="m56.254 16.525-.066.018-.062.019c-.146.041-.293.085-.439.13-2.726.8-15.958 4.53-25.28 4.53-8.663 0-20.7-3.223-24.547-4.317a10.809 10.809 0 0 0-1.172-.378C1.905 15.795 0 18.622 0 21.206c0 2.559 2.3 3.778 4.622 4.653v.041l13.95 4.357c1.425.546 1.806 1.1 1.992 1.588.605 1.551.122 4.624-.05 5.7l-.85 6.592-4.716 25.812q-.022.105-.04.215l-.034.186c-.34 2.366 1.4 4.662 4.688 4.662 2.871 0 4.139-1.982 4.688-4.679s4.1-23.084 6.153-23.084 6.276 23.084 6.276 23.084c.549 2.7 1.817 4.679 4.688 4.679 3.3 0 5.037-2.306 4.688-4.679-.031-.2-.067-.4-.111-.595l-4.78-25.6-.848-6.592c-.614-3.84-.12-5.108.047-5.406a.159.159 0 0 0 .012-.022 5.222 5.222 0 0 1 2.561-1.581l13.079-4.572a2.473 2.473 0 0 0 .237-.076c2.344-.879 4.688-2.095 4.688-4.678s-1.902-5.417-4.686-4.686Z"/></g></svg>