<svg xmlns="http://www.w3.org/2000/svg" width="76.908" height="76.933"><g fill="#fff"><path d="M38.436 76.932A38.463 38.463 0 0 1 9.224 13.481a38.453 38.453 0 0 1 44.877-10.14 3.5 3.5 0 0 1-2.846 6.386 31.461 31.461 0 0 0-39.2 45.861 31.461 31.461 0 0 0 57.862-17.105v-3.214a3.5 3.5 0 0 1 6.991 0v3.216a38.511 38.511 0 0 1-38.472 38.447Z"/><path d="M38.456 49.007a3.5 3.5 0 0 1-2.473-1.024L25.496 37.496a3.5 3.5 0 1 1 4.944-4.944l8.014 8.014L70.939 8.049a3.5 3.5 0 0 1 4.946 4.941L40.928 47.982a3.5 3.5 0 0 1-2.472 1.025Z"/></g></svg>