<svg xmlns="http://www.w3.org/2000/svg" width="62.691" height="62.702"><path d="m13.407 29.898 16.48-16.483-5.413-5.4-7.543 7.559a1.608 1.608 0 0 1-.7.282 1.111 1.111 0 0 1-.685-.283l-1.372-1.37a.983.983 0 0 1 0-1.384l7.555-7.549-4.11-4.122a3.885 3.885 0 0 0-5.495 0L1.136 12.131a3.888 3.888 0 0 0 0 5.493Zm47.561-14.315a5.882 5.882 0 0 0 0-8.317l-5.541-5.542a5.885 5.885 0 0 0-8.323 0l-5.523 5.633 13.862 13.862Zm-3.526 25.384-7.555 7.555a.971.971 0 0 1-1.373 0l-1.37-1.37a.97.97 0 0 1 0-1.371l7.554-7.554-5.411-5.415-16.483 16.482 12.27 12.27a3.885 3.885 0 0 0 5.495 0L61.555 50.58a3.888 3.888 0 0 0 0-5.493ZM38.706 10.135 3.219 45.622a3.917 3.917 0 0 0-1.089 2.1L.043 59.654a2.6 2.6 0 0 0 3.01 3.007l11.943-2.093a3.917 3.917 0 0 0 2.091-1.089l35.49-35.487Z" fill="#fff"/></svg>