<svg xmlns="http://www.w3.org/2000/svg" width="79.837" height="80"><path d="M0 0v11.568h79.837V0Zm72.505 8.31h-27.7a2.444 2.444 0 1 1 0-4.888h27.7a2.444 2.444 0 1 1 0 4.888ZM0 16.456V80h79.837V16.456Zm76.578 60.285H3.259V19.715h73.32Z" fill="#fff"/><path fill="#fff" d="M6.69 23.136h66.899v4.46H6.69zm68.873 16.646c-1.971-3.144-6.513-4.278-12.245-3.569a22.07 22.07 0 0 0-33.932 21c-3.17 4.8-4.149 9.352-2.177 12.5s6.513 4.278 12.245 3.569a22.07 22.07 0 0 0 33.932-21c3.167-4.803 4.146-9.355 2.177-12.5Zm-24.177-4a19.09 19.09 0 0 1 7.147 1.381 57.013 57.013 0 0 0-26.182 16.2 19.06 19.06 0 0 1 19.032-17.58ZM30.394 69.427c-.768-1.224-.359-3.066.985-5.256a22.066 22.066 0 0 0 4.869 6.621c-2.925.378-5.025-.036-5.857-1.364Zm20.992 4.279a19.115 19.115 0 0 1-17.9-12.384 72.826 72.826 0 0 1 31.725-19.637 18.813 18.813 0 0 1 5.252 13.064q0 .7-.051 1.378a19.059 19.059 0 0 1-19.029 17.58ZM68.718 41.06c2.574-.234 4.42.214 5.188 1.439.832 1.327.282 3.38-1.344 5.816a21.89 21.89 0 0 0-3.847-7.254Z"/></svg>