<svg xmlns="http://www.w3.org/2000/svg" width="96" height="71.985"><path d="M24.845 13.388a6.013 6.013 0 0 0-8.449.762l-15 18a5.984 5.984 0 0 0 0 7.687l15 18a6 6 0 1 0 9.21-7.687L13.807 35.988l11.8-14.155a6 6 0 0 0-.762-8.449ZM55.171.107a6.056 6.056 0 0 0-7.054 4.711l-12 60a5.985 5.985 0 0 0 4.711 7.054 5.705 5.705 0 0 0 1.184.116 6 6 0 0 0 5.871-4.827l12-60A5.985 5.985 0 0 0 55.172.107ZM94.6 32.144l-15-18a6 6 0 1 0-9.21 7.687l11.803 14.157-11.8 14.155a6 6 0 1 0 9.21 7.687l15-18a5.984 5.984 0 0 0-.003-7.686Z" fill="#fff"/></svg>