<svg xmlns="http://www.w3.org/2000/svg" width="40.163" height="40.242"><g fill="#fff" fill-rule="evenodd"><path d="M9.988 31.62a4.333 4.333 0 0 0-4.311 4.311 4.333 4.333 0 0 0 4.311 4.311 4.333 4.333 0 0 0 4.311-4.311 4.333 4.333 0 0 0-4.311-4.311Zm0 2.874a1.416 1.416 0 0 1 1.437 1.437 1.416 1.416 0 0 1-1.437 1.437 1.416 1.416 0 0 1-1.437-1.437 1.416 1.416 0 0 1 1.437-1.437Zm20.117-2.874a4.333 4.333 0 0 0-4.311 4.311 4.333 4.333 0 0 0 4.311 4.311 4.333 4.333 0 0 0 4.311-4.311 4.333 4.333 0 0 0-4.311-4.311Zm0 2.874a1.416 1.416 0 0 1 1.437 1.437 1.416 1.416 0 0 1-1.437 1.437 1.416 1.416 0 0 1-1.437-1.437 1.416 1.416 0 0 1 1.437-1.437ZM31.541.009A8.643 8.643 0 0 0 22.92 8.63a8.643 8.643 0 0 0 8.621 8.621 8.643 8.643 0 0 0 8.621-8.621A8.643 8.643 0 0 0 31.541.009Zm0 2.874a5.726 5.726 0 0 1 5.748 5.748 5.726 5.726 0 0 1-5.748 5.748 5.726 5.726 0 0 1-5.748-5.748 5.726 5.726 0 0 1 5.748-5.748Z"/><path d="M34.561 5.764a1.437 1.437 0 0 0-1.055.314l-2.916 2.38-.943-.878a1.437 1.437 0 0 0-2.029.07 1.437 1.437 0 0 0 .07 2.029l1.858 1.737a1.437 1.437 0 0 0 1.886.062l3.893-3.171a1.437 1.437 0 0 0 .2-2.021 1.437 1.437 0 0 0-.968-.522Z"/><path d="M1.437 0A1.437 1.437 0 0 0 0 1.437a1.437 1.437 0 0 0 1.437 1.437h1.7l3.808 19.028a4.335 4.335 0 0 0-2.63 3.963 4.333 4.333 0 0 0 4.311 4.311h24.425a1.437 1.437 0 0 0 1.437-1.437 1.437 1.437 0 0 0-1.437-1.439H8.621a1.4 1.4 0 0 1-1.437-1.437 1.4 1.4 0 0 1 1.437-1.437h21.554l.042-.009h4.268a1.437 1.437 0 0 0 1.42-1.212l1.346-8.575a1.437 1.437 0 1 0-2.84-.446l-1.159 7.361H9.8L7.213 8.621h17.363a1.437 1.437 0 0 0 1.437-1.437 1.437 1.437 0 0 0-1.437-1.437H6.637l-.918-4.591A1.437 1.437 0 0 0 4.31 0Z"/></g></svg>