<svg xmlns="http://www.w3.org/2000/svg" width="36.782" height="36.783"><g fill="#fff"><path d="M28.926 22.444a15.337 15.337 0 1 0-6.48 6.482l6.51 6.511a4.583 4.583 0 1 0 6.49-6.473ZM3.131 15.37a12.242 12.242 0 1 1 12.242 12.243A12.242 12.242 0 0 1 3.131 15.37Zm30.147 17.917a1.53 1.53 0 0 1-2.142 0l-6.071-6.072a15.444 15.444 0 0 0 2.142-2.152l6.078 6.069a1.494 1.494 0 0 1-.014 2.153Z"/><path d="M15.374 6.189a9.191 9.191 0 0 0-9.182 9.182 1.53 1.53 0 0 0 3.061 0 6.121 6.121 0 0 1 6.121-6.121 1.53 1.53 0 0 0 0-3.061Z"/></g></svg>