<svg xmlns="http://www.w3.org/2000/svg" width="35.156" height="35.154"><g fill="#fff"><path d="M35.077 1.507A1.1 1.1 0 0 0 33.649.079L1.687 12.864l-.993.4a1.1 1.1 0 0 0-.18 1.949l.9.571 10.975 6.983 3.493 5.489c1.7 2.5 1.7.308 1.7-.791a9.887 9.887 0 0 1 11.043-9.821ZM31.05 5.66 14.584 22.125l-.472-.743a1.1 1.1 0 0 0-.338-.338l-.743-.472 16.47-16.466 2.588-1.035-1.037 2.589Z"/><path d="M35.156 27.464a7.69 7.69 0 1 1-7.69-7.69 7.69 7.69 0 0 1 7.69 7.69Zm-4.38-3.69a1.1 1.1 0 0 0-1.507.378l-2.571 4.284-1.2-1.2a1.1 1.1 0 0 0-1.556 1.556l1.7 1.7a1.648 1.648 0 0 0 2.579-.316l2.933-4.891a1.1 1.1 0 0 0-.378-1.511Z"/></g></svg>