<svg width="25" height="25" fill="none" xmlns="http://www.w3.org/2000/svg"><rect x="4.433" y="8.632" width="16.8" height="4.8" rx="1" fill="#73BC06"/><path d="M19.223 7.681c.25-.61.32-1.29.16-1.96a3.196 3.196 0 0 0-2.35-2.39c-1.46-.35-2.91.29-3.61 1.59 0 .01-.01.01-.01.02l-.56 1.05c-.02.04-.03.09-.05.13-.02-.05-.03-.09-.05-.14l-.56-1.05s-.01-.01-.01-.02c-.7-1.3-2.15-1.94-3.61-1.59a3.18 3.18 0 0 0-2.35 2.39c-.16.68-.09 1.35.16 1.97-1.3.08-2.34 1.15-2.34 2.46v2.15c0 .94.54 1.75 1.31 2.17-.08.25-.14.51-.14.78v3.52a2.493 2.493 0 0 0 2.49 2.47h10.2a2.48 2.48 0 0 0 2.48-2.48v-3.52c0-.27-.06-.53-.14-.78.78-.42 1.31-1.23 1.31-2.17v-2.14a2.46 2.46 0 0 0-2.33-2.46Zm.33 2.46v2.15c0 .26-.21.48-.48.48h-5.27v-3.1h5.28c.26-.01.47.2.47.47Zm-4.93-3.22.28-.53c.13-.25.22-.41.28-.53a1.218 1.218 0 0 1 2.25.28c.08.36.01.71-.19 1-.2.28-.51.47-.85.5-.05 0-.09.01-.14.01h-1.19c-.25 0-.38-.17-.43-.24a.493.493 0 0 1-.01-.49Zm-6.45-.77c.09-.42.45-.78.87-.88a1.218 1.218 0 0 1 1.38.6c.06.12.15.29.28.53l.28.53c.12.23.03.42-.01.5-.04.06-.17.23-.43.23h-1.19c-.05 0-.09 0-.14-.01-.34-.04-.65-.22-.85-.5-.2-.29-.27-.64-.19-1Zm-2.12 3.99c0-.26.21-.48.48-.48h5.28v3.1h-5.29a.48.48 0 0 1-.48-.48v-2.14h.01Zm1.17 8.61v-3.52c0-.26.21-.48.48-.48h4.1v4.48h-4.1a.48.48 0 0 1-.48-.48Zm11.16 0c0 .26-.21.48-.48.48h-4.1v-4.47h4.1c.26 0 .48.21.48.48v3.51Z" fill="#0C0C0C"/></svg>