<svg width="25" height="25" fill="none" xmlns="http://www.w3.org/2000/svg"><g clip-path="url(#a)"><path d="M8.504 19.137h8.004c1.704 0 3-1.293 3-2.992v-.096c0-.898-.3-1.7-.996-2.298l-.096-.096-2.1-1.89-.096-.097c-.396-.299-.696-.801-.804-1.292-.096-.395-.504-.694-.9-.694H10.52c-.396 0-.804.299-.9.694a2.144 2.144 0 0 1-.804 1.292l-.096.096-2.1 1.891-.096.096c-.696.598-.996 1.4-.996 2.298v.096c0 1.7 1.296 2.992 3 2.992h-.024Z" fill="#73BC06"/><path d="M8.504 21.231h8.004c2.796 0 5.004-2.19 5.004-4.99v-.204c0-1.4-.504-2.693-1.5-3.59v-2.79c0-2.573-1.98-4.751-4.548-4.978.06-.156.096-.324.096-.503 0-.73-.588-1.317-1.32-1.317a1.314 1.314 0 0 0-1.224 1.808h-1.02a1.314 1.314 0 0 0-1.224-1.807c-.732 0-1.32.586-1.32 1.316 0 .18.036.347.096.503C6.98 4.906 5 7.084 5 9.658v2.788c-.996.898-1.5 2.19-1.5 3.59v.204c0 2.79 2.196 4.991 5.004 4.991Zm-1.5-11.573c0-1.7 1.296-2.993 3-2.993h5.004c1.704 0 3 1.293 3 2.993v.993l-.396-.3c-.096-.095-.204-.298-.3-.502-.3-1.293-1.5-2.19-2.796-2.19H10.52c-1.296 0-2.496.897-2.796 2.19a2.31 2.31 0 0 1-.3.503l-.396.299v-.993h-.024Zm-1.5 6.39c0-.897.3-1.699.996-2.297l.096-.096 2.1-1.89.096-.097c.396-.299.696-.802.804-1.292.096-.395.504-.694.9-.694h3.996c.396 0 .804.299.9.694.096.502.396.993.804 1.292l.096.096 2.1 1.891.096.096c.696.598.996 1.4.996 2.298v.096c0 1.7-1.296 2.992-3 2.992H8.48c-1.704 0-3-1.293-3-2.992v-.096h.024Z" fill="#0C0C0C"/></g><defs><clipPath id="a"><path fill="#fff" transform="translate(3.5 2.871)" d="M0 0h18v18.36H0z"/></clipPath></defs></svg>