<svg width="25" height="25" fill="none" xmlns="http://www.w3.org/2000/svg"><path fill="#73BC06" d="M7.367 10.231h9.6v4h-9.6z"/><path d="m20.467 6.731-3.1-2.7c-.6-.5-1.3-.8-2-.8h-6.5c-.7 0-1.4.3-2 .8l-3 2.7c-.5.4-.7.9-.7 1.5s.3 1.1.7 1.5l1.8 1.5v8c0 1.1.9 2 2 2h9c1.1 0 2-.9 2-2v-8l1.7-1.5c.4-.4.7-.9.7-1.5s-.2-1.1-.6-1.5Zm-7.1-1.5c0 .7-.6 1.2-1.2 1.2s-1.3-.5-1.3-1.2h2.5Zm3.3 5.3v8.2c0 .3-.2.5-.5.5h-8c-.3 0-.5-.2-.5-.5v-8.2c0-.1-.1-.3-.2-.4l-1.9-1.6c-.2-.2-.2-.6 0-.8l2.6-2.3c.2-.1.5-.2.7-.2h.5c0 1.5 1.2 2.8 2.7 2.8 1.5 0 2.8-1.2 2.8-2.8h.5c.2 0 .5.1.7.3l2.6 2.3c.2.2.2.6 0 .8l-1.8 1.5c-.2.1-.2.2-.2.4Z" fill="#0C0C0C"/></svg>