<svg width="25" height="25" fill="none" xmlns="http://www.w3.org/2000/svg"><path d="M7.99 18.381a93.169 93.169 0 0 1-3.087-2.9c-.859-.85-1.567-1.65-2.125-2.4-.559-.75-.967-1.475-1.225-2.175a6.303 6.303 0 0 1-.388-2.2c0-1.566.525-2.87 1.575-3.912 1.05-1.042 2.358-1.563 3.925-1.563.867 0 1.692.184 2.475.55a5.928 5.928 0 0 1 2.025 1.55 5.93 5.93 0 0 1 2.025-1.55 5.77 5.77 0 0 1 2.475-.55c1.35 0 2.483.38 3.4 1.138A5.687 5.687 0 0 1 20.94 7.23h-2.125c-.3-.666-.742-1.166-1.325-1.5a3.628 3.628 0 0 0-1.825-.5c-.85 0-1.583.23-2.2.688-.617.458-1.192 1.062-1.725 1.812h-1.15c-.517-.75-1.104-1.354-1.762-1.812a3.705 3.705 0 0 0-2.163-.688c-.95 0-1.77.33-2.462.988-.692.658-1.038 1.487-1.038 2.487 0 .55.117 1.109.35 1.675.233.567.65 1.221 1.25 1.963s1.417 1.608 2.45 2.6a119.44 119.44 0 0 0 3.95 3.587c.433-.383.942-.825 1.525-1.325s1.05-.916 1.4-1.25l.225.225.488.488.487.487.225.225c-.367.334-.833.746-1.4 1.238a215 215 0 0 0-1.5 1.312l-.775.7a.917.917 0 0 1-.675.275.918.918 0 0 1-.675-.275l-2.5-2.25Z" fill="#0C0C0C"/><path d="m20.942 10.757-2.825 2.825-.725-.7a1.05 1.05 0 0 0-.7-.287.916.916 0 0 0-.7.287c-.2.2-.3.433-.3.7 0 .267.1.5.3.7l1.4 1.425c.2.2.437.3.712.3.275 0 .513-.1.713-.3l3.525-3.525c.2-.2.3-.438.3-.713 0-.274-.1-.512-.3-.712a.96.96 0 0 0-.7-.3c-.267 0-.5.1-.7.3Z" fill="#73BC06"/></svg>