<svg width="25" height="25" fill="none" xmlns="http://www.w3.org/2000/svg"><g clip-path="url(#a)"><path d="M14.47 9.831H9.864c-.72 0-1.296-.67-1.296-1.507v-.586c0-.837.576-1.507 1.296-1.507h4.608c.72 0 1.296.67 1.296 1.507v.586c0 .838-.576 1.507-1.296 1.507Z" fill="#73BC06"/><path fill-rule="evenodd" clip-rule="evenodd" d="M10.967 6.232v-3.6h2.4v3.6h-2.4Z" fill="#0C0C0C"/><path fill-rule="evenodd" clip-rule="evenodd" d="M7.967 2.632a1.2 1.2 0 0 1 1.2-1.2h8.4a1.2 1.2 0 0 1 0 2.4h-8.4a1.2 1.2 0 0 1-1.2-1.2Zm1.678 8.279a2.393 2.393 0 0 0-2.398 2.388v6.264a2.393 2.393 0 0 0 2.398 2.388h5.043a2.393 2.393 0 0 0 2.399-2.388V13.3a2.393 2.393 0 0 0-2.399-2.388H9.645Zm-4.558 2.388A4.553 4.553 0 0 1 9.645 8.75h5.043a4.553 4.553 0 0 1 4.559 4.548v6.264a4.553 4.553 0 0 1-4.559 4.548H9.645a4.553 4.553 0 0 1-4.558-4.548V13.3Z" fill="#0C0C0C"/></g><defs><clipPath id="a"><path fill="#fff" transform="translate(.167 .231)" d="M0 0h24v24H0z"/></clipPath></defs></svg>