<svg width="25" height="25" fill="none" xmlns="http://www.w3.org/2000/svg"><path fill="#73BC06" d="M5.3 8.632h14.4v12H5.3z"/><path d="M20.4 7.631H7.3c-1 0-1.8-.8-1.8-1.79v-.01c0-.48.19-.93.53-1.27.33-.34.78-.53 1.27-.53h13.1c.5 0 .9-.4.9-.9s-.4-.9-.9-.9H7.3c-.97 0-1.87.38-2.55 1.06-.68.68-1.06 1.58-1.05 2.54v12.3c0 2.15 1.75 3.9 3.9 3.9h11.8c.51 0 .98-.2 1.34-.56.36-.36.56-.84.56-1.34v-11.6c0-.5-.4-.9-.9-.9Zm-1 12.6H7.6a2.1 2.1 0 0 1-2.1-2.1v-9.2c.53.31 1.14.5 1.8.5h12.2v10.7c0 .05-.05.1-.1.1Zm-.8-13.5h-11c-.5 0-.9-.4-.9-.9s.4-.9.9-.9h11c.5 0 .9.4.9.9s-.4.9-.9.9Z" fill="#0C0C0C"/></svg>