<svg width="25" height="25" fill="none" xmlns="http://www.w3.org/2000/svg"><path d="M2.502 17.031h14.986v1.812a1.2 1.2 0 0 1-1.2 1.2H3.702a1.2 1.2 0 0 1-1.2-1.2v-1.812Z" fill="#73BC06"/><path d="M4.502 16.231h11v-3h-9c-.55 0-1.021.196-1.413.588a1.926 1.926 0 0 0-.587 1.412v1Zm17-10c.283 0 .52.096.712.288.192.192.288.43.288.712a.967.967 0 0 1-.288.713.968.968 0 0 1-.712.287.968.968 0 0 0-.713.288.967.967 0 0 0-.287.712v4c0 .834-.292 1.542-.875 2.125a2.893 2.893 0 0 1-2.125.875v1a.967.967 0 0 1-.288.713.968.968 0 0 1-.712.287h-13a.967.967 0 0 1-.713-.287.967.967 0 0 1-.287-.713v-2c0-1.1.391-2.041 1.175-2.825.783-.783 1.725-1.175 2.825-1.175h9v-1a.967.967 0 0 0-.288-.712.968.968 0 0 0-.712-.288h-4a.907.907 0 0 0-.388.088c-.125.058-.23.13-.312.212a1.034 1.034 0 0 1-.7.275.968.968 0 0 1-.713-.287.968.968 0 0 1-.287-.713 1.034 1.034 0 0 1 .275-.7c.283-.283.604-.5.962-.65a2.98 2.98 0 0 1 1.163-.225h4c.833 0 1.541.292 2.125.875.583.584.875 1.292.875 2.125v4c.283 0 .52-.095.712-.287a.967.967 0 0 0 .288-.713v-4c0-.833.291-1.541.875-2.125a2.893 2.893 0 0 1 2.125-.875Z" fill="#0C0C0C"/></svg>