<svg width="25" height="25" fill="none" xmlns="http://www.w3.org/2000/svg"><circle cx="7.1" cy="10.432" fill="#73BC06" r="1.8"/><circle cx="14.3" cy="8.031" r="1.8" fill="#73BC06"/><path fill-rule="evenodd" clip-rule="evenodd" d="M16.06 4.732c-6.47-1.78-12.5 2.12-13.39 6.36-1.56 7.48 7.59 10.49 13.17 8.48 3.01-1.12 3.01-3.35 2.01-4.46-1.12-1.23-.67-3.46 1.45-2.68 2.12.78 2.79.22 3.12-.78.56-2.01-2.01-5.8-6.36-6.92Zm-9.54 10.98a1.33 1.33 0 1 1 0-2.66c.74 0 1.33.59 1.33 1.33 0 .74-.6 1.33-1.33 1.33Zm.89-3.79a1.33 1.33 0 1 1-.001-2.66 1.33 1.33 0 0 1 .001 2.66Zm3.14-2.24a1.33 1.33 0 1 1-.001-2.66 1.33 1.33 0 0 1 .001 2.66Zm3.92-.33a1.33 1.33 0 1 1-.001-2.66 1.33 1.33 0 0 1 .001 2.66Z" fill="#0C0C0C"/></svg>