<svg width="25" height="25" fill="none" xmlns="http://www.w3.org/2000/svg"><path d="M7.834 16.232c-.55 0-1.02-.195-1.413-.587a1.926 1.926 0 0 1-.587-1.413v-8c0-.55.196-1.02.587-1.412a1.926 1.926 0 0 1 1.413-.588h14c.55 0 1.02.196 1.413.588.391.392.587.862.587 1.412v8a1.93 1.93 0 0 1-.587 1.413 1.926 1.926 0 0 1-1.413.587h-14Zm2-2h10c0-.55.196-1.02.588-1.412a1.926 1.926 0 0 1 1.412-.588v-4c-.55 0-1.02-.195-1.412-.587a1.926 1.926 0 0 1-.588-1.413h-10c0 .55-.196 1.021-.588 1.413a1.926 1.926 0 0 1-1.412.587v4c.55 0 1.02.196 1.412.588.392.392.588.862.588 1.412Zm10 6h-16c-.55 0-1.02-.195-1.413-.587a1.926 1.926 0 0 1-.587-1.413v-10a.97.97 0 0 1 .287-.712.968.968 0 0 1 .713-.288c.283 0 .52.096.712.288.192.192.288.43.288.712v10h16a.97.97 0 0 1 .713.288c.191.192.287.43.287.712a.97.97 0 0 1-.287.713.968.968 0 0 1-.713.287Z" fill="#0C0C0C"/><path d="M12.707 12.357a2.893 2.893 0 0 0 2.125.875c.834 0 1.542-.291 2.125-.875a2.893 2.893 0 0 0 .875-2.125c0-.833-.291-1.541-.875-2.125a2.893 2.893 0 0 0-2.125-.875c-.833 0-1.541.292-2.125.875a2.893 2.893 0 0 0-.875 2.125c0 .834.292 1.542.875 2.125Z" fill="#73BC06"/></svg>