<svg width="25" height="25" fill="none" xmlns="http://www.w3.org/2000/svg"><path d="M8.851 9.231a1.2 1.2 0 0 1 1.2-1.2h5.52a1.2 1.2 0 0 1 1.2 1.2v5.28a1.2 1.2 0 0 1-1.2 1.2h-5.52a1.2 1.2 0 0 1-1.2-1.2v-5.28Z" fill="#73BC06"/><path fill-rule="evenodd" clip-rule="evenodd" d="M10.358 8.932c-.215 0-.35.163-.35.316v5.334c0 .153.135.316.35.316h4.95c.215 0 .35-.163.35-.316V9.248c0-.153-.135-.316-.35-.316h-4.95Zm-1.85.316c0-1.025.85-1.816 1.85-1.816h4.95c1 0 1.85.791 1.85 1.816v5.334c0 1.024-.85 1.816-1.85 1.816h-4.95c-1 0-1.85-.791-1.85-1.816V9.248Z" fill="#0C0C0C"/><path fill-rule="evenodd" clip-rule="evenodd" d="M9.533 3.632c-1.3 0-2.3 1.014-2.3 2.2v12.8c0 1.186 1 2.2 2.3 2.2h6.6c1.3 0 2.3-1.014 2.3-2.2v-12.8c0-1.186-1-2.2-2.3-2.2h-6.6Zm-4.3 2.2c0-2.349 1.955-4.2 4.3-4.2h6.6c2.346 0 4.3 1.851 4.3 4.2v12.8c0 2.348-1.954 4.2-4.3 4.2h-6.6c-2.345 0-4.3-1.852-4.3-4.2v-12.8Z" fill="#0C0C0C"/><path d="M12.833 19.699c.608 0 1.1-.478 1.1-1.067s-.492-1.067-1.1-1.067c-.607 0-1.1.478-1.1 1.067 0 .59.493 1.067 1.1 1.067Zm1.376-14.933h-2.75a.813.813 0 0 0-.825.8c0 .441.37.8.825.8h2.75a.813.813 0 0 0 .825-.8c0-.442-.37-.8-.825-.8Z" fill="#0C0C0C"/></svg>