<svg width="25" height="25" fill="none" xmlns="http://www.w3.org/2000/svg"><path d="M4.168 3.231h10c.284 0 .521.096.713.288.191.192.287.43.287.712a.97.97 0 0 1-.287.713.968.968 0 0 1-.713.287h-10a.968.968 0 0 1-.712-.287.968.968 0 0 1-.288-.713c0-.283.096-.52.288-.712a.968.968 0 0 1 .712-.288Zm0 18c-.55 0-1.02-.195-1.412-.587a1.926 1.926 0 0 1-.588-1.413v-11c0-.55.196-1.02.588-1.412a1.926 1.926 0 0 1 1.412-.588h10c.55 0 1.021.196 1.413.588.391.392.587.862.587 1.412v11a1.93 1.93 0 0 1-.587 1.413 1.926 1.926 0 0 1-1.413.587h-10Zm0-2h10v-11h-10v11Z" fill="#0C0C0C"/><path d="M17.728 12.569c.375.658.855 1.13 1.438 1.412v6.25a.97.97 0 0 0 .287.713c.192.192.43.287.713.287s.52-.095.712-.287a.967.967 0 0 0 .288-.713v-6.25c.583-.283 1.062-.754 1.437-1.412.375-.658.563-1.438.563-2.338 0-1.133-.288-2.083-.863-2.85-.575-.766-1.287-1.15-2.137-1.15-.85 0-1.563.384-2.138 1.15-.575.767-.862 1.717-.862 2.85 0 .9.187 1.68.562 2.338Z" fill="#73BC06"/></svg>