<svg width="120" height="120" fill="none" xmlns="http://www.w3.org/2000/svg"><path fill-rule="evenodd" clip-rule="evenodd" d="M60 55c2.039 0 3.873.066 5.507.174 6.563.432 11.79 4.932 12.291 10.584.125 1.407.202 2.986.202 4.742a53.58 53.58 0 0 1-.202 4.741c-.501 5.652-5.728 10.153-12.291 10.585A83.624 83.624 0 0 1 60 86a83.58 83.58 0 0 1-5.506-.174c-6.563-.432-11.79-4.933-12.292-10.585A53.459 53.459 0 0 1 42 70.5c0-1.756.077-3.335.202-4.742.502-5.652 5.729-10.152 12.292-10.584A83.61 83.61 0 0 1 60 55Zm21 2c1.246 0 2.367.038 3.365.1 4.011.252 7.205 2.865 7.512 6.147.076.817.123 1.734.123 2.753 0 1.02-.047 1.936-.123 2.753-.307 3.282-3.5 5.895-7.512 6.146a52.83 52.83 0 0 1-2.839.099L81 75c-.207 0-.41-.001-.61-.003l-2.632-17.904.313-.018A54.742 54.742 0 0 1 81 57Zm-42 0c1.196 0 2.276.035 3.244.093L39.61 74.997l-.302.002L39 75c-1.246 0-2.367-.038-3.365-.101-4.01-.251-7.205-2.864-7.511-6.146A29.53 29.53 0 0 1 28 66c0-1.02.047-1.936.124-2.753.306-3.282 3.5-5.895 7.511-6.146A53.505 53.505 0 0 1 39 57Zm1-14a6 6 0 1 1 0 12 6 6 0 0 1 0-12Zm40 0a6 6 0 1 1 0 12 6 6 0 0 1 0-12Zm-20-9a9 9 0 1 1 0 18 9 9 0 0 1 0-18Z" fill="#7360F2"/></svg>