<svg width="120" height="120" fill="none" xmlns="http://www.w3.org/2000/svg"><path d="M59.937 48.718c-6.176 0-11.218 5.042-11.218 11.219 0 6.176 5.041 11.218 11.218 11.218 6.176 0 11.218-5.042 11.218-11.218s-5.042-11.218-11.218-11.218Zm0 17.647c-3.53 0-6.429-2.899-6.429-6.428 0-3.53 2.9-6.429 6.429-6.429 3.53 0 6.428 2.9 6.428 6.429 0 3.53-2.899 6.428-6.428 6.428Z" fill="#7360F2"/><path d="M87.479 57.542h-3.088c-1.135-11.66-10.462-20.987-22.122-22.122v-3.025A2.394 2.394 0 0 0 59.874 30a2.394 2.394 0 0 0-2.395 2.395v3.088c-11.66 1.135-20.987 10.462-22.122 22.122h-2.962a2.394 2.394 0 1 0 0 4.79h3.088c1.135 11.66 10.462 20.987 22.122 22.122v3.088a2.394 2.394 0 1 0 4.79 0v-3.088c11.66-1.135 20.987-10.462 22.122-22.122h3.088A2.394 2.394 0 0 0 90 60c0-1.324-1.198-2.458-2.521-2.458ZM62.332 79.601v-2.773a2.394 2.394 0 0 0-2.395-2.395 2.394 2.394 0 0 0-2.395 2.395V79.6c-9.013-1.072-16.198-8.257-17.332-17.332h2.773a2.394 2.394 0 1 0 0-4.79H40.21c1.072-9.013 8.256-16.197 17.332-17.332v2.773a2.394 2.394 0 0 0 2.395 2.395 2.394 2.394 0 0 0 2.395-2.395v-2.773c9.012 1.072 16.197 8.256 17.332 17.332H76.89a2.394 2.394 0 0 0-2.395 2.395 2.394 2.394 0 0 0 2.395 2.395h2.773c-1.135 9.075-8.32 16.26-17.332 17.332Z" fill="#7360F2"/></svg>