<svg width="120" height="120" fill="none" xmlns="http://www.w3.org/2000/svg"><path fill-rule="evenodd" clip-rule="evenodd" d="M66.964 71.027a6.964 6.964 0 1 0-13.928 0 6.964 6.964 0 0 0 13.928 0Zm-9.285 0a2.321 2.321 0 1 1 4.642 0 2.321 2.321 0 0 1-4.642 0Z" fill="#7360F2"/><path fill-rule="evenodd" clip-rule="evenodd" d="M73.943 58.914a2.321 2.321 0 1 0-3.412-3.148l-9.156 9.924a2.321 2.321 0 1 0 3.412 3.148l9.156-9.924Zm16.236 26.041a2.321 2.321 0 1 0 0-4.642H29.82a2.321 2.321 0 0 0 0 4.642h60.36Zm-32.5-41.785a2.321 2.321 0 1 0 4.642 0v-5.804a2.321 2.321 0 1 0-4.642 0v5.804ZM37.73 57.368a2.321 2.321 0 0 0 2.321-4.021l-5.026-2.902a2.321 2.321 0 1 0-2.321 4.02l5.026 2.903Zm42.219-4.021a2.321 2.321 0 1 0 2.321 4.02l5.026-2.901a2.321 2.321 0 1 0-2.321-4.021l-5.026 2.902Zm-34.147-5.751a2.321 2.321 0 1 0 4.02-2.321l-2.9-5.026A2.321 2.321 0 1 0 42.9 42.57l2.902 5.026Zm24.375-2.321a2.321 2.321 0 1 0 4.02 2.321L77.1 42.57a2.321 2.321 0 0 0-4.021-2.321l-2.902 5.026Zm14.198 19.948a2.321 2.321 0 0 0 0 4.643h5.804a2.321 2.321 0 1 0 0-4.643h-5.804Zm-54.554 0a2.321 2.321 0 0 0 0 4.643h5.804a2.321 2.321 0 1 0 0-4.643h-5.804Z" fill="#7360F2"/></svg>