<svg width="184" height="50" viewBox="0 0 184 50" fill="none" xmlns="http://www.w3.org/2000/svg">
<g clip-path="url(#clip0_1715_22247)">
<path d="M4.90667 49.375C2.576 49.375 0.613333 47.375 0.613333 45V5C0.613333 2.625 2.576 0.625 4.90667 0.625H179.093C181.424 0.625 183.387 2.625 183.387 5V45C183.387 47.375 181.424 49.375 179.093 49.375H4.90667Z" fill="black"/>
<path d="M179.093 1.25C181.179 1.25 182.773 2.875 182.773 5V45C182.773 47.125 181.179 48.75 179.093 48.75H4.90667C2.82133 48.75 1.22667 47.125 1.22667 45V5C1.22667 2.875 2.82133 1.25 4.90667 1.25H179.093ZM179.093 0H4.90667C2.208 0 0 2.25 0 5V45C0 47.75 2.208 50 4.90667 50H179.093C181.792 50 184 47.75 184 45V5C184 2.25 181.792 0 179.093 0Z" fill="#A6A6A6"/>
<g clip-path="url(#clip1_1715_22247)">
<path d="M92.2686 14.9926C89.6635 14.9926 87.5377 16.9748 87.5377 19.7073C87.5377 22.4398 89.6612 24.4196 92.2686 24.4196C94.8761 24.4196 96.9995 22.4189 96.9995 19.7073C96.9995 16.9956 94.8761 14.9926 92.2686 14.9926M92.2686 22.5625C90.8398 22.5625 89.6079 21.3838 89.6079 19.7073C89.6079 18.0307 90.8398 16.8497 92.2686 16.8497C93.6974 16.8497 94.927 18.0099 94.927 19.7073C94.927 21.4046 93.6951 22.5625 92.2686 22.5625ZM81.9477 14.9926C79.3426 14.9926 77.2168 16.9748 77.2168 19.7073C77.2168 22.4398 79.3402 24.4196 81.9477 24.4196C84.5551 24.4196 86.6786 22.4189 86.6786 19.7073C86.6786 16.9956 84.5528 14.9926 81.9477 14.9926ZM81.9477 22.5625C80.5212 22.5625 79.2893 21.3838 79.2893 19.7073C79.2893 18.0307 80.5212 16.8497 81.9477 16.8497C83.3741 16.8497 84.6084 18.0099 84.6084 19.7073C84.6084 21.4046 83.3764 22.5625 81.9477 22.5625ZM69.6723 16.4399V18.4383H74.4565C74.3129 19.5637 73.9401 20.3834 73.3681 20.9554C72.6711 21.6524 71.5828 22.4189 69.6723 22.4189C66.7268 22.4189 64.4227 20.0454 64.4227 17.0998C64.4227 14.1543 66.7245 11.7807 69.6723 11.7807C71.2609 11.7807 72.421 12.4036 73.2778 13.2072L74.6881 11.7969C73.4909 10.6553 71.9023 9.78 69.6723 9.78C65.6384 9.78 62.246 13.0659 62.246 17.0998C62.246 21.1337 65.6384 24.4196 69.6723 24.4196C71.8491 24.4196 73.4909 23.7041 74.7784 22.3656C76.0983 21.0457 76.5105 19.1886 76.5105 17.688C76.5105 17.2249 76.4758 16.7965 76.404 16.4399H69.6746H69.6723ZM119.878 17.9914C119.485 16.9377 118.29 14.9926 115.844 14.9926C113.399 14.9926 111.401 16.903 111.401 19.7073C111.401 22.3494 113.399 24.4196 116.076 24.4196C118.237 24.4196 119.485 23.0997 120.003 22.3309L118.396 21.2588C117.859 22.0438 117.13 22.5625 116.076 22.5625C115.022 22.5625 114.272 22.0808 113.79 21.136L120.091 18.5286L119.878 17.9937V17.9914ZM113.452 19.5637C113.399 17.7413 114.863 16.815 115.916 16.815C116.738 16.815 117.435 17.2249 117.667 17.8154L113.455 19.566L113.452 19.5637ZM108.328 24.1325H110.398V10.2802H108.328V24.1325V24.1325ZM104.935 16.0462H104.864C104.4 15.4927 103.507 14.9926 102.383 14.9926C100.026 14.9926 97.8679 17.0628 97.8679 19.7235C97.8679 22.3842 100.028 24.4173 102.383 24.4173C103.509 24.4173 104.4 23.9171 104.864 23.3452H104.935V24.0237C104.935 25.8276 103.972 26.7909 102.418 26.7909C101.152 26.7909 100.364 25.8808 100.045 25.1143L98.2407 25.8646C98.7571 27.1151 100.133 28.6504 102.418 28.6504C104.845 28.6504 106.899 27.2216 106.899 23.7412V15.2774H104.935V16.0462V16.0462ZM102.562 22.5625C101.133 22.5625 99.9381 21.3676 99.9381 19.7258C99.9381 18.084 101.133 16.852 102.562 16.852C103.991 16.852 105.079 18.0655 105.079 19.7258C105.079 21.3861 103.972 22.5625 102.562 22.5625ZM129.576 10.2802H124.623V24.1325H126.689V18.8852H129.576C131.869 18.8852 134.12 17.2249 134.12 14.5827C134.12 11.9405 131.867 10.2802 129.576 10.2802M129.63 16.9563H126.689V12.2068H129.63C131.176 12.2068 132.054 13.4874 132.054 14.5804C132.054 15.6734 131.176 16.9539 129.63 16.9539M142.407 14.9648C140.912 14.9648 139.36 15.6247 138.719 17.0836L140.555 17.8501C140.946 17.0836 141.678 16.8335 142.444 16.8335C143.514 16.8335 144.6 17.475 144.619 18.6143V18.7578C144.244 18.5448 143.443 18.2229 142.463 18.2229C140.485 18.2229 138.471 19.309 138.471 21.3421C138.471 23.197 140.094 24.3895 141.91 24.3895C143.301 24.3895 144.065 23.7666 144.547 23.0349H144.619V24.1047H146.615V18.7926C146.615 16.3333 144.781 14.9625 142.41 14.9625M142.16 22.5532C141.481 22.5532 140.536 22.2151 140.536 21.3769C140.536 20.307 141.713 19.8995 142.729 19.8995C143.637 19.8995 144.065 20.0963 144.619 20.3626C144.459 21.6455 143.355 22.5555 142.16 22.5555M153.886 15.2658L151.515 21.2727H151.443L148.984 15.2658H146.756L150.445 23.6601L148.342 28.3285H150.498L156.183 15.2658H153.884H153.886ZM135.264 24.1279H137.331V10.2802H135.264V24.1325V24.1279Z" fill="white"/>
<path d="M39.7238 24.6026L27.9255 37.1234C27.9255 37.1234 27.9255 37.128 27.9255 37.1303C28.2867 38.4896 29.5279 39.49 31.003 39.49C31.5935 39.49 32.1446 39.3302 32.6193 39.0523L32.6564 39.0292L45.9367 31.3666L39.7215 24.6003L39.7238 24.6026Z" fill="#E63C26"/>
<path d="M51.6588 22.4699L51.6472 22.4629L45.9136 19.1399L39.4552 24.8874L45.9367 31.3666L51.6379 28.0761C52.6383 27.5342 53.3168 26.4806 53.3168 25.2672C53.3168 24.0538 52.6475 23.0117 51.6564 22.4699" fill="#F9C200"/>
<path d="M27.9255 13.36C27.8537 13.6217 27.8167 13.8973 27.8167 14.1798V36.306C27.8167 36.5908 27.8537 36.864 27.9255 37.1257L40.1267 24.9245L27.9255 13.36Z" fill="#557ABD"/>
<path d="M39.8095 25.2417L45.9159 19.1376L32.6518 11.4473C32.1701 11.1578 31.6074 10.9911 31.0053 10.9911C29.5326 10.9911 28.289 11.9961 27.9255 13.3554C27.9255 13.3554 27.9255 13.3554 27.9255 13.3577L39.8118 25.2417H39.8095Z" fill="#07A345"/>
<path d="M63.0773 32.9598C63.7998 32.932 69.7372 32.506 70.9899 32.4967L70.9992 33.2192C70.8742 33.2099 70.7584 33.2099 70.6426 33.2099C70.0845 33.2099 69.6121 33.3072 68.9938 33.7008C67.5489 34.5692 66.1502 36.1207 66.1502 37.3642C66.1502 38.7143 67.095 39.5132 69.4848 39.8235L69.1675 40.4973C66.4304 40.1013 65.4092 39.0801 65.4092 37.3642C65.4092 36.0049 66.75 34.3562 68.5122 33.2493C67.4516 33.3257 64.608 33.5387 63.3645 33.6545C63.3367 33.7309 63.2301 33.7981 63.1514 33.8097L63.075 32.9621L63.0773 32.9598ZM69.3227 34.8587C69.7858 35.206 70.3346 35.7734 70.6333 36.1879L70.2675 36.4866C69.9965 36.0628 69.4083 35.4654 68.9938 35.1458L69.3227 34.8564V34.8587ZM70.3647 34.0111C70.8371 34.3585 71.3952 34.9166 71.6754 35.3403L71.3095 35.6298C71.0502 35.2431 70.4898 34.6456 70.0359 34.3006L70.3647 34.0111V34.0111Z" fill="white"/>
<path d="M80.9589 36.9219V37.5587H76.881V39.7077C76.881 40.1986 76.7374 40.3931 76.3901 40.4973C76.0335 40.6131 75.4059 40.6224 74.3662 40.6131C74.3176 40.4302 74.1925 40.15 74.086 39.967C74.5491 39.9856 74.9914 39.9856 75.3295 39.9856C76.1493 39.9856 76.2164 39.9856 76.2164 39.7054V37.5564H72.1594V36.9196H76.2164V35.2894H72.8031V34.6734H76.2164V33.1127C75.1558 33.2377 74.0374 33.335 73.0069 33.3929C72.9884 33.2284 72.9096 32.9783 72.8332 32.8348C75.1651 32.6796 77.9717 32.3716 79.3981 31.8622L79.9585 32.411C79.9307 32.4295 79.9006 32.4388 79.8427 32.4388C79.8242 32.4388 79.7941 32.4388 79.7571 32.4295C79.0624 32.6611 78.1176 32.844 77.0778 32.9992C77.0593 33.0663 77.0107 33.0964 76.8856 33.115V34.6757H80.4147V35.2917H76.8856V36.9219H80.9635H80.9589Z" fill="white"/>
<path d="M83.8141 32.3716C83.7863 32.4782 83.6891 32.5361 83.4969 32.5268C83.1588 34.0991 82.9851 35.8243 82.9851 36.864C82.9851 37.5865 83.0129 38.3206 83.1101 38.7721C83.2931 38.2998 83.7076 37.2878 83.8419 36.9497L84.2471 37.3735C83.8512 38.3461 83.5617 38.8972 83.4274 39.3302C83.3788 39.4946 83.351 39.6475 83.351 39.7841C83.351 39.8906 83.3695 39.9856 83.3996 40.0828L82.7142 40.2079C82.4062 39.2932 82.2904 38.1747 82.2904 36.8918C82.2904 35.6089 82.4919 33.8652 82.8022 32.198L83.8141 32.3716V32.3716ZM89.9553 39.4182C89.6079 39.4367 89.2513 39.446 88.8947 39.446C88.2093 39.446 87.5655 39.4066 87.1024 39.3395C85.9167 39.1658 85.3679 38.5105 85.3679 37.7394C85.3679 37.0748 85.7338 36.5144 86.2734 35.8799L86.9009 36.1508C86.4192 36.651 86.0812 37.1141 86.0812 37.6653C86.0812 38.7837 87.7206 38.7837 88.7233 38.7837C89.1286 38.7837 89.5616 38.7652 89.9668 38.7351L89.9576 39.4205L89.9553 39.4182ZM85.493 33.5295C86.7365 33.5017 88.413 33.3859 89.6959 33.1636L89.7538 33.8375C88.5589 34.0389 86.6207 34.1663 85.5115 34.1941L85.493 33.5295Z" fill="white"/>
<path d="M95.5059 32.2559H96.1612C96.1612 33.981 96.3836 37.7208 100.276 40.0342C100.133 40.15 99.8709 40.4209 99.7552 40.583C97.2496 39.0593 96.2076 36.8525 95.7838 34.9721C95.0891 37.5448 93.8363 39.4738 91.8124 40.5923C91.6874 40.458 91.4373 40.2171 91.2729 40.1013C93.4033 38.9921 94.6468 36.9405 95.2535 34.1339L95.6495 34.2311C95.5731 33.7495 95.5337 33.3049 95.5244 32.9205H93.0652V32.2651H95.5036V32.2559H95.5059Z" fill="white"/>
<path d="M101.119 33.8652C101.899 33.8652 102.613 33.7981 102.932 33.7217C102.951 33.1428 102.96 32.8255 102.999 31.9479L103.993 32.0243C103.974 32.1308 103.886 32.198 103.722 32.2165C103.683 32.6403 103.645 33.2377 103.625 33.5943L103.923 33.7101C103.692 34.1732 103.595 34.7406 103.537 35.0879C104.597 34.0945 105.774 33.3905 106.572 33.3905C107.478 33.3905 107.932 34.0273 107.932 35.1458C107.932 35.2709 107.923 35.3959 107.913 35.521C107.846 36.3685 107.749 37.5749 107.749 38.3461C107.749 38.925 107.816 39.233 108.221 39.233C108.511 39.233 109.09 38.9435 109.504 38.5869C109.523 38.7791 109.601 39.1751 109.638 39.3186C109.148 39.6753 108.569 39.9462 108.124 39.9462C107.313 39.9462 107.045 39.4645 107.045 38.4618C107.045 37.9593 107.219 35.3102 107.219 35.301C107.219 34.4627 106.929 34.0852 106.457 34.0852C105.734 34.0852 104.518 34.8656 103.516 35.9262C103.516 37.3249 103.516 39.0408 103.525 40.3514H102.851C102.86 39.7934 102.851 37.0447 102.86 36.4287C102.522 37.1026 101.867 37.9802 101.105 38.7513L100.758 38.1446C101.559 37.392 102.455 36.2272 102.879 35.2338C102.879 34.9536 102.888 34.6943 102.898 34.3863C102.559 34.4627 101.855 34.5414 101.124 34.5507L101.114 33.8652H101.119Z" fill="white"/>
<path d="M117.998 39.7447C117.169 39.0894 116.118 38.4618 115.106 38.1353C115.124 38.5105 115.057 39.0037 114.981 39.2538C114.904 40.055 114.161 40.363 113.274 40.363C112.031 40.363 111.046 39.7563 111.037 38.7814C111.019 37.8088 112.04 37.2091 113.253 37.1998C113.591 37.1998 114.024 37.2183 114.381 37.2878C114.381 37.0284 114.332 36.8061 114.323 36.5838C114.235 35.3218 114.159 33.2979 114.149 31.9085L115.152 31.9664C115.152 32.0637 115.064 32.1493 114.902 32.1702C114.893 32.4295 114.902 33.7032 114.902 33.9926C115.529 33.9926 116.935 33.8861 118.102 33.6846L118.169 34.3701C117.069 34.5437 115.643 34.641 114.911 34.6503C114.911 35.1991 114.93 35.4214 115.076 37.4175C116.319 37.7834 117.495 38.4387 118.44 39.1334L117.996 39.7494L117.998 39.7447ZM113.237 37.7787C112.311 37.7973 111.665 38.184 111.665 38.7328C111.665 39.4367 112.426 39.7447 113.198 39.7447C113.871 39.7447 114.432 39.5039 114.432 38.8185C114.432 38.5962 114.432 38.2025 114.413 37.9223C114.027 37.8065 113.603 37.7787 113.237 37.7787V37.7787Z" fill="white"/>
<path d="M120.293 35.206C121.738 34.81 123.56 34.4164 124.283 34.4164C125.728 34.4164 126.578 35.1875 126.578 36.6139V36.6904C126.559 38.4456 125.179 39.7262 122.414 40.4695C122.326 40.3051 122.125 40.0458 121.981 39.8814C124.449 39.2932 125.846 38.1353 125.846 36.6718C125.846 35.7456 125.401 35.081 124.255 35.081C123.484 35.081 121.951 35.4283 120.765 35.8428C120.774 35.9192 120.677 36.0165 120.582 36.0651L120.293 35.206V35.206ZM121.643 31.8715C122.963 31.9872 124.486 32.2674 125.517 32.6241L125.315 33.2979C124.294 32.9506 122.731 32.6333 121.478 32.5268L121.643 31.8715Z" fill="white"/>
</g>
</g>
<defs>
<clipPath id="clip0_1715_22247">
<rect width="184" height="50" fill="white"/>
</clipPath>
<clipPath id="clip1_1715_22247">
<rect width="128.367" height="30.8354" fill="white" transform="translate(27.8167 9.78)"/>
</clipPath>
</defs>
</svg>
