<svg width="184" height="50" viewBox="0 0 184 50" fill="none" xmlns="http://www.w3.org/2000/svg">
<g clip-path="url(#clip0_1715_22246)">
<path d="M4.90667 49.375C2.576 49.375 0.613333 47.375 0.613333 45V5C0.613333 2.625 2.576 0.625 4.90667 0.625H179.093C181.424 0.625 183.387 2.625 183.387 5V45C183.387 47.375 181.424 49.375 179.093 49.375H4.90667Z" fill="black"/>
<path d="M179.093 1.25C181.179 1.25 182.773 2.875 182.773 5V45C182.773 47.125 181.179 48.75 179.093 48.75H4.90667C2.82133 48.75 1.22667 47.125 1.22667 45V5C1.22667 2.875 2.82133 1.25 4.90667 1.25H179.093ZM179.093 0H4.90667C2.208 0 0 2.25 0 5V45C0 47.75 2.208 50 4.90667 50H179.093C181.792 50 184 47.75 184 45V5C184 2.25 181.792 0 179.093 0Z" fill="#A6A6A6"/>
<path d="M75.808 20.75H70.7787L69.552 24.375H67.4667L72.128 11.125H74.336L78.9973 24.375H76.912L75.808 20.75ZM71.392 19H75.3173L73.3547 13.125L71.392 19Z" fill="white"/>
<path d="M89.3013 19.5C89.3013 22.5 87.7067 24.5 85.376 24.5C84.1493 24.625 82.9227 23.875 82.432 22.75V27.5H80.4693V14.625H82.3093V16.25C82.9227 15.125 84.1493 14.5 85.376 14.5C87.8293 14.5 89.3013 16.5 89.3013 19.5ZM87.3387 19.5C87.3387 17.5 86.3573 16.25 84.8853 16.25C83.4133 16.25 82.432 17.625 82.432 19.5C82.432 21.5 83.4133 22.75 84.8853 22.75C86.3573 22.75 87.3387 21.375 87.3387 19.5Z" fill="white"/>
<path d="M99.8507 19.5C99.8507 22.5 98.256 24.5 95.9253 24.5C94.6987 24.625 93.472 23.875 92.9813 22.75V27.5H91.0187V14.625H92.8587V16.25C93.472 15.125 94.6987 14.5 95.9253 14.5C98.256 14.5 99.8507 16.5 99.8507 19.5ZM97.7653 19.5C97.7653 17.5 96.784 16.25 95.312 16.25C93.84 16.25 92.8587 17.625 92.8587 19.5C92.8587 21.5 93.84 22.75 95.312 22.75C96.784 22.75 97.7653 21.375 97.7653 19.5Z" fill="white"/>
<path d="M106.72 20.625C106.843 22 108.069 22.75 109.787 22.75C111.381 22.75 112.608 21.875 112.608 20.75C112.608 19.75 111.872 19.125 110.155 18.625L108.437 18.25C105.984 17.625 104.88 16.5 104.88 14.625C104.88 12.375 106.843 10.75 109.664 10.75C112.363 10.75 114.325 12.375 114.325 14.625H112.363C112.24 13.25 111.136 12.5 109.541 12.5C107.947 12.5 106.843 13.25 106.843 14.5C106.843 15.5 107.579 16 109.173 16.375L110.645 16.75C113.344 17.375 114.448 18.5 114.448 20.375C114.448 22.875 112.485 24.375 109.419 24.375C106.475 24.375 104.635 22.875 104.389 20.5L106.72 20.625Z" fill="white"/>
<path d="M118.987 12.25V14.5H120.827V16.125H118.987V21.5C118.987 22.375 119.355 22.75 120.091 22.75C120.336 22.75 120.459 22.75 120.704 22.75V24.375C120.336 24.5 119.968 24.5 119.6 24.5C117.637 24.5 116.901 23.75 116.901 21.875V16.375H115.552V14.75H116.901V12.25H118.987Z" fill="white"/>
<path d="M121.808 19.5C121.808 16.5 123.525 14.5 126.347 14.5C129.045 14.5 130.885 16.375 130.885 19.5C130.885 22.5 129.168 24.5 126.347 24.5C123.525 24.375 121.808 22.5 121.808 19.5ZM128.8 19.5C128.8 17.375 127.819 16.125 126.224 16.125C124.629 16.125 123.648 17.375 123.648 19.5C123.648 21.625 124.629 22.875 126.224 22.875C127.819 22.875 128.8 21.5 128.8 19.5Z" fill="white"/>
<path d="M132.48 14.625H134.32V16.25C134.565 15.25 135.547 14.5 136.651 14.5C136.896 14.5 137.141 14.5 137.264 14.625V16.5C137.019 16.375 136.651 16.375 136.405 16.375C135.301 16.375 134.443 17.25 134.32 18.25C134.32 18.375 134.32 18.5 134.32 18.5V24.25H132.48V14.625Z" fill="white"/>
<path d="M146.341 21.5C145.851 23.375 144.133 24.625 142.293 24.5C139.472 24.5 137.755 22.625 137.755 19.625C137.755 16.625 139.472 14.625 142.171 14.625C144.747 14.625 146.464 16.5 146.464 19.375V20H139.717C139.595 21.375 140.576 22.625 141.925 22.75C142.048 22.75 142.171 22.75 142.293 22.75C143.275 22.875 144.133 22.25 144.501 21.375L146.341 21.5ZM139.717 18.5H144.501C144.624 17.25 143.643 16.125 142.293 16H142.171C140.821 16.125 139.717 17.125 139.717 18.5Z" fill="white"/>
<path d="M70.0427 38.5L70.1653 37.5C70.5333 37.625 70.9013 37.75 71.392 37.75C71.76 37.75 71.8827 37.75 72.0053 37.5C72.3733 36.625 72.6187 35.625 72.496 34.625C72.496 33.625 72.128 33.25 71.392 33.25C71.1467 33.25 71.024 33.25 70.7787 33.25C70.288 35.125 69.552 36.875 68.5707 38.375L67.5893 37.875C68.5707 36.5 69.184 35 69.552 33.375C68.9387 33.5 68.3253 33.5 67.712 33.75L67.5893 32.5C68.3253 32.375 69.184 32.25 69.92 32.125C70.0427 31.375 70.1653 30.5 70.288 29.75L71.392 29.875C71.2693 30.625 71.1467 31.25 71.024 32H71.5147C72.9867 32 73.7227 32.75 73.7227 34.375C73.8453 35.625 73.6 36.75 73.1093 37.875C72.864 38.375 72.2507 38.625 71.76 38.625C71.024 38.75 70.5333 38.625 70.0427 38.5ZM73.7227 32.125L74.5813 31.5C75.808 32.625 76.4213 34.25 76.544 35.875L75.44 36C75.44 34.625 74.8267 33.25 73.7227 32.125Z" fill="white"/>
<path d="M80.4693 38.625L80.224 37.625C80.4693 37.625 80.8373 37.625 81.0827 37.625C83.4133 37.625 84.272 37 84.272 36C84.272 35.25 83.7813 34.75 82.6773 34.75C81.4507 34.875 80.3467 35.375 79.488 36.375L78.6293 36C78.5067 34.5 78.752 32.875 79.6107 31.625L80.592 32C79.9787 32.875 79.6107 34 79.7333 35C80.7147 34.375 81.696 34 82.9227 33.875C84.5173 33.875 85.376 34.625 85.376 36C85.376 37.625 84.0267 38.75 80.96 38.75C80.8373 38.75 80.592 38.625 80.4693 38.625ZM79.3653 30.875L79.6107 29.875C81.2053 30.125 82.6773 30.5 84.1493 30.875L83.904 31.875C82.432 31.375 80.8373 31.125 79.3653 30.875Z" fill="white"/>
<path d="M88.688 37.875C89.9147 37.5 90.896 36.75 91.7547 35.875C91.1413 35.25 90.4053 34.875 89.5467 34.375L90.16 33.625C90.896 34 91.632 34.5 92.368 35C92.8587 34.125 93.3493 33.25 93.472 32.25H90.528C89.792 33.375 89.056 34.375 87.952 35.25L87.0933 34.5C88.5653 33.25 89.6693 31.75 90.2827 30L91.3867 30.25C91.264 30.625 91.1413 30.875 91.0187 31.25H93.84L94.6987 31.625C94.3307 34.875 92.1227 37.625 89.1787 38.875L88.688 37.875ZM93.5947 29.625L94.208 29.25C94.576 29.75 94.8213 30.125 95.0667 30.75L94.3307 31.125C94.208 30.625 93.9627 30.125 93.5947 29.625ZM95.0667 29.5L95.68 29.125C96.048 29.625 96.2933 30.125 96.5387 30.625L95.8027 31C95.68 30.5 95.312 30 95.0667 29.5Z" fill="white"/>
<path d="M100.096 38.75L99.4827 37.75C101.936 37.375 103.653 35.125 103.531 32.5H98.624V35H97.3973V31.625H100.341V29.875H101.568V31.625H103.776L104.88 31.875C104.757 35.25 103.653 37.75 100.096 38.75Z" fill="white"/>
<path d="M107.088 31.625L107.701 30.625C108.683 31.125 109.664 31.625 110.523 32.375L109.787 33.375C109.051 32.75 108.069 32.125 107.088 31.625ZM107.333 37.5C110.155 37 112.731 35.25 113.957 32.625L114.693 33.5C113.221 36.25 110.645 38.125 107.701 38.625L107.333 37.5Z" fill="white"/>
<path d="M124.139 38H116.901V31H124.139V38ZM118.128 32.125V37H123.035V32.125H118.128Z" fill="white"/>
<path d="M134.565 34.875H126.347V33.625H134.565V34.875Z" fill="white"/>
<path d="M137.387 29.875H138.491V32.875C139.963 33.5 141.435 34.25 142.907 35.125L142.293 36.25C141.067 35.5 139.84 34.75 138.491 34.25V38.75H137.387V29.875ZM140.085 30.5L140.821 30.125C141.189 30.625 141.435 31.125 141.68 31.75L140.944 32.125C140.699 31.625 140.453 31 140.085 30.5ZM141.435 30L142.171 29.625C142.539 30.125 142.784 30.625 143.029 31.25L142.293 31.625C142.048 31.125 141.68 30.5 141.435 30Z" fill="white"/>
<path d="M55.6907 25.375C55.6907 23.25 56.7947 21.25 58.6347 20.125C57.5307 18.5 55.6907 17.5 53.728 17.375C51.6427 17.125 49.68 18.625 48.576 18.625C47.472 18.625 45.8773 17.375 44.16 17.375C41.8293 17.5 39.744 18.75 38.64 20.75C36.3093 24.875 38.0267 31.125 40.3573 34.5C41.4613 36.125 42.8107 38 44.528 38C46.2453 37.875 46.8587 36.875 48.944 36.875C51.0293 36.875 51.52 38 53.36 38C55.2 38 56.304 36.375 57.408 34.625C58.2667 33.5 58.88 32.125 59.248 30.75C57.1627 30 55.6907 27.75 55.6907 25.375Z" fill="white"/>
<path d="M52.3787 15.25C53.36 14 53.8507 12.5 53.728 10.875C52.256 11 50.784 11.75 49.8027 13C48.8213 14.125 48.3307 15.625 48.4533 17.25C49.9253 17.25 51.3973 16.5 52.3787 15.25Z" fill="white"/>
</g>
<defs>
<clipPath id="clip0_1715_22246">
<rect width="184" height="50" fill="white"/>
</clipPath>
</defs>
</svg>
