<svg width="184" height="50" fill="none" xmlns="http://www.w3.org/2000/svg"><g clip-path="url(#a)"><path d="M4.907 49.375c-2.331 0-4.294-2-4.294-4.375V5C.613 2.625 2.576.625 4.907.625h174.186c2.331 0 4.294 2 4.294 4.375v40c0 2.375-1.963 4.375-4.294 4.375H4.907Z" fill="#000"/><path d="M179.093 1.25c2.086 0 3.68 1.625 3.68 3.75v40c0 2.125-1.594 3.75-3.68 3.75H4.907c-2.086 0-3.68-1.625-3.68-3.75V5c0-2.125 1.594-3.75 3.68-3.75h174.186Zm0-1.25H4.907C2.208 0 0 2.25 0 5v40c0 2.75 2.208 5 4.907 5h174.186c2.699 0 4.907-2.25 4.907-5V5c0-2.75-2.208-5-4.907-5Z" fill="#A6A6A6"/><path d="M75.808 20.75h-5.03l-1.226 3.625h-2.085l4.661-13.25h2.208l4.661 13.25h-2.085l-1.104-3.625ZM71.392 19h3.925l-1.962-5.875L71.392 19Zm17.909.5c0 3-1.594 5-3.925 5-1.227.125-2.453-.625-2.944-1.75v4.75h-1.963V14.625h1.84v1.625c.614-1.125 1.84-1.75 3.067-1.75 2.453 0 3.925 2 3.925 5Zm-1.962 0c0-2-.982-3.25-2.454-3.25-1.472 0-2.453 1.375-2.453 3.25 0 2 .981 3.25 2.453 3.25s2.454-1.375 2.454-3.25Zm12.511 0c0 3-1.594 5-3.925 5-1.226.125-2.453-.625-2.944-1.75v4.75H91.02V14.625h1.84v1.625c.613-1.125 1.84-1.75 3.066-1.75 2.331 0 3.926 2 3.926 5Zm-2.085 0c0-2-.981-3.25-2.453-3.25s-2.453 1.375-2.453 3.25c0 2 .981 3.25 2.453 3.25s2.453-1.375 2.453-3.25Zm8.955 1.125c.123 1.375 1.349 2.125 3.067 2.125 1.594 0 2.821-.875 2.821-2 0-1-.736-1.625-2.453-2.125l-1.718-.375c-2.453-.625-3.557-1.75-3.557-3.625 0-2.25 1.963-3.875 4.784-3.875 2.699 0 4.661 1.625 4.661 3.875h-1.962c-.123-1.375-1.227-2.125-2.822-2.125-1.594 0-2.698.75-2.698 2 0 1 .736 1.5 2.33 1.875l1.472.375c2.699.625 3.803 1.75 3.803 3.625 0 2.5-1.963 4-5.029 4-2.944 0-4.784-1.5-5.03-3.875l2.331.125Zm12.267-8.375v2.25h1.84v1.625h-1.84V21.5c0 .875.368 1.25 1.104 1.25h.613v1.625c-.368.125-.736.125-1.104.125-1.963 0-2.699-.75-2.699-2.625v-5.5h-1.349V14.75h1.349v-2.5h2.086Zm2.821 7.25c0-3 1.717-5 4.539-5 2.698 0 4.538 1.875 4.538 5 0 3-1.717 5-4.538 5-2.822-.125-4.539-2-4.539-5Zm6.992 0c0-2.125-.981-3.375-2.576-3.375-1.595 0-2.576 1.25-2.576 3.375s.981 3.375 2.576 3.375c1.595 0 2.576-1.375 2.576-3.375Zm3.68-4.875h1.84v1.625c.245-1 1.227-1.75 2.331-1.75.245 0 .49 0 .613.125V16.5c-.245-.125-.613-.125-.859-.125-1.104 0-1.962.875-2.085 1.875v6h-1.84v-9.625Zm13.861 6.875c-.49 1.875-2.208 3.125-4.048 3-2.821 0-4.538-1.875-4.538-4.875s1.717-5 4.416-5c2.576 0 4.293 1.875 4.293 4.75V20h-6.747c-.122 1.375.859 2.625 2.208 2.75h.368c.982.125 1.84-.5 2.208-1.375l1.84.125Zm-6.624-3h4.784c.123-1.25-.858-2.375-2.208-2.5h-.122c-1.35.125-2.454 1.125-2.454 2.5Zm-69.674 20 .122-1c.368.125.736.25 1.227.25.368 0 .49 0 .613-.25.368-.875.614-1.875.491-2.875 0-1-.368-1.375-1.104-1.375h-.613c-.491 1.875-1.227 3.625-2.208 5.125l-.982-.5c.982-1.375 1.595-2.875 1.963-4.5-.613.125-1.227.125-1.84.375l-.123-1.25c.736-.125 1.595-.25 2.331-.375.123-.75.245-1.625.368-2.375l1.104.125c-.123.75-.245 1.375-.368 2.125h.49c1.473 0 2.209.75 2.209 2.375.122 1.25-.123 2.375-.614 3.5-.245.5-.858.75-1.349.75-.736.125-1.227 0-1.717-.125Zm3.68-6.375.858-.625c1.227 1.125 1.84 2.75 1.963 4.375L75.44 36c0-1.375-.613-2.75-1.717-3.875Zm6.747 6.5-.246-1h.859c2.33 0 3.189-.625 3.189-1.625 0-.75-.49-1.25-1.595-1.25-1.226.125-2.33.625-3.189 1.625L78.629 36c-.122-1.5.123-3.125.982-4.375l.981.375c-.613.875-.981 2-.859 3 .982-.625 1.963-1 3.19-1.125 1.594 0 2.453.75 2.453 2.125 0 1.625-1.35 2.75-4.416 2.75-.123 0-.368-.125-.49-.125Zm-1.105-7.75.246-1c1.594.25 3.066.625 4.538 1l-.245 1c-1.472-.5-3.067-.75-4.539-1Zm9.323 7c1.227-.375 2.208-1.125 3.067-2-.614-.625-1.35-1-2.208-1.5l.613-.75c.736.375 1.472.875 2.208 1.375.49-.875.981-1.75 1.104-2.75h-2.944c-.736 1.125-1.472 2.125-2.576 3l-.859-.75c1.472-1.25 2.576-2.75 3.19-4.5l1.104.25c-.123.375-.246.625-.368 1h2.821l.859.375c-.368 3.25-2.576 6-5.52 7.25l-.491-1Zm4.907-8.25.613-.375c.368.5.613.875.859 1.5l-.736.375c-.123-.5-.368-1-.736-1.5Zm1.472-.125.613-.375c.368.5.613 1 .859 1.5l-.736.375c-.123-.5-.491-1-.736-1.5Zm5.029 9.25-.613-1c2.453-.375 4.17-2.625 4.048-5.25h-4.907V35h-1.227v-3.375h2.944v-1.75h1.227v1.75h2.208l1.104.25c-.123 3.375-1.227 5.875-4.784 6.875Zm6.992-7.125.613-1c.982.5 1.963 1 2.822 1.75l-.736 1c-.736-.625-1.718-1.25-2.699-1.75Zm.245 5.875c2.822-.5 5.398-2.25 6.624-4.875l.736.875c-1.472 2.75-4.048 4.625-6.992 5.125l-.368-1.125Zm16.806.5h-7.238v-7h7.238v7Zm-6.011-5.875V37h4.907v-4.875h-4.907Zm16.437 2.75h-8.218v-1.25h8.218v1.25Zm2.822-5h1.104v3a36.788 36.788 0 0 1 4.416 2.25l-.614 1.125c-1.226-.75-2.453-1.5-3.802-2v4.5h-1.104v-8.875Zm2.698.625.736-.375c.368.5.614 1 .859 1.625l-.736.375c-.245-.5-.491-1.125-.859-1.625Zm1.35-.5.736-.375c.368.5.613 1 .858 1.625l-.736.375c-.245-.5-.613-1.125-.858-1.625ZM55.69 25.375a6.16 6.16 0 0 1 2.945-5.25c-1.104-1.625-2.944-2.625-4.907-2.75-2.085-.25-4.048 1.25-5.152 1.25s-2.699-1.25-4.416-1.25c-2.33.125-4.416 1.375-5.52 3.375-2.33 4.125-.613 10.375 1.717 13.75 1.104 1.625 2.454 3.5 4.171 3.5 1.717-.125 2.33-1.125 4.416-1.125 2.085 0 2.576 1.125 4.416 1.125 1.84 0 2.944-1.625 4.048-3.375.859-1.125 1.472-2.5 1.84-3.875-2.085-.75-3.557-3-3.557-5.375ZM52.379 15.25c.981-1.25 1.472-2.75 1.349-4.375A5.658 5.658 0 0 0 49.803 13c-.982 1.125-1.472 2.625-1.35 4.25 1.472 0 2.944-.75 3.926-2Z" fill="#fff"/></g><defs><clipPath id="a"><path fill="#fff" d="M0 0h184v50H0z"/></clipPath></defs></svg>