<?xml version="1.0" encoding="utf-8"?>
<!-- Generator: Adobe Illustrator 27.2.0, SVG Export Plug-In . SVG Version: 6.00 Build 0)  -->
<svg version="1.1" id="Layer_1" xmlns="http://www.w3.org/2000/svg" xmlns:xlink="http://www.w3.org/1999/xlink" x="0px" y="0px"
	 viewBox="0 0 868 713" style="enable-background:new 0 0 868 713;" xml:space="preserve">
<style type="text/css">
	.st0{fill:#B4DCFF;}
	.st1{fill:#EFD92C;}
	.st2{opacity:0.518;fill:#A7E4FF;enable-background:new    ;}
	.st3{fill:#CEF0FF;}
	.st4{opacity:0.518;fill:#F9BD4B;enable-background:new    ;}
	.st5{fill:#F9BD4B;}
</style>
<g transform="translate(-543 -164)">
	<path class="st0" d="M678.1,530.9H561.9v-1h116l130.7-53.4l0.4,0.9L678.1,530.9z"/>
	<path class="st0" d="M904.1,334.2l-168.2-96.8H670v-1h66.2l0.1,0.1l168.3,96.8L904.1,334.2z"/>
	<path class="st0" d="M830.3,395.3l-109-58.5H593.5v-1h128l0.1,0.1l109.1,58.6L830.3,395.3z"/>
	<path class="st0" d="M1108.7,284.6l-0.6-0.8l162.6-108.7h98.3v1h-98L1108.7,284.6z"/>
	<path class="st0" d="M1195.2,328.7l-0.6-0.8l67.3-45.1h123.3v1h-123L1195.2,328.7z"/>
	<path class="st1" d="M1393.9,717.9h-49.4l-0.1,0l-120.9-54.9l0.4-0.9l120.8,54.9h49.1L1393.9,717.9z"/>
	<path class="st1" d="M1002.9,868.4h-43.4v-1h42.8l55-103.7l0.9,0.5L1002.9,868.4z"/>
	<circle class="st2" cx="660.5" cy="236.5" r="9.5"/>
	<circle class="st2" cx="583.5" cy="336.5" r="9.5"/>
	<circle class="st2" cx="552.5" cy="530.5" r="9.5"/>
	<circle class="st2" cx="1378.5" cy="175.5" r="9.5"/>
	<circle class="st2" cx="1394.5" cy="283.5" r="9.5"/>
	<circle class="st3" cx="660.5" cy="236.5" r="6.5"/>
	<circle class="st3" cx="583.5" cy="336.5" r="6.5"/>
	<circle class="st3" cx="552.5" cy="530.5" r="6.5"/>
	<circle class="st3" cx="1378.5" cy="175.5" r="6.5"/>
	<circle class="st3" cx="1394.5" cy="283.5" r="6.5"/>
	<g transform="translate(-28 113)">
		<circle class="st4" cx="978.5" cy="754.5" r="9.5"/>
		<circle class="st5" cx="978.5" cy="754.5" r="6.5"/>
	</g>
	<g transform="translate(423 -37)">
		<circle class="st4" cx="978.5" cy="754.5" r="9.5"/>
		<circle class="st5" cx="978.5" cy="754.5" r="6.5"/>
	</g>
</g>
</svg>
