<?xml version="1.0" encoding="utf-8"?>
<!-- Generator: Adobe Illustrator 27.2.0, SVG Export Plug-In . SVG Version: 6.00 Build 0)  -->
<svg version="1.1" id="Layer_1" xmlns="http://www.w3.org/2000/svg" xmlns:xlink="http://www.w3.org/1999/xlink" x="0px" y="0px"
	 viewBox="0 0 215 215" style="enable-background:new 0 0 215 215;" xml:space="preserve">
<style type="text/css">
	.st0{opacity:0.2;fill:#77DFED;enable-background:new    ;}
	.st1{opacity:0.3;fill:#77DFED;enable-background:new    ;}
	.st2{fill:#77DFED;}
	.st3{enable-background:new    ;}
	.st4{fill:#FFFFFF;}
</style>
<g transform="translate(-1228 -2201)">
	<g transform="translate(626 33)">
		<circle class="st0" cx="709.5" cy="2275.5" r="107.5"/>
		<circle class="st1" cx="709.5" cy="2275.5" r="85.5"/>
		<circle class="st2" cx="709.5" cy="2275.5" r="62.5"/>
	</g>
	<g class="st3">
		<path class="st4" d="M1278,2324.4l1.1-4.6c1.9,1.2,3.9,2.3,6.8,2.3c1.3,0,1.9-0.4,1.9-1c0-0.7-0.6-1-2.2-1.2
			c-5.6-0.9-7.2-3.7-7.2-6.6c0-2.9,2.2-6.1,7.9-6.1c3,0,5.4,1,7.2,1.9l-1.1,4.3c-2.2-1.2-4-1.6-5.8-1.6c-1,0-1.5,0.4-1.5,0.8
			c0,0.6,0.5,0.9,1.5,1.1c6.1,1,7.8,3.7,7.8,6.2c0,4.1-2.6,6.8-8.4,6.8C1282.7,2326.7,1280.2,2325.7,1278,2324.4z"/>
		<path class="st4" d="M1300.7,2313h-3.3v-5h3.3v-6.1h7.7v6.1h3.3v5h-3.3v13h-7.7V2313z"/>
		<path class="st4" d="M1315,2316.9c0-5.8,3.5-9.7,8.4-9.7c2.1,0,4.4,0.6,5.9,2.4v-15.5h7.7v31.8h-7l-0.4-2.2
			c-1.3,2.2-4.2,2.9-6.3,2.9C1318.5,2326.7,1315,2322.8,1315,2316.9z M1329.5,2316.9c0-2.6-1.5-4-3.4-4s-3.4,1.4-3.4,4s1.5,4,3.4,4
			S1329.5,2319.5,1329.5,2316.9z"/>
		<path class="st4" d="M1342.9,2307.9h7.5l0.2,2.9c1.3-2.5,4.2-3.6,6.4-3.6c4.9,0,6.8,3.4,6.8,7.9v10.9h-7.7v-9.2
			c0-2.4-0.9-3.3-2.4-3.3c-1.7,0-3,1.7-3,3.5v9h-7.7V2307.9z"/>
		<path class="st4" d="M1371.3,2313h-3.3v-5h3.3v-6.1h7.7v6.1h3.3v5h-3.3v13h-7.7V2313z"/>
	</g>
</g>
</svg>
