<svg width="184" height="50" fill="none" xmlns="http://www.w3.org/2000/svg"><g clip-path="url(#a)"><path d="M4.907 49.375c-2.331 0-4.294-2-4.294-4.375V5C.613 2.625 2.576.625 4.907.625h174.186c2.331 0 4.294 2 4.294 4.375v40c0 2.375-1.963 4.375-4.294 4.375H4.907Z" fill="#000"/><path d="M179.093 1.25c2.086 0 3.68 1.625 3.68 3.75v40c0 2.125-1.594 3.75-3.68 3.75H4.907c-2.086 0-3.68-1.625-3.68-3.75V5c0-2.125 1.594-3.75 3.68-3.75h174.186Zm0-1.25H4.907C2.208 0 0 2.25 0 5v40c0 2.75 2.208 5 4.907 5h174.186c2.699 0 4.907-2.25 4.907-5V5c0-2.75-2.208-5-4.907-5Z" fill="#A6A6A6"/><g clip-path="url(#b)"><path d="M92.269 14.993c-2.606 0-4.731 1.982-4.731 4.714 0 2.733 2.123 4.713 4.73 4.713 2.608 0 4.731-2.001 4.731-4.713 0-2.711-2.123-4.714-4.73-4.714m0 7.57c-1.43 0-2.661-1.18-2.661-2.856s1.232-2.857 2.66-2.857c1.43 0 2.659 1.16 2.659 2.857 0 1.698-1.232 2.855-2.658 2.855Zm-10.321-7.57c-2.605 0-4.731 1.982-4.731 4.714 0 2.733 2.123 4.713 4.73 4.713 2.608 0 4.732-2.001 4.732-4.713 0-2.711-2.126-4.714-4.731-4.714Zm0 7.57c-1.427 0-2.659-1.18-2.659-2.856s1.232-2.857 2.659-2.857c1.426 0 2.66 1.16 2.66 2.857 0 1.698-1.232 2.855-2.66 2.855ZM69.672 16.44v1.998h4.785c-.144 1.126-.517 1.945-1.089 2.517-.697.697-1.785 1.464-3.696 1.464-2.945 0-5.25-2.374-5.25-5.32 0-2.945 2.303-5.318 5.25-5.318 1.589 0 2.749.623 3.606 1.426l1.41-1.41c-1.197-1.142-2.786-2.017-5.016-2.017-4.034 0-7.426 3.286-7.426 7.32 0 4.034 3.392 7.32 7.426 7.32 2.177 0 3.819-.716 5.106-2.054 1.32-1.32 1.732-3.177 1.732-4.678a6.47 6.47 0 0 0-.106-1.248h-6.732Zm50.206 1.551c-.393-1.053-1.588-2.998-4.034-2.998-2.445 0-4.443 1.91-4.443 4.714 0 2.642 1.998 4.713 4.675 4.713 2.161 0 3.409-1.32 3.927-2.09l-1.607-1.071c-.537.785-1.266 1.303-2.32 1.303-1.054 0-1.804-.481-2.286-1.426l6.301-2.607-.213-.535v-.003Zm-6.426 1.573c-.053-1.823 1.411-2.749 2.464-2.749.822 0 1.519.41 1.751 1l-4.212 1.751-.003-.002Zm-5.124 4.569h2.07V10.28h-2.07v13.853Zm-3.393-8.087h-.071c-.464-.553-1.357-1.053-2.481-1.053-2.357 0-4.515 2.07-4.515 4.73 0 2.661 2.16 4.694 4.515 4.694 1.126 0 2.017-.5 2.481-1.072h.071v.679c0 1.804-.963 2.767-2.517 2.767-1.266 0-2.054-.91-2.373-1.677l-1.804.75c.516 1.251 1.892 2.786 4.177 2.786 2.427 0 4.481-1.428 4.481-4.909v-8.464h-1.964v.77Zm-2.373 6.517c-1.429 0-2.624-1.195-2.624-2.837 0-1.642 1.195-2.874 2.624-2.874s2.517 1.213 2.517 2.874c0 1.66-1.107 2.837-2.517 2.837Zm27.014-12.283h-4.953v13.853h2.066v-5.248h2.887c2.293 0 4.544-1.66 4.544-4.302 0-2.643-2.253-4.303-4.544-4.303m.054 6.676h-2.941v-4.75h2.941c1.546 0 2.424 1.281 2.424 2.374 0 1.093-.878 2.374-2.424 2.374m12.777-1.99c-1.495 0-3.047.66-3.688 2.12l1.836.766c.391-.766 1.123-1.017 1.889-1.017 1.07 0 2.156.642 2.175 1.781v.144c-.375-.213-1.176-.535-2.156-.535-1.978 0-3.992 1.086-3.992 3.12 0 1.854 1.623 3.047 3.439 3.047 1.391 0 2.155-.623 2.637-1.355h.072v1.07h1.996v-5.312c0-2.46-1.834-3.83-4.205-3.83m-.25 7.59c-.679 0-1.624-.338-1.624-1.176 0-1.07 1.177-1.477 2.193-1.477.908 0 1.336.196 1.89.463a2.506 2.506 0 0 1-2.459 2.192m11.726-7.29-2.371 6.008h-.072l-2.459-6.007h-2.228l3.689 8.394-2.103 4.668h2.156l5.685-13.062h-2.299.002Zm-18.622 8.863h2.067V10.28h-2.067v13.853-.005Z" fill="#fff"/><path d="m39.724 24.603-11.798 12.52v.007a3.183 3.183 0 0 0 3.077 2.36c.59 0 1.142-.16 1.616-.438l.037-.023 13.28-7.662-6.215-6.767.003.003Z" fill="#E63C26"/><path d="m51.659 22.47-.012-.007-5.733-3.323-6.459 5.747 6.482 6.48 5.7-3.29a3.192 3.192 0 0 0 1.68-2.81c0-1.213-.67-2.255-1.66-2.797" fill="#F9C200"/><path d="M27.925 13.36a3.098 3.098 0 0 0-.108.82v22.126c0 .285.037.558.108.82l12.202-12.201L27.925 13.36Z" fill="#557ABD"/><path d="m39.81 25.242 6.106-6.104-13.264-7.69a3.194 3.194 0 0 0-4.726 1.908v.002l11.886 11.884h-.002Z" fill="#07A345"/><path d="M63.077 32.96c.723-.028 6.66-.454 7.913-.463l.01.722c-.126-.01-.242-.01-.357-.01-.558 0-1.03.098-1.65.492-1.444.868-2.843 2.42-2.843 3.663 0 1.35.945 2.15 3.335 2.46l-.317.673c-2.738-.396-3.759-1.417-3.759-3.133 0-1.36 1.341-3.008 3.103-4.115-1.06.077-3.904.29-5.148.405-.027.077-.134.144-.213.156l-.076-.848.002-.002Zm6.246 1.899a7.097 7.097 0 0 1 1.31 1.329l-.365.299c-.272-.424-.86-1.022-1.274-1.341l.329-.29v.003Zm1.042-.848c.472.347 1.03.906 1.31 1.33l-.365.289c-.26-.387-.82-.984-1.274-1.33l.329-.289Zm10.594 2.911v.637H76.88v2.149c0 .49-.144.685-.49.79-.358.115-.985.124-2.025.115a3.123 3.123 0 0 0-.28-.646c.463.019.905.019 1.243.019.82 0 .887 0 .887-.28v-2.15H72.16v-.636h4.057v-1.63h-3.413v-.617h3.413v-1.56c-1.06.125-2.179.222-3.21.28a1.863 1.863 0 0 0-.173-.558c2.332-.155 5.139-.463 6.565-.973l.56.549c-.027.018-.057.028-.115.028-.019 0-.049 0-.086-.01-.695.232-1.64.415-2.68.57-.018.067-.066.097-.191.116v1.56h3.529v.617h-3.53v1.63h4.078-.004Zm2.855-4.55c-.028.106-.125.164-.317.155-.338 1.572-.512 3.297-.512 4.337 0 .723.028 1.457.125 1.908.183-.472.598-1.484.732-1.822l.405.423c-.396.973-.685 1.524-.82 1.957a1.633 1.633 0 0 0-.076.454c0 .107.019.202.049.299l-.686.125c-.308-.915-.424-2.033-.424-3.316s.202-3.027.512-4.694l1.012.174Zm6.141 7.046a20.03 20.03 0 0 1-1.06.028c-.686 0-1.33-.04-1.793-.106-1.185-.174-1.734-.83-1.734-1.6 0-.665.366-1.226.905-1.86l.628.27c-.482.501-.82.964-.82 1.515 0 1.119 1.64 1.119 2.642 1.119.406 0 .839-.019 1.244-.049l-.01.685-.002-.002Zm-4.462-5.889c1.244-.027 2.92-.143 4.203-.365l.058.673c-1.195.202-3.133.33-4.243.357l-.018-.665Zm10.013-1.273h.655c0 1.725.223 5.465 4.115 7.778a3.701 3.701 0 0 0-.52.549c-2.506-1.524-3.548-3.73-3.972-5.61-.695 2.572-1.948 4.5-3.972 5.62a4.419 4.419 0 0 0-.54-.492c2.131-1.109 3.375-3.16 3.981-5.967l.397.097a10.014 10.014 0 0 1-.126-1.31h-2.459v-.656h2.439v-.01h.002Zm5.613 1.609c.78 0 1.494-.067 1.813-.143.019-.58.028-.897.067-1.774l.994.076c-.019.107-.107.174-.271.193a44.618 44.618 0 0 0-.097 1.377l.298.116c-.231.463-.328 1.03-.386 1.378 1.06-.994 2.237-1.697 3.035-1.697.906 0 1.36.636 1.36 1.755 0 .125-.009.25-.019.375-.067.847-.164 2.054-.164 2.825 0 .579.067.887.472.887.29 0 .869-.29 1.283-.646.019.192.097.588.134.732-.49.356-1.069.627-1.514.627-.811 0-1.079-.481-1.079-1.484 0-.503.174-3.152.174-3.161 0-.838-.29-1.216-.762-1.216-.723 0-1.939.78-2.941 1.841 0 1.399 0 3.115.009 4.425h-.674c.009-.558 0-3.306.009-3.922-.338.674-.993 1.551-1.755 2.322l-.347-.606c.801-.753 1.697-1.918 2.121-2.911 0-.28.009-.54.019-.848-.339.077-1.043.155-1.774.165l-.01-.686h.005Zm16.879 5.88c-.829-.656-1.88-1.283-2.892-1.61.018.376-.049.869-.125 1.119-.077.801-.82 1.109-1.707 1.109-1.243 0-2.228-.607-2.237-1.582-.018-.972 1.003-1.572 2.216-1.581.338 0 .771.018 1.128.088 0-.26-.049-.482-.058-.704a88.223 88.223 0 0 1-.174-4.676l1.003.058c0 .098-.088.183-.25.204-.009.26 0 1.533 0 1.823.627 0 2.033-.107 3.2-.308l.067.685c-1.1.174-2.526.271-3.258.28 0 .55.019.771.165 2.767 1.243.366 2.419 1.022 3.364 1.716l-.444.616.002-.004Zm-4.761-1.966c-.926.018-1.572.405-1.572.954 0 .704.761 1.012 1.533 1.012.673 0 1.234-.241 1.234-.926 0-.223 0-.617-.019-.897-.386-.115-.81-.143-1.176-.143Zm7.056-2.573c1.445-.396 3.267-.79 3.99-.79 1.445 0 2.295.772 2.295 2.198v.076c-.019 1.756-1.399 3.036-4.164 3.78a3.946 3.946 0 0 0-.433-.589c2.468-.588 3.865-1.746 3.865-3.21 0-.925-.445-1.59-1.591-1.59-.771 0-2.304.347-3.49.762.009.076-.088.173-.183.222l-.289-.859Zm1.35-3.335c1.32.116 2.843.396 3.874.753l-.202.674c-1.021-.347-2.584-.665-3.837-.771l.165-.655Z" fill="#fff"/></g></g><defs><clipPath id="a"><path fill="#fff" d="M0 0h184v50H0z"/></clipPath><clipPath id="b"><path fill="#fff" transform="translate(27.817 9.78)" d="M0 0h128.367v30.835H0z"/></clipPath></defs></svg>