<svg viewBox="0 0 177.654 34.078" xml:space="preserve" xmlns="http://www.w3.org/2000/svg"><radialGradient cx="12.425" cy="29.073" gradientTransform="matrix(1 0 0 -1 0 35.976)" gradientUnits="userSpaceOnUse" id="a" r="5.826"><stop offset="0" style="stop-color:#e3a4a3"/><stop offset="1" style="stop-color:#cd5853"/></radialGradient><circle cx="12.425" cy="6.903" fill="url(#a)" r="5.826"/><ellipse cx="15.166" cy="4.422" fill="none" rx="1.588" ry="2.663" transform="rotate(-44.996 15.165 4.422)"/><ellipse cx="15.237" cy="4.351" fill="#FFF" opacity=".167" rx="1.094" ry="1.833" transform="rotate(-44.996 15.236 4.351)"/><ellipse cx="15.305" cy="4.282" fill="#FFF" opacity=".333" rx=".599" ry="1.004" transform="rotate(-45.001 15.305 4.282)"/><ellipse cx="15.376" cy="4.209" fill="#FFF" opacity=".5" rx=".104" ry=".175" transform="rotate(-44.992 15.376 4.21)"/><radialGradient cx="17.515" cy="23.581" gradientTransform="matrix(1 0 0 -1 0 35.976)" gradientUnits="userSpaceOnUse" id="b" r="7.433"><stop offset="0" style="stop-color:#a2acd6"/><stop offset="1" style="stop-color:#5367b0"/></radialGradient><circle cx="17.515" cy="12.395" fill="url(#b)" r="7.433"/><ellipse cx="21.009" cy="9.228" fill="none" rx="2.027" ry="3.397" transform="rotate(-45.009 21.009 9.228)"/><ellipse cx="21.077" cy="9.163" fill="#FFF" opacity=".125" rx="1.554" ry="2.603" transform="rotate(-45.001 21.077 9.163)"/><ellipse cx="21.145" cy="9.095" fill="#FFF" opacity=".25" rx="1.08" ry="1.81" transform="rotate(-45.001 21.145 9.095)"/><ellipse cx="21.213" cy="9.029" fill="#FFF" opacity=".375" rx=".607" ry="1.017" transform="rotate(-45.009 21.213 9.03)"/><ellipse cx="21.284" cy="8.959" fill="#FFF" opacity=".5" rx=".133" ry=".223" transform="rotate(-44.955 21.282 8.959)"/><radialGradient cx="10.684" cy="16.616" gradientTransform="matrix(1 0 0 -1 0 35.976)" gradientUnits="userSpaceOnUse" id="c" r="9.308"><stop offset=".078" style="stop-color:#91cca0"/><stop offset="1" style="stop-color:#04b261"/></radialGradient><circle cx="10.684" cy="19.36" fill="url(#c)" r="9.308"/><ellipse cx="15.06" cy="15.394" fill="none" rx="2.538" ry="4.254" transform="rotate(-45.001 15.06 15.394)"/><ellipse cx="15.127" cy="15.327" fill="#FFF" opacity=".1" rx="2.064" ry="3.459" transform="rotate(-45.001 15.127 15.327)"/><ellipse cx="15.195" cy="15.259" fill="#FFF" opacity=".2" rx="1.59" ry="2.664" transform="rotate(-45.001 15.195 15.26)"/><ellipse cx="15.263" cy="15.193" fill="#FFF" opacity=".3" rx="1.115" ry="1.869" transform="rotate(-45.001 15.263 15.193)"/><ellipse cx="15.331" cy="15.124" fill="#FFF" opacity=".4" rx=".641" ry="1.074" transform="rotate(-45.001 15.33 15.124)"/><ellipse cx="15.399" cy="15.057" fill="#FFF" opacity=".5" rx=".167" ry=".28" transform="rotate(-45.001 15.4 15.058)"/><path d="M37.842 20.673c0 1.832-1.489 3.321-3.32 3.321s-3.32-1.489-3.32-3.321v-3.969c0-1.831 1.489-3.32 3.32-3.32s3.32 1.489 3.32 3.32v3.969zm1.206-3.969a4.531 4.531 0 0 0-4.526-4.526 4.53 4.53 0 0 0-4.526 4.526v3.969a4.531 4.531 0 0 0 4.526 4.526 4.531 4.531 0 0 0 4.526-4.526v-3.969z" fill="#A9AFB6"/><path d="M73.946 19.737c0 2.347-2.017 4.258-4.496 4.258-2.479 0-4.497-1.911-4.497-4.258v-4.918c0-2.348 2.017-4.258 4.497-4.258 2.479 0 4.496 1.91 4.496 4.258v4.918zm1.205-4.918c0-3.012-2.558-5.463-5.702-5.463s-5.702 2.451-5.702 5.463v4.918c0 3.012 2.558 5.463 5.702 5.463s5.702-2.451 5.702-5.463v-4.918zm-15.127 8.213c-.74.604-1.647.963-2.629.963-2.479 0-4.496-2.27-4.496-5.058V13.21c0-2.789 2.017-5.057 4.496-5.057 1.021 0 1.96.388 2.716 1.036.4-.201.83-.351 1.282-.437-1.03-1.114-2.441-1.804-3.998-1.804-3.143 0-5.702 2.81-5.702 6.263v5.727c0 3.453 2.558 6.264 5.702 6.264 1.509 0 2.879-.652 3.9-1.708a4.95 4.95 0 0 1-1.271-.462zM94.113 9.356c-2.232 0-4.164 1.238-5.1 3.033-.935-1.794-2.866-3.033-5.099-3.033a5.782 5.782 0 0 0-4.497 2.116V9.356h-1.205V25.2h1.205V14.819c0-2.348 2.017-4.258 4.497-4.258s4.497 1.91 4.497 4.258V25.2h1.205V14.819c0-2.348 2.017-4.258 4.497-4.258 2.479 0 4.496 1.91 4.496 4.258V25.2h1.206V14.819c0-3.012-2.558-5.463-5.702-5.463zm24.109 0c-2.232 0-4.163 1.238-5.1 3.033-.935-1.794-2.866-3.033-5.099-3.033a5.78 5.78 0 0 0-4.497 2.116V9.356h-1.204V25.2h1.204V14.819c0-2.348 2.018-4.258 4.497-4.258 2.48 0 4.496 1.91 4.496 4.258V25.2h1.206V14.819c0-2.348 2.016-4.258 4.496-4.258 2.479 0 4.496 1.91 4.496 4.258V25.2h1.206V14.819c.001-3.012-2.557-5.463-5.701-5.463zm20.407 5.308c.004-.147.009-.296.009-.454a.556.556 0 0 0-.07-.204c-.391-2.491-2.535-4.433-5.189-4.629-.068-.023-.141-.051-.203-.065v.055c-.08-.003-.158-.011-.239-.011-3.144 0-5.701 2.451-5.701 5.463v4.918c0 3.012 2.558 5.463 5.701 5.463 1.361 0 2.789-.696 3.621-1.152a3.851 3.851 0 0 1-.724-.979c-.626.313-1.698.926-2.897.926-2.479 0-4.497-1.911-4.497-4.258v-1.431h6.344c2.807 0 3.73-.83 3.842-3.487h.014c-.002-.053-.01-.104-.011-.155zm-3.847 2.435h-6.344v-2.281c0-2.348 2.018-4.258 4.497-4.258 2.44 0 4.427 1.851 4.49 4.147-.047 2.037-.464 2.392-2.643 2.392zm41.215-2.435c.004-.147.009-.296.009-.454a.576.576 0 0 0-.07-.204c-.392-2.491-2.535-4.433-5.19-4.629-.067-.023-.14-.051-.202-.065v.055c-.08-.003-.158-.011-.239-.011-3.145 0-5.701 2.451-5.701 5.463v4.918c0 3.012 2.557 5.463 5.701 5.463 1.361 0 2.789-.696 3.621-1.152a3.851 3.851 0 0 1-.724-.979c-.626.313-1.698.926-2.897.926-2.479 0-4.497-1.911-4.497-4.258v-1.431h6.344c2.807 0 3.73-.83 3.842-3.487h.014c-.002-.053-.01-.104-.011-.155zm-3.847 2.435h-6.344v-2.281c0-2.348 2.018-4.258 4.497-4.258 2.44 0 4.427 1.851 4.49 4.147-.047 2.037-.464 2.392-2.643 2.392zm-11.717 6.114a4.635 4.635 0 0 1-2.586.781c-2.479 0-4.497-1.911-4.497-4.258v-4.918c0-2.348 2.018-4.258 4.497-4.258 1.055 0 2.023.348 2.792.926a7.56 7.56 0 0 1 1.024-.715 5.811 5.811 0 0 0-3.816-1.416c-3.143 0-5.701 2.451-5.701 5.463v4.918c0 3.012 2.559 5.463 5.701 5.463 1.36 0 2.607-.459 3.588-1.224a7.713 7.713 0 0 1-1.002-.762zM147.401 9.356a5.782 5.782 0 0 0-4.497 2.116V9.356h-1.206V25.2h1.206V14.819c0-2.348 2.017-4.258 4.497-4.258 1.055 0 2.023.348 2.791.926a7.687 7.687 0 0 1 1.024-.715 5.807 5.807 0 0 0-3.815-1.416z"/><path d="M49.204 21.455c0-.618-.304-1.036-.529-1.475-.226-.44-.938-1.057-1.902-1.385-1.002-.341-.353-.122-1.865-.575-1.71-.549-1.882-.765-1.981-.835-.453-.334-.661-1.085-.661-1.665 0-.556.219-1.017.634-1.381.578-.454 1.31-.756 2.068-.756a3.3 3.3 0 0 1 2.56 1.232h1.451a4.527 4.527 0 0 0-3.645-2.411l-.014-.001c-.117-.009-.232-.025-.352-.025-.026 0-.051.005-.077.006-.041-.001-.08-.006-.121-.006-1.208 0-2.05.433-2.718 1.071-.417.398-.934 1.356-.939 1.366h.008c-.033.092-.174.746-.174 1.008 0 .591.122 1.123.363 1.58.24.457.583.825 1.018 1.098.457.286 1.402.646 2.811 1.071 1.037.307 1.684.56 1.976.78.458.347.87.836.87 1.452 0 .312-.098.597-.242.86a3.317 3.317 0 0 1-2.179 1.467c-.181.023-.37.038-.571.038-.4 0-.764-.059-1.096-.164a3.444 3.444 0 0 1-.228-.085c-.05-.021-.098-.046-.146-.068a3.506 3.506 0 0 1-.313-.172 2.768 2.768 0 0 1-.339-.25c-.016-.016-.031-.021-.046-.036a3.365 3.365 0 0 1-.829-1.069h-1.312a4.541 4.541 0 0 0 2.653 2.756c.041.018.08.036.122.053.147.053.299.089.453.125.07.017.132.039.205.051.276.053.558.089.85.089.4 0 .783-.065 1.153-.163.747-.16 1.383-.465 1.876-.936.559-.536 1.089-1.295 1.198-1.823.051-.35.01-.533.01-.822zm16.778 7.853c0-.837.225-1.493.676-1.968.45-.475 1.032-.711 1.745-.711.467 0 .887.111 1.262.334.374.223.66.533.856.932.196.397.295.85.295 1.354 0 .513-.104.971-.311 1.374a2.11 2.11 0 0 1-.879.918 2.502 2.502 0 0 1-1.227.312c-.476 0-.901-.115-1.276-.344s-.659-.544-.852-.94a2.852 2.852 0 0 1-.289-1.261zm.69.015c0 .609.164 1.09.491 1.439.328.351.738.525 1.232.525.503 0 .918-.176 1.242-.53.325-.354.488-.855.488-1.507 0-.41-.069-.77-.208-1.077a1.618 1.618 0 0 0-.61-.714 1.661 1.661 0 0 0-.901-.253c-.473 0-.88.163-1.221.488-.342.326-.513.868-.513 1.629zm4.914 3.836v-5.048h.565v.486c.133-.187.283-.328.451-.421.168-.093.371-.141.61-.141.312 0 .588.081.827.241.238.16.419.385.54.676.122.292.183.61.183.957 0 .373-.068.709-.202 1.008a1.52 1.52 0 0 1-.587.685 1.514 1.514 0 0 1-.811.238 1.15 1.15 0 0 1-.557-.133 1.243 1.243 0 0 1-.405-.333v1.784l-.614.001zm.553-3.202c0 .466.095.811.287 1.033a.879.879 0 0 0 .693.335c.276 0 .512-.116.709-.346.196-.231.295-.59.295-1.073 0-.461-.097-.808-.289-1.036-.192-.231-.421-.345-.688-.345-.265 0-.499.121-.703.367-.203.245-.304.6-.304 1.065zm5.882.616.639.087c-.101.374-.288.665-.56.87-.273.207-.622.311-1.045.311-.534 0-.957-.164-1.27-.491-.313-.329-.469-.789-.469-1.381 0-.611.158-1.088.474-1.426.316-.338.727-.507 1.23-.507.489 0 .888.166 1.197.496.309.332.464.799.464 1.398 0 .036 0 .091-.004.164h-2.721c.022.399.136.703.34.914.204.211.458.317.763.317.227 0 .421-.06.581-.18.159-.119.287-.31.381-.572zm-2.027-.994h2.034c-.028-.301-.105-.526-.233-.679a.958.958 0 0 0-.766-.351.987.987 0 0 0-.715.28c-.193.188-.3.438-.32.75zm3.439 2.186v-3.654h.553v.521c.269-.398.655-.596 1.163-.596.22 0 .422.039.607.118.184.08.323.184.415.312.091.127.155.279.192.457.022.114.034.314.034.601v2.242h-.615V29.55c0-.251-.024-.439-.072-.563a.592.592 0 0 0-.257-.299.822.822 0 0 0-.432-.111c-.264 0-.492.083-.684.25s-.288.484-.288.95v1.989h-.616v-.001zm5.737-1.62.628-.051c.03.255.099.462.207.624s.276.294.504.393c.229.102.485.15.77.15.253 0 .477-.037.67-.113a.936.936 0 0 0 .433-.312.734.734 0 0 0 .142-.434.652.652 0 0 0-.139-.416c-.092-.118-.243-.219-.453-.298-.134-.054-.432-.136-.893-.247s-.783-.217-.967-.316a1.365 1.365 0 0 1-.536-.472 1.154 1.154 0 0 1-.177-.631c0-.254.072-.493.216-.715.144-.224.354-.392.63-.506.276-.115.583-.173.921-.173.373 0 .7.061.985.18a1.439 1.439 0 0 1 .902 1.328l-.641.049c-.034-.318-.149-.559-.347-.722-.197-.162-.488-.245-.874-.245-.401 0-.693.074-.877.224-.184.148-.275.327-.275.536 0 .182.065.332.195.449.128.117.46.237 1 .361.538.123.909.229 1.111.322.292.136.509.306.648.515.14.206.209.445.209.717 0 .268-.076.521-.229.758a1.504 1.504 0 0 1-.658.554 2.282 2.282 0 0 1-.966.198c-.455 0-.835-.066-1.142-.2a1.588 1.588 0 0 1-.721-.6 1.709 1.709 0 0 1-.276-.907zm4.611-.207c0-.675.187-1.173.563-1.498.313-.269.695-.404 1.147-.404.501 0 .91.164 1.229.492.317.328.476.78.476 1.357 0 .47-.068.838-.21 1.106-.141.269-.345.478-.614.626s-.563.223-.88.223c-.511 0-.924-.163-1.238-.49-.316-.326-.473-.798-.473-1.412zm.64-.002c0 .464.102.812.305 1.042a.976.976 0 0 0 .766.348.97.97 0 0 0 .761-.349c.202-.233.303-.585.303-1.061 0-.448-.101-.789-.305-1.02a.971.971 0 0 0-.759-.347.978.978 0 0 0-.766.345c-.204.231-.305.578-.305 1.042zm5.901 1.829v-.538c-.284.408-.672.613-1.161.613a1.49 1.49 0 0 1-.604-.124.994.994 0 0 1-.417-.31 1.152 1.152 0 0 1-.191-.458 3.193 3.193 0 0 1-.037-.578v-2.259h.615v2.026c0 .323.012.541.037.653a.64.64 0 0 0 .25.383.765.765 0 0 0 .471.139c.187 0 .36-.046.524-.142s.279-.225.349-.389c.067-.164.102-.401.102-.714V28.11h.616v3.654l-.554.001zm1.507 0v-3.654h.553v.561c.144-.258.274-.43.395-.513a.706.706 0 0 1 .399-.123c.209 0 .421.064.638.194l-.221.568a.93.93 0 0 0-.451-.122.586.586 0 0 0-.363.121.666.666 0 0 0-.229.339c-.071.22-.105.46-.105.72v1.909h-.616zm4.757-1.344.602.089c-.066.415-.237.741-.512.976-.274.236-.613.354-1.013.354-.501 0-.903-.162-1.208-.487-.305-.326-.456-.794-.456-1.401 0-.393.064-.736.195-1.031.132-.295.33-.517.598-.664.268-.147.559-.221.873-.221.397 0 .722.102.974.301.253.2.415.485.485.854l-.602.088c-.058-.242-.159-.423-.305-.545a.795.795 0 0 0-.527-.184.967.967 0 0 0-.76.332c-.194.222-.292.573-.292 1.052 0 .486.095.841.283 1.062a.93.93 0 0 0 .74.33.875.875 0 0 0 .611-.222c.166-.149.27-.375.314-.683zm3.628.152.64.087c-.102.374-.288.665-.561.87-.273.207-.621.311-1.045.311-.534 0-.957-.164-1.27-.491-.314-.329-.47-.789-.47-1.381 0-.611.158-1.088.474-1.426.316-.338.727-.507 1.231-.507.488 0 .888.166 1.196.496.31.332.464.799.464 1.398 0 .036 0 .091-.004.164h-2.722c.023.399.136.703.341.914.204.211.458.317.763.317.227 0 .421-.06.581-.18.161-.119.288-.31.382-.572zm-2.027-.994h2.033c-.027-.301-.105-.526-.232-.679a.957.957 0 0 0-.766-.351.99.99 0 0 0-.715.28c-.193.188-.299.438-.32.75zm5.498 2.186v-5.048h3.641v.591h-2.976v1.556h2.788v.59h-2.788v1.721h3.089v.591l-3.754-.001zm4.359-1.519v-.629h1.922v.629h-1.922zm6.264-.247.664.168c-.14.548-.391.967-.755 1.254-.362.288-.807.432-1.332.432-.544 0-.986-.111-1.326-.333-.341-.222-.6-.542-.777-.963a3.436 3.436 0 0 1-.267-1.354c0-.526.101-.984.301-1.377.201-.391.486-.689.857-.893.37-.204.777-.305 1.222-.305.505 0 .929.127 1.272.385.343.256.583.618.719 1.082l-.653.156c-.116-.369-.287-.638-.51-.805-.222-.169-.501-.253-.838-.253-.387 0-.711.093-.972.279a1.492 1.492 0 0 0-.549.752 3.09 3.09 0 0 0-.157.974c0 .431.062.808.188 1.128.124.322.317.563.581.722.265.159.551.238.857.238.374 0 .689-.108.948-.325.259-.215.435-.537.527-.962zm1.182-.061c0-.675.188-1.173.561-1.498.314-.269.696-.404 1.148-.404.502 0 .911.164 1.229.492.316.328.477.78.477 1.357 0 .47-.07.838-.212 1.106a1.492 1.492 0 0 1-.613.626c-.27.148-.563.223-.881.223-.511 0-.923-.163-1.238-.49-.315-.326-.471-.798-.471-1.412zm.64-.002c0 .464.102.812.305 1.042a.974.974 0 0 0 .765.348.972.972 0 0 0 .762-.349c.203-.233.305-.585.305-1.061 0-.448-.103-.789-.307-1.02a.972.972 0 0 0-.76-.347.974.974 0 0 0-.765.345c-.204.231-.305.578-.305 1.042zm3.503 1.829v-3.654h.553v.522a1.284 1.284 0 0 1 1.107-.598c.27 0 .491.057.665.17.174.112.295.27.366.473.291-.428.668-.643 1.134-.643.365 0 .645.102.84.301.197.199.294.509.294.925v2.504h-.615V29.47c0-.246-.02-.425-.061-.533a.51.51 0 0 0-.22-.261.69.69 0 0 0-.375-.101.877.877 0 0 0-.645.255c-.171.171-.256.443-.256.818v2.116h-.616v-2.366c0-.275-.051-.479-.152-.618-.102-.138-.267-.205-.496-.205a.899.899 0 0 0-.485.137.78.78 0 0 0-.323.401c-.067.176-.1.431-.1.762v1.89h-.615zm5.868 0v-3.654h.552v.522a1.284 1.284 0 0 1 1.107-.598c.27 0 .492.057.665.17.174.112.296.27.367.473.291-.428.668-.643 1.134-.643.364 0 .644.102.84.301.196.199.294.509.294.925v2.504h-.615V29.47c0-.246-.02-.425-.061-.533a.515.515 0 0 0-.22-.261.686.686 0 0 0-.374-.101.874.874 0 0 0-.645.255c-.172.171-.257.443-.257.818v2.116h-.616v-2.366c0-.275-.05-.479-.151-.618-.101-.138-.267-.205-.497-.205a.904.904 0 0 0-.485.137.785.785 0 0 0-.323.401c-.066.176-.099.431-.099.762v1.89h-.616zm8.371-1.192.64.087c-.102.374-.288.665-.561.87-.272.207-.621.311-1.044.311-.534 0-.958-.164-1.271-.491-.313-.329-.469-.789-.469-1.381 0-.611.158-1.088.475-1.426.316-.338.727-.507 1.231-.507.487 0 .887.166 1.197.496.309.332.463.799.463 1.398l-.003.164h-2.722c.023.399.137.703.34.914.204.211.458.317.764.317a.94.94 0 0 0 .58-.18c.159-.119.287-.31.38-.572zm-2.027-.994h2.035c-.027-.301-.105-.526-.233-.679a.955.955 0 0 0-.765-.351.991.991 0 0 0-.717.28c-.192.188-.299.438-.32.75zm3.428 2.186v-3.654h.553v.561c.143-.258.273-.43.394-.513a.708.708 0 0 1 .399-.123c.21 0 .422.064.638.194l-.22.568a.933.933 0 0 0-.451-.122.579.579 0 0 0-.362.121.661.661 0 0 0-.23.339c-.07.22-.105.46-.105.72v1.909h-.616zm4.757-1.344.603.089c-.066.415-.238.741-.513.976-.275.236-.612.354-1.011.354-.502 0-.905-.162-1.209-.487-.306-.326-.457-.794-.457-1.401 0-.393.064-.736.196-1.031.131-.295.33-.517.597-.664a1.79 1.79 0 0 1 .874-.221c.396 0 .721.102.974.301.253.2.414.485.486.854l-.604.088c-.058-.242-.158-.423-.305-.545a.79.79 0 0 0-.526-.184.968.968 0 0 0-.761.332c-.194.222-.291.573-.291 1.052 0 .486.094.841.283 1.062a.93.93 0 0 0 .74.33.873.873 0 0 0 .61-.222c.166-.149.269-.375.314-.683zm3.627.152.641.087c-.102.374-.289.665-.561.87-.273.207-.622.311-1.045.311-.534 0-.958-.164-1.271-.491-.313-.329-.469-.789-.469-1.381 0-.611.157-1.088.474-1.426.316-.338.728-.507 1.231-.507.487 0 .887.166 1.196.496.309.332.464.799.464 1.398 0 .036-.001.091-.004.164h-2.721c.022.399.136.703.339.914.204.211.458.317.764.317.227 0 .42-.06.58-.18.161-.119.288-.31.382-.572zm-2.026-.994h2.034c-.027-.301-.105-.526-.233-.679a.955.955 0 0 0-.765-.351.988.988 0 0 0-.715.28c-.194.188-.301.438-.321.75z" fill="#A9AFB6"/></svg>