<svg width="49" height="48" fill="none" xmlns="http://www.w3.org/2000/svg"><path fill-rule="evenodd" clip-rule="evenodd" d="M38.333 6h-28c-1.1 0-2.041.392-2.825 1.175C6.725 7.958 6.333 8.9 6.333 10v31.6c0 .467.2.783.6.95.4.167.767.083 1.1-.25l.6-.6c.2-.2.434-.3.7-.3.267 0 .5.1.7.3l1.6 1.6c.2.2.434.3.7.3.267 0 .5-.1.7-.3l1.6-1.6c.2-.2.434-.3.7-.3.267 0 .5.1.7.3l1.6 1.6c.2.2.434.3.7.3.267 0 .5-.1.7-.3l1.6-1.6c.2-.2.434-.3.7-.3.267 0 .5.1.7.3l1.6 1.6c.2.2.434.3.7.3.267 0 .5-.1.7-.3l1.6-1.6c.2-.2.434-.3.7-.3.267 0 .5.1.7.3l1.6 1.6c.2.2.434.3.7.3.267 0 .5-.1.7-.3l1.6-1.6c.2-.2.434-.3.7-.3.267 0 .5.1.7.3l1.6 1.6c.2.2.434.3.7.3.267 0 .5-.1.7-.3l1.6-1.6c.2-.2.434-.3.7-.3.267 0 .5.1.7.3l.6.6c.334.333.7.417 1.1.25.4-.167.6-.483.6-.95V10c0-1.1-.391-2.042-1.175-2.825C40.375 6.392 39.433 6 38.333 6Zm-24 28h20c.567 0 1.042-.192 1.425-.575.384-.383.575-.858.575-1.425 0-.567-.191-1.042-.575-1.425-.383-.383-.858-.575-1.425-.575h-20c-.566 0-1.041.192-1.425.575-.383.383-.575.858-.575 1.425 0 .567.192 1.042.575 1.425.384.383.859.575 1.425.575Zm0-8h20c.567 0 1.042-.192 1.425-.575.384-.383.575-.858.575-1.425 0-.567-.191-1.042-.575-1.425-.383-.383-.858-.575-1.425-.575h-20c-.566 0-1.041.192-1.425.575-.383.383-.575.858-.575 1.425 0 .567.192 1.042.575 1.425.384.383.859.575 1.425.575Zm0-8h20c.567 0 1.042-.192 1.425-.575.384-.383.575-.858.575-1.425 0-.567-.191-1.042-.575-1.425-.383-.383-.858-.575-1.425-.575h-20c-.566 0-1.041.192-1.425.575-.383.383-.575.858-.575 1.425 0 .567.192 1.042.575 1.425.384.383.859.575 1.425.575Z" fill="#44B1FF"/></svg>