<svg xmlns="http://www.w3.org/2000/svg" width="79.002" height="79.002" viewBox="0 0 79.002 79.002"><path d="M0,0H79V79H0Z" fill="none"/><path d="M49.376,27.042H39.4l-3.193-9.875-3.193,9.875H23.042l8.131,5.793-3.094,9.579,8.131-5.925,8.131,5.925-3.094-9.579Zm0,0H39.4l-3.193-9.875-3.193,9.875H23.042l8.131,5.793-3.094,9.579,8.131-5.925,8.131,5.925-3.094-9.579Zm26.334,6.6-16.459-.016a3.3,3.3,0,0,0-3.292,3.292V66.543a3.3,3.3,0,0,0,3.292,3.292H75.71A3.3,3.3,0,0,0,79,66.543V36.917A3.287,3.287,0,0,0,75.71,33.642Zm0,29.609H59.251V40.209H75.71ZM65.835,4H6.583A6.561,6.561,0,0,0,0,10.583v39.5a6.582,6.582,0,0,0,6.583,6.583H29.626v6.583H23.042v6.583H49.376V63.251H42.793V56.668h6.583V50.084H6.583v-39.5H65.835V27.042h6.583V10.583A6.582,6.582,0,0,0,65.835,4ZM39.4,27.042l-3.193-9.875-3.193,9.875H23.042l8.131,5.793-3.094,9.579,8.131-5.925,8.131,5.925-3.094-9.579,8.131-5.793Z" transform="translate(0 2.583)" fill="#fff"/></svg>