<svg xmlns="http://www.w3.org/2000/svg" width="79.837" height="80" viewBox="0 0 79.837 80"><g transform="translate(-10 -11)"><g transform="translate(10 11)"><path d="M10,11V22.568H89.837V11Zm72.505,8.31h-27.7a2.444,2.444,0,1,1,0-4.888h27.7a2.444,2.444,0,1,1,0,4.888Z" transform="translate(-10 -11)" fill="#fff"/></g><g transform="translate(10 27.456)"><path d="M10,112v63.544H89.837V112Zm76.578,60.285H13.259V115.259h73.32Z" transform="translate(-10 -112)" fill="#fff"/></g><rect width="66.899" height="4.46" transform="translate(16.69 34.136)" fill="#fff"/><path d="M220.1,219.033c-1.971-3.144-6.513-4.278-12.245-3.569a22.07,22.07,0,0,0-33.932,21c-3.17,4.8-4.149,9.352-2.177,12.5s6.513,4.278,12.245,3.569a22.07,22.07,0,0,0,33.932-21C221.09,226.73,222.069,222.178,220.1,219.033Zm-24.177-4a19.09,19.09,0,0,1,7.147,1.381,57.013,57.013,0,0,0-26.182,16.2A19.06,19.06,0,0,1,195.92,215.034Zm-20.992,33.645c-.768-1.224-.359-3.066.985-5.256a22.066,22.066,0,0,0,4.869,6.621C177.86,250.421,175.76,250.007,174.928,248.679Zm20.992,4.279a19.115,19.115,0,0,1-17.9-12.384,72.826,72.826,0,0,1,31.725-19.637A18.813,18.813,0,0,1,215,234q0,.7-.051,1.378A19.059,19.059,0,0,1,195.92,252.958Zm17.332-32.646c2.574-.234,4.42.214,5.188,1.439.832,1.327.282,3.38-1.344,5.816A21.89,21.89,0,0,0,213.252,220.312Z" transform="translate(-134.537 -168.251)" fill="#fff"/></g></svg>