<svg xmlns="http://www.w3.org/2000/svg" width="96" height="71.985" viewBox="0 0 96 71.985"><g transform="translate(0 -12.012)"><path d="M24.845,25.4a6.013,6.013,0,0,0-8.449.762l-15,18a5.984,5.984,0,0,0,0,7.687l15,18a6,6,0,1,0,9.21-7.687L13.807,48l11.8-14.155a6,6,0,0,0-.762-8.449Z" fill="#fff"/><path d="M55.171,12.119a6.056,6.056,0,0,0-7.054,4.711l-12,60a5.985,5.985,0,0,0,4.711,7.054A5.705,5.705,0,0,0,42.012,84a6,6,0,0,0,5.871-4.827l12-60a5.985,5.985,0,0,0-4.711-7.054Z" fill="#fff"/><path d="M94.6,44.156l-15-18a6,6,0,1,0-9.21,7.687L82.193,48l-11.8,14.155a6,6,0,1,0,9.21,7.687l15-18A5.984,5.984,0,0,0,94.6,44.156Z" fill="#fff"/></g></svg>