<svg xmlns="http://www.w3.org/2000/svg" width="76.908" height="76.933" viewBox="0 0 76.908 76.933"><g transform="translate(-0.999 -0.991)"><path d="M39.435,77.923A38.463,38.463,0,0,1,10.223,14.472,38.453,38.453,0,0,1,55.1,4.332a3.5,3.5,0,0,1-2.846,6.386,31.461,31.461,0,0,0-39.2,45.861A31.461,31.461,0,0,0,70.916,39.474V36.26a3.5,3.5,0,0,1,6.991,0v3.216A38.511,38.511,0,0,1,39.435,77.923Z" transform="translate(0 0)" fill="#fff"/><path d="M21.984,44.983a3.5,3.5,0,0,1-2.473-1.024L9.024,33.472a3.5,3.5,0,1,1,4.944-4.944l8.014,8.014L54.467,4.025a3.5,3.5,0,0,1,4.946,4.941L24.456,43.958A3.5,3.5,0,0,1,21.984,44.983Z" transform="translate(17.471 5.015)" fill="#fff"/></g></svg>