<svg xmlns="http://www.w3.org/2000/svg" width="106.143" height="72.557" viewBox="0 0 106.143 72.557"><path d="M44.725,60.09,77.914,15.13a3.684,3.684,0,0,1,6.553,3.02l-.163.522L63.775,70.649a10.983,10.983,0,1,1-19.819-9.361l.365-.612.4-.587L77.914,15.13ZM90.133,17.618a56.541,56.541,0,0,1,10.727,11.521,65.823,65.823,0,0,1,7,12.722,3.978,3.978,0,0,1-7.41,2.9,43.7,43.7,0,0,0-2-4.306L87.579,46.731a3.979,3.979,0,0,1-4.428-6.59l.449-.3L94.306,33.65l-1.223-1.665a48.567,48.567,0,0,0-5.61-6.151L89.49,20.72a9.276,9.276,0,0,0,.46-1.546l.126-.782ZM76.19,9.336a9.1,9.1,0,0,0-2.157,1.743l-.606.738-2.869,3.888a48.826,48.826,0,0,0-11.505-2.5V27.388a3.979,3.979,0,0,1-7.921.54l-.036-.54,0-14.265a48.312,48.312,0,0,0-24.351,8.66A44.156,44.156,0,0,0,15.5,33.478l11.045,6.376a3.979,3.979,0,0,1-3.493,7.129l-.486-.239-11-6.349q-1.017,2.119-1.886,4.357a3.978,3.978,0,1,1-7.416-2.882c4.278-11.006,11.029-20.383,19.913-26.6A56.451,56.451,0,0,1,76.19,9.336Z" transform="translate(-1.993 -5.043)" fill="#fff"/></svg>