<svg xmlns="http://www.w3.org/2000/svg" width="62.691" height="62.702" viewBox="0 0 62.691 62.702"><path d="M13.42,29.85,29.9,13.367l-5.413-5.4-7.543,7.559a1.608,1.608,0,0,1-.7.282,1.111,1.111,0,0,1-.685-.283l-1.372-1.37a.983.983,0,0,1,0-1.384l7.555-7.549L17.632,1.1a3.885,3.885,0,0,0-5.495,0L1.149,12.083a3.888,3.888,0,0,0,0,5.493ZM60.981,15.535a5.882,5.882,0,0,0,0-8.317L55.44,1.676a5.885,5.885,0,0,0-8.323,0L41.594,7.309,55.456,21.171ZM57.455,40.919,49.9,48.474a.971.971,0,0,1-1.373,0l-1.37-1.37a.97.97,0,0,1,0-1.371l7.554-7.554L49.3,32.764,32.817,49.246l12.27,12.27a3.885,3.885,0,0,0,5.495,0L61.568,50.532a3.888,3.888,0,0,0,0-5.493ZM38.719,10.087,3.232,45.574a3.917,3.917,0,0,0-1.089,2.1L.056,59.606a2.6,2.6,0,0,0,3.01,3.007L15.009,60.52A3.917,3.917,0,0,0,17.1,59.431L52.59,23.944Z" transform="translate(-0.013 0.048)" fill="#fff"/></svg>