<svg xmlns="http://www.w3.org/2000/svg" width="36.782" height="36.783" viewBox="0 0 36.782 36.783"><g transform="translate(0.046 0.044)"><path d="M28.88,22.4A15.337,15.337,0,1,0,22.4,28.882l6.51,6.511A4.582,4.582,0,1,0,35.4,28.92ZM3.085,15.326A12.242,12.242,0,1,1,15.327,27.569,12.242,12.242,0,0,1,3.085,15.326ZM33.232,33.243a1.53,1.53,0,0,1-2.142,0l-6.071-6.072a15.444,15.444,0,0,0,2.142-2.152l6.078,6.069a1.494,1.494,0,0,1-.014,2.153Z" transform="translate(0 0)" fill="#fff"/><path d="M13.182,4A9.191,9.191,0,0,0,4,13.182a1.53,1.53,0,0,0,3.061,0,6.121,6.121,0,0,1,6.121-6.121,1.53,1.53,0,0,0,0-3.061Z" transform="translate(2.146 2.145)" fill="#fff"/></g></svg>