<svg xmlns="http://www.w3.org/2000/svg" width="35.156" height="35.154" viewBox="0 0 35.156 35.154"><g transform="translate(0.001 0)"><path d="M35.076,1.507A1.1,1.1,0,0,0,33.648.079L1.686,12.864h0l-.993.4a1.1,1.1,0,0,0-.18,1.949l.9.571,0,0,10.975,6.983,3.493,5.489c1.7,2.5,1.7.308,1.7-.791a9.887,9.887,0,0,1,11.043-9.821ZM31.049,5.66,14.583,22.125l-.472-.743a1.1,1.1,0,0,0-.338-.338l-.743-.472L29.5,4.106l2.588-1.035L31.051,5.66Z" transform="translate(0)" fill="#fff"/><path d="M24.38,16.69A7.69,7.69,0,1,1,16.69,9a7.69,7.69,0,0,1,7.69,7.69ZM20,13a1.1,1.1,0,0,0-1.507.378l-2.571,4.284-1.2-1.2a1.1,1.1,0,0,0-1.556,1.556l1.7,1.7a1.648,1.648,0,0,0,2.579-.316l2.933-4.891A1.1,1.1,0,0,0,20,13Z" transform="translate(10.775 10.774)" fill="#fff"/></g></svg>