<svg xmlns="http://www.w3.org/2000/svg" width="40.519" height="32.415" viewBox="0 0 40.519 32.415"><path d="M26.337,2.022a2.027,2.027,0,0,0-3.975-.555l-8.1,28.363a2.022,2.022,0,0,0-.079.557,2,2,0,0,0,2.028,2.027,2.027,2.027,0,0,0,1.947-1.47l8.1-28.363A2.028,2.028,0,0,0,26.337,2.022ZM11.143,9.06A2.025,2.025,0,0,0,7.685,7.627L.594,14.718a2.092,2.092,0,0,0,0,2.92l7.091,7.091a1.948,1.948,0,0,0,1.432.538,2.026,2.026,0,0,0,1.432-3.459L4.891,16.15l5.659-5.659A1.841,1.841,0,0,0,11.143,9.06ZM40.519,16.15a2.02,2.02,0,0,0-.594-1.433L32.834,7.627A2.281,2.281,0,0,0,31.4,7.034a2.026,2.026,0,0,0-1.432,3.459l5.659,5.659L29.969,21.81a2.214,2.214,0,0,0-.594,1.431,2.025,2.025,0,0,0,3.458,1.432l7.091-7.091A1.831,1.831,0,0,0,40.519,16.15Z" fill="#fff"/></svg>