<svg xmlns="http://www.w3.org/2000/svg" width="40.163" height="40.242" viewBox="0 0 40.163 40.242"><g transform="translate(33.951 -294)"><path d="M-25.689,316.006A4.333,4.333,0,0,0-30,320.317a4.333,4.333,0,0,0,4.311,4.311,4.333,4.333,0,0,0,4.311-4.311A4.333,4.333,0,0,0-25.689,316.006Zm0,2.874a1.416,1.416,0,0,1,1.437,1.437,1.416,1.416,0,0,1-1.437,1.437,1.416,1.416,0,0,1-1.437-1.437A1.416,1.416,0,0,1-25.689,318.88Z" transform="translate(1.726 9.614)" fill="#fff" fill-rule="evenodd"/><path d="M-11.689,316.006A4.333,4.333,0,0,0-16,320.317a4.333,4.333,0,0,0,4.311,4.311,4.333,4.333,0,0,0,4.311-4.311A4.333,4.333,0,0,0-11.689,316.006Zm0,2.874a1.416,1.416,0,0,1,1.437,1.437,1.416,1.416,0,0,1-1.437,1.437,1.416,1.416,0,0,1-1.437-1.437A1.416,1.416,0,0,1-11.689,318.88Z" transform="translate(7.843 9.614)" fill="#fff" fill-rule="evenodd"/><path d="M-9.379,294.006A8.643,8.643,0,0,0-18,302.627a8.643,8.643,0,0,0,8.621,8.621,8.643,8.643,0,0,0,8.621-8.621A8.643,8.643,0,0,0-9.379,294.006Zm0,2.874a5.726,5.726,0,0,1,5.748,5.748,5.726,5.726,0,0,1-5.748,5.748,5.726,5.726,0,0,1-5.748-5.748A5.726,5.726,0,0,1-9.379,296.88Z" transform="translate(6.969 0.003)" fill="#fff" fill-rule="evenodd"/><path d="M-7.67,298.014a1.437,1.437,0,0,0-1.055.314l-2.916,2.38-.943-.878a1.437,1.437,0,0,0-2.029.07,1.437,1.437,0,0,0,.07,2.029l1.858,1.737a1.437,1.437,0,0,0,1.886.062l3.893-3.171a1.437,1.437,0,0,0,.2-2.021,1.437,1.437,0,0,0-.968-.522Z" transform="translate(8.28 1.75)" fill="#fff" fill-rule="evenodd"/><path d="M-32.514,294a1.437,1.437,0,0,0-1.437,1.437,1.437,1.437,0,0,0,1.437,1.437h1.7l3.808,19.028a4.335,4.335,0,0,0-2.63,3.963,4.333,4.333,0,0,0,4.311,4.311H-.9a1.437,1.437,0,0,0,1.437-1.437A1.437,1.437,0,0,0-.9,321.3H-25.33a1.4,1.4,0,0,1-1.437-1.437,1.4,1.4,0,0,1,1.437-1.437H-3.776l.042-.009H.534a1.437,1.437,0,0,0,1.42-1.212L3.3,308.63a1.437,1.437,0,1,0-2.84-.446l-1.159,7.361H-24.151l-2.587-12.924H-9.375a1.437,1.437,0,0,0,1.437-1.437,1.437,1.437,0,0,0-1.437-1.437H-27.314l-.918-4.591A1.437,1.437,0,0,0-29.641,294Z" fill="#fff" fill-rule="evenodd"/></g></svg>