<svg width="141" height="25" fill="none" xmlns="http://www.w3.org/2000/svg"><path fill-rule="evenodd" clip-rule="evenodd" d="m33.028 4.746-3.694 4.73V.253h-3.186v18.04h3.186v-5.54l4.541 5.54h4.339l-6.169-7.195 5.321-6.352h-4.338ZM3.304 18.26v-5.236h2.27l3.966 5.27h4.033l-4.779-6.35c1.492-1.082 2.475-2.805 2.475-4.764 0-3.21-2.644-5.845-5.864-5.845H.084V18.26h3.22Zm0-13.681h2.101A2.643 2.643 0 0 1 8.05 7.213a2.643 2.643 0 0 1-2.644 2.635H3.304v-5.27Zm17.997.777V4.78h3.084v13.547h-3.084v-.608c-.949.608-1.762.946-2.915.946-3.49 0-6.168-3.21-6.168-7.128 0-3.919 2.643-7.128 6.168-7.128 1.153 0 2 .338 2.915.946Zm-5.931 6.182c0 2.162 1.288 3.851 3.016 3.851 1.729 0 2.949-1.723 2.949-3.851 0-2.162-1.22-3.851-2.949-3.851-1.762 0-3.016 1.689-3.016 3.85Zm51.415 9.324-46.128 3.952-4-3.952h50.128ZM46.043 4.747v7.972c0 1.487-1.017 2.77-2.542 2.77-1.491 0-2.542-1.25-2.542-2.77V4.747h-3.084v7.972c0 3.277 2.237 5.912 5.524 5.912a4.62 4.62 0 0 0 2.61-.844v.506h3.084V4.747h-3.05Zm28.775 5.574v7.972h-3.05V4.747h3.084v.506s1.084-.844 2.61-.844c3.287 0 5.524 2.635 5.524 5.912v7.972h-3.084v-7.972c0-1.52-1.05-2.77-2.542-2.77-1.525 0-2.542 1.283-2.542 2.77Zm-18.404 5.1c.373 0 .746-.134 1.017-.337l2.034 2.702c-.983.575-2.17.845-3.017.845-2.27 0-4.575-1.79-4.575-4.83V7.955h-1.627v-3.21h1.627V1.368h3.084v3.378H57.6v3.21h-2.643v5.81c0 1.284.949 1.656 1.457 1.656Zm2.034-3.884c0-3.987 2.575-7.128 6.134-7.128 3.491 0 6.677 3.209 5.898 8.074H61.6c.406 3.108 3.931 4.695 6.033 1.587l2.711 1.554c-1.728 2.5-3.83 3.04-5.457 3.04-3.22 0-6.44-2.938-6.44-7.127ZM67.26 9.78H61.7c.644-3.175 4.983-3.378 5.559 0Zm25.623 7.365L87.9 4.78c-.068-.169-.136-.338-.17-.507a2.947 2.947 0 0 1-.068-.54c0-.54.17-.946.543-1.318.372-.337.813-.506 1.39-.506.406 0 .745.135.982.371.271.237.508.642.712 1.216l3.39 9.088 3.253-8.952c.203-.642.474-1.081.745-1.352.272-.236.645-.371 1.085-.371.576 0 1.017.135 1.322.439.305.304.474.71.474 1.25 0 .177-.025.354-.054.553h-.001l-.012.089a4.514 4.514 0 0 1-.17.642l-4.813 12.127c-.203.541-.474.946-.745 1.183a1.78 1.78 0 0 1-1.119.371c-.44 0-.78-.1-1.05-.337-.238-.237-.475-.575-.712-1.081Zm12.71.777c.271-.406.406-1.014.406-1.858V9.24c0-.845-.135-1.453-.406-1.858-.271-.406-.678-.609-1.254-.609s-1.017.203-1.288.609c-.271.405-.407 1.013-.407 1.858v6.824c0 .844.136 1.452.407 1.858.271.405.712.608 1.288.608.542 0 .983-.203 1.254-.608Zm5.558-11.047a4.398 4.398 0 0 1 1.322-.777c.475-.17.983-.27 1.525-.27 1.559 0 2.881.608 3.966 1.857 1.084 1.217 1.593 2.77 1.593 4.629 0 1.756-.543 3.243-1.661 4.459-1.085 1.216-2.407 1.858-3.898 1.858a4.4 4.4 0 0 1-1.661-.304 3.445 3.445 0 0 1-1.287-.912c-.238.372-.475.675-.78.878-.271.203-.61.304-.949.304-.61 0-1.051-.203-1.356-.642-.305-.439-.44-1.08-.44-1.993V4.544c0-.879.135-1.554.44-1.993.305-.44.746-.642 1.356-.642.61 0 1.085.202 1.356.642.305.439.44 1.08.44 1.993v2.33h.034Zm-.271 5.371c0 .98.237 1.79.712 2.365a2.28 2.28 0 0 0 1.864.912 2.28 2.28 0 0 0 1.864-.912c.475-.608.746-1.385.746-2.365 0-.98-.238-1.79-.712-2.398a2.284 2.284 0 0 0-1.864-.913c-.78 0-1.39.304-1.864.913-.509.608-.746 1.418-.746 2.398Zm12.757 1.115c.106.629.587 1.134 1.037 1.486.475.372 1.119.575 1.898.575.678 0 1.424-.203 2.271-.575.848-.405 1.356-.574 1.525-.574.441 0 .78.135 1.051.406.271.27.407.608.407 1.013 0 .777-.542 1.453-1.627 2.095-1.085.608-2.373.946-3.83.946-1.796 0-3.288-.609-4.474-1.825-1.186-1.216-1.796-2.736-1.796-4.56 0-1.825.576-3.379 1.728-4.595 1.153-1.216 2.61-1.824 4.339-1.824 1.66 0 3.084.574 4.202 1.723 1.119 1.148 1.695 2.567 1.695 4.223 0 .54-.135.912-.373 1.148-.237.203-.711.338-1.423.338h-6.63Zm5.172-2.23h-5.321c.136-.709.441-1.418.949-1.858.475-.439 1.119-.641 1.797-.641.677 0 1.254.236 1.762.675.508.473.779 1.149.813 1.825Zm4.271 4.764V8.63c0-.878.135-1.554.44-1.959.305-.44.746-.642 1.356-.642.373 0 .678.102.983.27.271.203.542.473.746.879.373-.406.779-.71 1.186-.912a2.852 2.852 0 0 1 1.254-.304c.508 0 .915.169 1.288.54.373.338.542.777.542 1.25 0 .71-.678 1.318-1.999 1.824-.475.17-.848.304-1.085.44-.441.202-.746.439-.915.709-.136.27-.237.743-.237 1.419v3.75c0 .878-.136 1.554-.441 1.993-.305.439-.746.642-1.356.642-.61 0-1.05-.203-1.355-.642-.238-.44-.407-1.115-.407-1.993ZM103.085 2.449c-.373.372-.577.811-.577 1.318 0 .54.17.98.577 1.317.372.372.813.54 1.355.54.509 0 .949-.168 1.322-.54.373-.337.543-.81.543-1.317 0-.507-.17-.946-.543-1.318a1.793 1.793 0 0 0-1.322-.54c-.542 0-.983.169-1.355.54Z" fill="#7360F2"/></svg>