<svg xmlns="http://www.w3.org/2000/svg" width="17.978" height="26"><g fill="#fff" fill-rule="evenodd"><path d="M17.978 1a1 1 0 0 0-1-1H1a1 1 0 0 0-1 1v3.989a1 1 0 0 0 1 1h15.978a1 1 0 0 0 1-1ZM2 2v1.989h13.978V2Z"/><path d="M17.978 4.846a.933.933 0 0 0-1-.846H1a.933.933 0 0 0-1 .846v20.308A.933.933 0 0 0 1 26h15.978a.933.933 0 0 0 1-.846V4.846ZM4.378 22h1.2a1 1 0 0 0 0-2h-1.2a1 1 0 0 0 0 2Zm8 0h1.2a1 1 0 1 0 0-2h-1.2a1 1 0 0 0 0 2Zm0-4h1.2a1 1 0 1 0 0-2h-1.2a1 1 0 0 0 0 2Zm-3.979 0h1.2a1 1 0 1 0 0-2h-1.2a1 1 0 0 0 0 2Zm-4.021 0h1.2a1 1 0 1 0 0-2h-1.2a1 1 0 0 0 0 2Zm0-4h1.2a1 1 0 0 0 0-2h-1.2a1 1 0 0 0 0 2Zm8 0h1.2a1 1 0 1 0 0-2h-1.2a1 1 0 0 0 0 2Zm-3.979 0h1.2a1 1 0 1 0 0-2h-1.2a1 1 0 0 0 0 2Zm-4.021-4h1.2a1 1 0 0 0 0-2h-1.2a1 1 0 0 0 0 2Zm8 0h1.2a1 1 0 1 0 0-2h-1.2a1 1 0 0 0 0 2Zm-3.979 0h1.2a1 1 0 0 0 0-2h-1.2a1 1 0 0 0 0 2Z"/></g></svg>