<svg height="32" viewBox="0 0 8.467 8.467" width="32" xmlns="http://www.w3.org/2000/svg"><path d="M15.996.996c-6.063 0-10.998 4.937-10.998 11 0 10.669 10.379 18.78 10.379 18.78a1 1 0 0 0 1.246 0s10.38-8.111 10.38-18.78c0-6.063-4.944-11-11.007-11Zm0 6.002c2.75 0 5.006 2.249 5.006 4.998 0 2.75-2.256 5.004-5.006 5.004-2.75 0-4.998-2.254-4.998-5.004a5.012 5.012 0 0 1 4.998-4.998z" style="color:#000;font-style:normal;font-variant:normal;font-weight:400;font-stretch:normal;font-size:medium;line-height:normal;font-family:sans-serif;font-variant-ligatures:normal;font-variant-position:normal;font-variant-caps:normal;font-variant-numeric:normal;font-variant-alternates:normal;font-feature-settings:normal;text-indent:0;text-align:start;text-decoration:none;text-decoration-line:none;text-decoration-style:solid;text-decoration-color:#000;letter-spacing:normal;word-spacing:normal;text-transform:none;writing-mode:lr-tb;direction:ltr;text-orientation:mixed;dominant-baseline:auto;baseline-shift:baseline;text-anchor:start;white-space:normal;shape-padding:0;clip-rule:nonzero;display:inline;overflow:visible;visibility:visible;opacity:1;isolation:auto;mix-blend-mode:normal;color-interpolation:sRGB;color-interpolation-filters:linearRGB;solid-color:#000;solid-opacity:1;vector-effect:none;fill:#000;fill-opacity:1;fill-rule:nonzero;stroke:none;stroke-width:1.99999988;stroke-linecap:round;stroke-linejoin:round;stroke-miterlimit:4;stroke-dasharray:none;stroke-dashoffset:0;stroke-opacity:1;paint-order:stroke fill markers;color-rendering:auto;image-rendering:auto;shape-rendering:auto;text-rendering:auto;enable-background:accumulate" transform="scale(.26458)"/></svg>