<svg xmlns="http://www.w3.org/2000/svg" width="20" height="18"><path d="M12.754 7a1.75 1.75 0 0 1 1.75 1.75v4.75a4.5 4.5 0 0 1-9 0V8.75A1.75 1.75 0 0 1 7.252 7ZM5.131 7a2.737 2.737 0 0 0-.621 1.531l-.009.22V13.5a5.479 5.479 0 0 0 .533 2.365A3.956 3.956 0 0 1 4 16a4 4 0 0 1-4-4V8.75a1.75 1.75 0 0 1 1.606-1.744L1.75 7Zm9.743 0h3.376A1.75 1.75 0 0 1 20 8.75V12a4 4 0 0 1-5.031 3.866 5.454 5.454 0 0 0 .526-2.052l.005-.314V8.75A2.739 2.739 0 0 0 14.875 7ZM10 0a3 3 0 1 1-3 3 3 3 0 0 1 3-3Zm6.5 1A2.5 2.5 0 1 1 14 3.5 2.5 2.5 0 0 1 16.5 1Zm-13 0A2.5 2.5 0 1 1 1 3.5 2.5 2.5 0 0 1 3.5 1Z" fill="#fff"/></svg>