<svg xmlns="http://www.w3.org/2000/svg" width="779.999" height="83.541"><path d="M69.523 82.401h-22.07V49.348H21.974v33.053H0V1.231h22.069v30.12h25.479V1.231h22.069v81.17Zm53.326 0h-21.88V19.227H81.173V1.231h61.472v17.9h-19.8v63.178Zm66.776 0-16.576-58.438h-.474c.189 1.515.284 3.6.474 6.157s.284 5.4.474 8.335.189 5.872.189 8.619v35.235h-19.417V1.231h29.173l16.954 57.588h.474l16.481-57.588h29.268v81.17H226.47V46.79c0-2.557 0-5.3.095-8.24s.189-5.683.379-8.335.284-4.641.379-6.157h-.474l-16.386 58.343h-20.838Zm74.447 0V1.231h21.88v63.461h31.257v17.709Z" fill="#fcb315"/><path d="M366.367 18.091a14.889 14.889 0 0 0-6.914 1.61 14.531 14.531 0 0 0-5.209 4.736 24.151 24.151 0 0 0-3.315 7.577 40.914 40.914 0 0 0-1.137 10.135 36.453 36.453 0 0 0 1.989 12.882 15.774 15.774 0 0 0 5.872 7.862 17.306 17.306 0 0 0 9.946 2.652 34.668 34.668 0 0 0 10.419-1.515c3.315-1.042 6.725-2.179 10.135-3.6v18.564a47.467 47.467 0 0 1-10.988 3.406 68.261 68.261 0 0 1-11.934 1.042c-8.809 0-16.007-1.7-21.6-5.209a31.188 31.188 0 0 1-12.404-14.583 55.047 55.047 0 0 1-3.978-21.69 52.91 52.91 0 0 1 2.557-16.86 37.351 37.351 0 0 1 7.577-13.26 35.041 35.041 0 0 1 12.316-8.714A42.49 42.49 0 0 1 366.557 0a65.177 65.177 0 0 1 12.408 1.326 51.639 51.639 0 0 1 12.692 4.357l-6.725 17.239a80.979 80.979 0 0 0-9-3.6 29.466 29.466 0 0 0-9.659-1.422ZM479.933 41.77a59.893 59.893 0 0 1-2.273 17.049 36.291 36.291 0 0 1-7.009 13.26 30.91 30.91 0 0 1-12.219 8.521c-4.925 1.989-10.987 2.936-17.9 2.936a47.523 47.523 0 0 1-17.713-2.936 31.25 31.25 0 0 1-12.31-8.52 35.865 35.865 0 0 1-7.2-13.26 57.917 57.917 0 0 1-2.37-17.239c0-8.43 1.421-15.818 4.168-21.974a31.093 31.093 0 0 1 12.976-14.492Q426.892 0 440.531 0c9.093 0 16.765 1.7 22.543 5.115A30.3 30.3 0 0 1 475.766 19.7a56.29 56.29 0 0 1 4.073 22.07Zm-55.789 0a40.93 40.93 0 0 0 1.7 12.6 16.165 16.165 0 0 0 5.3 8.146 15.029 15.029 0 0 0 9.472 2.842 15.6 15.6 0 0 0 9.661-2.842 14.972 14.972 0 0 0 5.115-8.146 44.751 44.751 0 0 0 1.61-12.6q0-10.94-3.694-17.333c-2.463-4.262-6.63-6.346-12.6-6.346a15.127 15.127 0 0 0-9.566 2.842 16.047 16.047 0 0 0-5.3 8.24 42.193 42.193 0 0 0-1.61 12.692Zm139.33-1.61c0 9.472-1.8 17.239-5.3 23.49A33.474 33.474 0 0 1 543.3 77.763a50.978 50.978 0 0 1-22.543 4.738H494.52V1.231h28.036c8.714 0 16.1 1.515 22.164 4.452a30.53 30.53 0 0 1 13.829 13.166c3.126 5.778 4.736 12.882 4.736 21.217Zm-22.732.758a32.32 32.32 0 0 0-1.989-12.217 15.191 15.191 0 0 0-5.872-7.3 18.638 18.638 0 0 0-9.945-2.368h-6.347v45.468h4.921c6.63 0 11.556-1.894 14.681-5.778s4.641-9.756 4.641-17.712Zm37.319 41.483V1.231h22.07v81.17Zm116.786 0h-28.789l-29.651-57.206h-.474c.189 1.7.379 3.789.474 6.251s.284 4.925.379 7.483.189 4.831.189 6.82v36.56h-19.417V1.231h28.6l29.552 56.357h.379c-.095-1.8-.189-3.883-.379-6.157s-.189-4.736-.284-7.1-.095-4.546-.095-6.346V1.231h19.512v81.17Zm50.106-47.45h35.045v43.76a86.682 86.682 0 0 1-14.4 3.5 108.842 108.842 0 0 1-16.954 1.326 44.4 44.4 0 0 1-20.551-4.542 31.762 31.762 0 0 1-13.734-13.829c-3.225-6.157-4.925-14.018-4.925-23.49 0-8.525 1.61-15.818 4.925-22.069a34.055 34.055 0 0 1 14.4-14.4C735.102 1.8 742.774.095 751.962.095a70.021 70.021 0 0 1 14.4 1.421 56.356 56.356 0 0 1 11.84 3.694l-6.918 17.238a40.037 40.037 0 0 0-9.093-3.22 48.961 48.961 0 0 0-10.134-1.043c-4.831 0-8.714 1.137-11.65 3.315a18.693 18.693 0 0 0-6.441 8.714 34.839 34.839 0 0 0-1.989 12.029 33.162 33.162 0 0 0 2.179 12.692 16.85 16.85 0 0 0 6.251 7.862 17.835 17.835 0 0 0 10.04 2.652 29.852 29.852 0 0 0 4.736-.284 41.5 41.5 0 0 0 4.262-.663V51.811h-14.492V34.856Z" fill="#231f20"/></svg>