<svg xmlns="http://www.w3.org/2000/svg" width="779.999" height="83.566"><path d="M69.523 82.41h-22.07V49.357H21.974V82.41H0V1.24h22.069v30.12h25.479V1.24h22.069v81.17Zm53.326 0h-21.88V19.236H81.173V1.24h61.472v17.9h-19.8v63.178Zm66.776 0-16.576-58.438h-.474c.189 1.515.284 3.6.474 6.157s.284 5.4.474 8.335.189 5.872.189 8.619v35.235h-19.417V1.24h29.173l16.954 57.588h.474L217.377 1.24h29.268v81.17H226.47V46.799c0-2.557 0-5.3.095-8.24s.189-5.683.379-8.335.284-4.641.379-6.157h-.474L210.462 82.41h-20.837Zm74.447 0V1.24h21.88v63.461h31.257V82.41Z" fill="#fcb315"/><path d="M366.367 18.101a14.89 14.89 0 0 0-6.914 1.61 14.53 14.53 0 0 0-5.209 4.736 24.154 24.154 0 0 0-3.315 7.577 40.919 40.919 0 0 0-1.14 10.134 36.458 36.458 0 0 0 1.989 12.882 15.77 15.77 0 0 0 5.875 7.861 17.3 17.3 0 0 0 9.945 2.652 34.667 34.667 0 0 0 10.419-1.515c3.315-1.042 6.725-2.179 10.135-3.6v18.563a47.463 47.463 0 0 1-10.987 3.41 68.262 68.262 0 0 1-11.934 1.042 40.075 40.075 0 0 1-21.6-5.209 31.19 31.19 0 0 1-12.404-14.585 55.05 55.05 0 0 1-3.978-21.69 52.91 52.91 0 0 1 2.557-16.86 37.348 37.348 0 0 1 7.577-13.26 35.046 35.046 0 0 1 12.314-8.715 42.49 42.49 0 0 1 16.86-3.126 65.175 65.175 0 0 1 12.408 1.327 51.639 51.639 0 0 1 12.692 4.357l-6.725 17.238a80.985 80.985 0 0 0-9-3.6 29.467 29.467 0 0 0-9.661-1.421Zm113.567 23.678a59.892 59.892 0 0 1-2.273 17.049 36.3 36.3 0 0 1-7.009 13.26 30.907 30.907 0 0 1-12.219 8.521 48.22 48.22 0 0 1-17.9 2.936 47.519 47.519 0 0 1-17.714-2.936 31.257 31.257 0 0 1-12.313-8.52 35.869 35.869 0 0 1-7.2-13.26 57.919 57.919 0 0 1-2.368-17.239 53.819 53.819 0 0 1 4.168-21.974 31.1 31.1 0 0 1 12.977-14.492 52.028 52.028 0 0 1 44.991 0 30.31 30.31 0 0 1 12.692 14.585 56.289 56.289 0 0 1 4.073 22.069Zm-55.789 0a40.929 40.929 0 0 0 1.7 12.6 16.168 16.168 0 0 0 5.3 8.146 15.032 15.032 0 0 0 9.472 2.842 15.6 15.6 0 0 0 9.661-2.842 14.975 14.975 0 0 0 5.12-8.148 44.75 44.75 0 0 0 1.61-12.6 34.648 34.648 0 0 0-3.69-17.331 13.26 13.26 0 0 0-12.6-6.346 15.155 15.155 0 0 0-9.566 2.842 16.045 16.045 0 0 0-5.3 8.24 42.2 42.2 0 0 0-1.61 12.692Zm139.329-1.61a47.357 47.357 0 0 1-5.3 23.49 33.473 33.473 0 0 1-14.871 14.113 50.977 50.977 0 0 1-22.543 4.736h-26.24V1.24h28.036a50.5 50.5 0 0 1 22.164 4.453 30.528 30.528 0 0 1 13.829 13.166 44.176 44.176 0 0 1 4.736 21.217Zm-22.732.758a32.318 32.318 0 0 0-1.989-12.219 15.155 15.155 0 0 0-5.872-7.293 18.64 18.64 0 0 0-9.945-2.368h-6.347v45.464h4.921a17.75 17.75 0 0 0 14.681-5.778 27.885 27.885 0 0 0 4.641-17.712Zm37.319 41.483V1.24h22.07v81.17Zm116.786 0h-28.789l-29.651-57.206h-.474c.189 1.7.379 3.789.474 6.251s.284 4.925.379 7.483.189 4.831.189 6.82v36.56h-19.417V1.24h28.6l29.552 56.357h.379c-.095-1.8-.189-3.883-.379-6.157s-.189-4.736-.284-7.1-.095-4.546-.095-6.346V1.24h19.512v81.17Zm50.106-47.45h35.045v43.759a86.683 86.683 0 0 1-14.4 3.5 108.839 108.839 0 0 1-16.954 1.326 44.4 44.4 0 0 1-20.554-4.546 31.758 31.758 0 0 1-13.731-13.827 50.5 50.5 0 0 1-4.925-23.49 46.278 46.278 0 0 1 4.925-22.067 34.1 34.1 0 0 1 14.4-14.4A48.306 48.306 0 0 1 751.962.104a70.025 70.025 0 0 1 14.4 1.421 56.357 56.357 0 0 1 11.84 3.694l-6.914 17.239a40.035 40.035 0 0 0-9.093-3.22 48.959 48.959 0 0 0-10.135-1.042 19.1 19.1 0 0 0-11.65 3.315 18.7 18.7 0 0 0-6.441 8.714 34.836 34.836 0 0 0-1.989 12.029 33.15 33.15 0 0 0 2.179 12.692 16.85 16.85 0 0 0 6.251 7.862 17.835 17.835 0 0 0 10.04 2.652 29.856 29.856 0 0 0 4.736-.284 41.5 41.5 0 0 0 4.262-.663V51.819h-14.495V34.865Z" fill="#fff"/></svg>