<svg width="48" height="48" fill="none" xmlns="http://www.w3.org/2000/svg"><path d="M6 30.55c0 .967.333 1.717 1 2.25.667.533 1.767.883 3.3 1.05a1.82 1.82 0 0 1 1.275.725c.317.417.458.892.425 1.425-.033.567-.233 1.033-.6 1.4s-.817.517-1.35.45c-2.7-.333-4.717-1.108-6.05-2.325-1.333-1.217-2-2.875-2-4.975 0-2.167.892-3.925 2.675-5.275 1.783-1.35 4.258-2.158 7.425-2.425 1.3-.1 2.275-.308 2.925-.625.65-.317.975-.758.975-1.325 0-.733-.35-1.308-1.05-1.725-.7-.417-1.85-.742-3.45-.975a1.793 1.793 0 0 1-1.275-.75A1.962 1.962 0 0 1 9.85 16c.067-.567.3-1.025.7-1.375.4-.35.867-.492 1.4-.425 2.767.4 4.8 1.142 6.1 2.225C19.35 17.508 20 19 20 20.9c0 1.767-.642 3.15-1.925 4.15-1.283 1-3.175 1.6-5.675 1.8-2.133.167-3.733.558-4.8 1.175-1.067.617-1.6 1.458-1.6 2.525Zm21.75 5.95-8.25-8.25L36.75 11c.667-.667 1.458-1 2.375-1s1.708.333 2.375 1l3.5 3.5c.667.667 1 1.458 1 2.375s-.333 1.708-1 2.375L27.75 36.5Zm-9.8 3.5c-.567.133-1.067-.017-1.5-.45-.433-.433-.583-.933-.45-1.5l1.55-7.55 7.9 7.9-7.5 1.6Z" fill="#44B1FF"/></svg>