<svg width="120" height="120" fill="none" xmlns="http://www.w3.org/2000/svg"><path d="M82.874 63.377c.445-2.956-.29-5.57-2.187-7.777-1.98-2.304-4.702-3.53-6.33-3.794-.295.705-.823 1.964-1.55 3.134-1.638 2.639-3.428 4.075-5.32 4.075-.92 0-1.828-.423-2.7-1.066-2.417-1.78-6.13-4.972-6.288-5.105l-.057-.077c-1.411-1.413-3.075-2.27-4.45-2.27-.85 0-1.567.299-2.192.924-1.913 1.918-.115 5.504 1.703 7.326.188.202 4.014 4.359 5.623 7.584.33.584 4.768 8.581 4.89 16.32l.014.944-8.83.068c3.176 1.105 6.535 2.77 7.512 4.586C63.972 90.594 65.398 93 67.717 93h5.147c2.667 0 4.65-1.61 5.44-4.216 1.83-6.033 4.543-25.215 4.57-25.407ZM41.69 65.579c-1.677 0-3.041 1.576-3.041 3.514 0 1.94 1.365 3.516 3.04 3.516 1.677 0 3.042-1.577 3.042-3.516 0-1.938-1.364-3.514-3.041-3.514Zm-.662-9.343c-1.785 0-3.237 1.675-3.237 3.734s1.452 3.734 3.237 3.734c1.784 0 3.236-1.675 3.236-3.734 0-2.06-1.452-3.734-3.236-3.734Zm-2.874-2.796c.076.065.593.504 1.357 1.173.479-.163.862-.252 1.39-.252.145 0 .303.012.303.024v-8.113c-.704-.345-1.19-.53-1.794-.53-.921 0-1.702.428-2.443 1.273-1.986 2.26-.573 4.873 1.187 6.425Zm4.082 21.045c-1.376 0-2.496 1.458-2.496 3.25s1.12 3.25 2.496 3.25 2.496-1.458 2.496-3.25-1.12-3.25-2.496-3.25Z" fill="#7360F2"/><path d="M72.073 33H44.06c-.404 0-.742.564-.742.968V54.97c1.41.926 2.812 2.817 2.812 5 0 1.814-.789 3.424-2.01 4.45 1.48.929 2.481 2.675 2.481 4.675 0 1.779-.79 3.354-2.006 4.335 1.206.914 2.007 2.5 2.007 4.306 0 1.756-.756 3.307-1.906 4.23l17.41-.23c-.44-7.091-4.44-14.19-4.618-14.5l-.026-.048c-1.483-2.988-5.27-7.102-5.306-7.144-2.843-2.846-4.263-7.364-1.679-9.954.965-.968 2.182-1.48 3.515-1.48 1.878 0 3.97 1.013 5.745 2.78.356.3 3.903 3.291 6.158 4.952.552.406.773.604 1.292.604 2.436-.002 5.02-4.4 5.02-6.182V33.969c0-.405.27-.969-.134-.969ZM58.151 77.249c.812 0 1.47.66 1.47 1.474a1.472 1.472 0 1 1-2.941 0c0-.815.659-1.474 1.471-1.474Zm-9.422-29.356a.933.933 0 0 1-1.318.127l-2.807-2.316a.94.94 0 0 1-.127-1.32.935.935 0 0 1 1.317-.127l2.807 2.316a.94.94 0 0 1 .128 1.32Zm5.863-2.47c0 .517-.54.937-1.057.937-.516 0-1.057-.42-1.057-.937v-4.688c0-.517.54-.937 1.057-.937.517 0 1.057.42 1.057.937v4.688Zm8.465-.744-3.276 3.28a.932.932 0 0 1-1.323 0 .938.938 0 0 1 0-1.325l3.275-3.28a.934.934 0 0 1 1.324 0 .94.94 0 0 1 0 1.325Z" fill="#7360F2"/></svg>