<svg width="120" height="120" fill="none" xmlns="http://www.w3.org/2000/svg"><path fill-rule="evenodd" clip-rule="evenodd" d="M58.21 31.015 58.108 31a.75.75 0 0 0-.78.602l-2 10-.014.101a.75.75 0 0 0 1.484.193l2-10 .013-.1a.75.75 0 0 0-.601-.782Zm-22.001 6.142.082.074 5.75 6a.75.75 0 0 1-1 1.112l-.082-.074-5.75-6a.75.75 0 0 1 1-1.112Zm38.68 6.139a.75.75 0 0 0-.942-1.161l-5.75 4-.087.07a.75.75 0 0 0 .943 1.16l5.75-4 .087-.07Zm4.492 10.87L51.07 43.86a2 2 0 0 0-1.69.151l-11.246 6.544a2 2 0 0 0-.874 2.412L49.704 87.18a2 2 0 0 0 2.88 1.048l31.522-18.209a2 2 0 0 0 .881-2.41l-4.409-12.241a2 2 0 0 0-1.197-1.202Zm-8.55 9.366.084-.089.105-.084a1 1 0 0 1 1.008-.082l4.469 2.152.084.049a.596.596 0 0 1-.446 1.074l-3.735-.658-.121-.014a1 1 0 0 0-.763.295L61.8 75.967l-.078.066a.569.569 0 0 1-.76-.834l9.868-11.667ZM47.27 49.16l-4.457 3.867a1 1 0 0 0-.303 1.04L47.8 71.89a.634.634 0 0 0 1.228-.306l-2.21-10.886a2 2 0 0 1 2.49-2.327l11.9 3.275a1 1 0 0 0 .652-1.886l-13.443-5.643a1 1 0 0 1-.553-1.264l.957-2.628a.972.972 0 0 0-1.55-1.066Z" fill="#7360F2"/></svg>