<?xml version="1.0" encoding="utf-8"?>
<!-- Generator: Adobe Illustrator 27.2.0, SVG Export Plug-In . SVG Version: 6.00 Build 0)  -->
<svg version="1.1" id="Layer_1" xmlns="http://www.w3.org/2000/svg" xmlns:xlink="http://www.w3.org/1999/xlink" x="0px" y="0px"
	 viewBox="0 0 215 215" style="enable-background:new 0 0 215 215;" xml:space="preserve">
<style type="text/css">
	.st0{opacity:0.2;fill:#83B6FC;enable-background:new    ;}
	.st1{opacity:0.3;fill:#83B6FC;enable-background:new    ;}
	.st2{fill:#83B6FC;}
	.st3{enable-background:new    ;}
	.st4{fill:#FFFFFF;}
</style>
<g transform="translate(-542 -2201)">
	<g transform="translate(-60 33)">
		<circle class="st0" cx="709.5" cy="2275.5" r="107.5"/>
		<circle class="st1" cx="709.5" cy="2275.5" r="85.5"/>
		<circle class="st2" cx="709.5" cy="2275.5" r="62.5"/>
	</g>
	<g class="st3">
		<path class="st4" d="M614.9,2306H606v-5.6h25.2v5.6h-8.9v22h-7.5V2306z"/>
		<path class="st4" d="M632.2,2314.2c0-8.9,6.9-14.4,14.9-14.4c3.8,0,7.4,1,9.7,2.8v6.3c-2.2-1.9-5.2-3.2-8.5-3.2
			c-4.6,0-8.2,3-8.2,8.5c0,5.5,3.5,8.5,8.2,8.5c3.3,0,6.3-1.3,8.5-3.2v6.3c-2.3,1.7-5.9,2.8-9.7,2.8
			C639.1,2328.6,632.2,2323.1,632.2,2314.2z"/>
		<path class="st4" d="M661.6,2300.4h7.5v9.9h10.9v-9.9h7.5v27.6h-7.5v-11.4H669v11.4h-7.5V2300.4z"/>
	</g>
</g>
</svg>
