<svg xmlns="http://www.w3.org/2000/svg" xmlns:xlink="http://www.w3.org/1999/xlink" width="297" height="43" viewBox="0 0 297 43"><defs><linearGradient id="a" y1="0.5" x2="1" y2="0.5" gradientUnits="objectBoundingBox"><stop offset="0" stop-color="#83b6fc"/><stop offset="1" stop-color="#1d0a5d"/></linearGradient></defs><g transform="translate(-774 -963)"><path d="M275.5,43H21.5A21.506,21.506,0,0,1,13.131,1.69,21.367,21.367,0,0,1,21.5,0h254a21.506,21.506,0,0,1,8.369,41.311A21.366,21.366,0,0,1,275.5,43ZM21.7.6A20.908,20.908,0,0,0,13.563,40.76,20.772,20.772,0,0,0,21.7,42.4H275.3A20.908,20.908,0,0,0,283.437,2.24,20.773,20.773,0,0,0,275.3.6Z" transform="translate(774 963)" fill="url(#a)"/></g></svg>