<?xml version="1.0" encoding="UTF-8"?><svg id="Layer_1" xmlns="http://www.w3.org/2000/svg" xmlns:xlink="http://www.w3.org/1999/xlink" viewBox="0 0 199 71"><defs><style>.cls-1{fill:#fff;filter:url(#drop-shadow-1);}</style><filter id="drop-shadow-1" filterUnits="userSpaceOnUse"><feOffset dx="0" dy="2"/><feGaussianBlur result="blur" stdDeviation="2"/><feFlood flood-color="#000" flood-opacity=".5"/><feComposite in2="blur" operator="in"/><feComposite in="SourceGraphic"/></filter></defs><path class="cls-1" d="m17.4,4.87v19.44c0,.39.32.7.71.69,0,0,0,0,.01,0,.37,0,.68-.29.69-.67,0,0,0-.02,0-.02V6.76l7.95,12.78c.14.27.42.45.72.45.3,0,.58-.18.72-.45l7.95-12.78v17.55c0,.39.32.7.71.69,0,0,0,0,.01,0,.37,0,.68-.29.69-.67,0,0,0-.02,0-.02V4.87c.01-.47-.35-.86-.82-.87,0,0-.01,0-.02,0-.34,0-.65.19-.81.48l-8.43,13.65-8.43-13.65c-.14-.3-.45-.49-.78-.48-.48,0-.87.39-.87.87Zm26.28,10.26h10.77c.35,0,.64-.3.63-.65,0,0,0,0,0,0,0-.35-.28-.63-.63-.63h-10.77V5.53h12.33c.34,0,.61-.28.6-.62,0,0,0,0,0-.01,0-.34-.26-.61-.6-.63h-13.05c-.39,0-.7.31-.72.69v19.05c.02.38.33.69.72.69h13.05c.34,0,.61-.28.6-.62,0,0,0,0,0-.01.01-.34-.25-.62-.59-.63,0,0,0,0-.01,0h-12.33v-8.31Zm30.3-9.6c.34,0,.62-.26.63-.6,0-.01,0-.02,0-.03,0-.35-.28-.63-.63-.63h-15.15c-.35,0-.63.28-.63.63,0,.34.26.62.6.63.01,0,.02,0,.03,0h6.87v18.78c0,.39.32.7.71.69,0,0,0,0,.01,0,.39,0,.7-.31.72-.69V5.53h6.84Zm7.38.42l5.04,12.09h-10.05l5.01-12.09Zm7.59,18.45c.08.35.39.59.75.6.36.03.66-.24.69-.6,0-.03,0-.06,0-.09,0-.15-.04-.31-.09-.45l-7.95-19.14c-.11-.44-.51-.74-.96-.72-.45,0-.84.29-.96.72l-7.95,19.14c-.06.15-.1.32-.12.48-.03.34.23.63.56.66.03,0,.06,0,.1,0,.42,0,.6-.21.75-.6l2.19-5.19h10.83l2.16,5.19Zm9.69-1.38l-7.41-18.48c-.09-.32-.39-.54-.72-.54-.38-.02-.7.28-.72.66,0,.02,0,.04,0,.06.02.13.05.26.09.39l7.8,19.14c.11.44.51.75.96.75.46-.01.86-.31.99-.75l7.8-19.14c.06-.13.1-.27.12-.42,0-.38-.3-.69-.68-.69-.01,0-.03,0-.04,0-.33,0-.63.22-.72.54l-7.47,18.48Zm12.87-7.89h10.77c.35,0,.64-.3.63-.65,0,0,0,0,0,0,0-.35-.28-.63-.63-.63h-10.77V5.53h12.33c.34,0,.61-.28.6-.62,0,0,0,0,0-.01,0-.34-.26-.61-.6-.63h-13.05c-.39,0-.7.31-.72.69v19.05c.02.38.33.69.72.69h13.05c.34,0,.61-.28.6-.62,0,0,0,0,0-.01.01-.34-.25-.62-.59-.63,0,0,0,0-.01,0h-12.33v-8.31Zm17.67,1.17h5.82l6.66,8.37c.15.22.4.34.66.33.4.01.73-.3.75-.69,0-.18-.07-.34-.18-.48l-6.12-7.56c1.36,0,2.7-.39,3.84-1.14,1.62-1.06,2.54-2.9,2.43-4.83.15-1.98-.78-3.88-2.43-4.98-1.49-.82-3.19-1.18-4.89-1.05h-7.26c-.4,0-.71.32-.72.72v19.32c.02.38.33.69.72.69.39.01.71-.29.72-.68,0,0,0,0,0-.01v-8.01Zm6.27-10.8c1.42-.12,2.84.15,4.11.78,1.38.85,2.15,2.41,2.01,4.02.13,1.61-.66,3.15-2.04,3.99-1.28.62-2.7.89-4.11.78h-6.24V5.5h6.27Zm23.28.39c0-.45-.57-.75-1.11-.99-1.47-.6-3.04-.9-4.62-.9-4.53,0-6.99,1.92-6.99,5.28,0,2.22,1.38,3.54,3.3,4.38,2.34,1.02,4.32,1.23,6.18,2.1,1.51.5,2.55,1.89,2.61,3.48,0,2.7-1.86,4.5-5.43,4.5-1.29.02-2.57-.25-3.75-.78-1.53-.69-1.8-1.23-2.28-1.23-.38-.02-.7.28-.72.66,0,.02,0,.04,0,.06.07.41.34.76.72.93,1.84,1.04,3.92,1.59,6.03,1.62,4.2,0,6.96-2.13,6.96-5.88-.02-1.86-1.1-3.55-2.79-4.35-2.01-1.05-4.05-1.26-6.21-2.1-1.92-.72-3.12-1.71-3.12-3.42,0-2.58,1.77-3.99,5.43-3.99,1.08,0,2.16.18,3.18.54,1.02.33,1.5.75,1.92.75.35.03.66-.23.69-.58,0-.03,0-.05,0-.08Zm5.91,9.24h10.77c.35,0,.64-.3.63-.65,0,0,0,0,0,0,0-.35-.28-.63-.63-.63h-10.77V5.53h12.33c.34,0,.61-.28.6-.62,0,0,0,0,0-.01,0-.34-.26-.61-.6-.63h-13.05c-.39,0-.7.31-.72.69v19.05c.02.38.33.69.72.69h13.05c.34,0,.61-.28.6-.62,0,0,0,0,0-.01.01-.34-.25-.62-.59-.63,0,0,0,0-.01,0h-12.33v-8.31Zm17.13,8.97c.02-.46-.33-.85-.78-.87-.02,0-.04,0-.06,0-.47-.02-.88.34-.9.82,0,.02,0,.04,0,.05,0,.47.37.86.85.87.02,0,.04,0,.05,0,.46,0,.83-.36.84-.81,0-.02,0-.04,0-.06ZM6.72,41.27c-.39,0-.7.31-.72.69v19.35c.02.38.33.69.72.69.39.01.71-.29.72-.68,0,0,0,0,0-.01v-9.18h9.84c.35,0,.64-.3.63-.65,0,0,0,0,0,0,0-.35-.28-.63-.63-.63H7.44v-8.31h11.37c.34,0,.62-.26.63-.6,0-.01,0-.02,0-.03,0-.35-.28-.63-.63-.63H6.72Zm35.43,10.26c-.02-5.82-4.74-10.53-10.56-10.53-5.81,0-10.52,4.72-10.53,10.53.01,5.79,4.72,10.48,10.51,10.47,0,0,.01,0,.02,0,5.8.01,10.52-4.67,10.56-10.47Zm-1.5,0c.02,5.03-4.03,9.12-9.06,9.15-5.02-.04-9.06-4.13-9.03-9.15-.03-5.02,4.01-9.13,9.03-9.18,5.03.04,9.08,4.15,9.06,9.18Zm13.83,9.18c-1.96.1-3.88-.63-5.28-2.01-1.24-1.47-1.88-3.36-1.77-5.28v-11.73c-.02-.38-.33-.69-.72-.69-.39-.01-.71.29-.72.68,0,0,0,0,0,.01v11.94c-.1,2.14.62,4.25,2.01,5.88,1.71,1.71,4.06,2.62,6.48,2.49,2.43.13,4.79-.77,6.51-2.49,1.39-1.63,2.11-3.74,2.01-5.88v-11.94c0-.39-.32-.7-.71-.69,0,0,0,0-.01,0-.39,0-.7.31-.72.69v11.73c.11,1.92-.53,3.81-1.77,5.28-1.41,1.39-3.34,2.12-5.31,2.01Zm30.63-19.05c0-.37-.31-.67-.69-.66,0,0,0,0,0,0-.36-.02-.67.26-.69.62,0,.01,0,.03,0,.04v17.79l-14.52-18c-.16-.27-.44-.43-.75-.45-.44,0-.8.34-.81.78v19.56c.01.38.32.67.7.66,0,0,.01,0,.02,0,.37,0,.68-.28.69-.66,0,0,0,0,0,0v-17.79l14.46,18c.17.27.46.44.78.45.43.02.79-.32.81-.75,0,0,0-.02,0-.03v-19.56Zm22.89,9.84c.11-2.53-.71-5-2.31-6.96-2.04-2.28-5.01-3.27-8.58-3.27h-6.6c-.39,0-.7.31-.72.69v19.05c.02.38.33.69.72.69h6.15c2.49.09,4.96-.53,7.11-1.8,2.58-1.62,4.23-4.38,4.23-8.4Zm-16.77-9h5.61c3.24,0,5.91.96,7.62,2.88,1.44,1.71,2.19,3.89,2.1,6.12.16,3-1.32,5.85-3.87,7.44-1.89,1.08-4.04,1.61-6.21,1.53h-5.25v-17.97Zm27.54.45l5.04,12.09h-10.05l5.01-12.09Zm7.59,18.45c.08.35.39.59.75.6.36.03.66-.24.69-.6,0-.03,0-.06,0-.09,0-.15-.04-.31-.09-.45l-7.95-19.14c-.11-.44-.51-.74-.96-.72-.45,0-.84.29-.96.72l-7.95,19.14c-.06.15-.1.32-.12.48-.03.34.23.63.56.66.03,0,.06,0,.1,0,.42,0,.6-.21.75-.6l2.19-5.19h10.83l2.16,5.19Zm15-18.87c.34,0,.62-.26.63-.6,0-.01,0-.02,0-.03,0-.35-.28-.63-.63-.63h-15.15c-.35,0-.63.28-.63.63,0,.34.26.62.6.63.01,0,.02,0,.03,0h6.87v18.78c0,.39.32.7.71.69,0,0,0,0,.01,0,.39,0,.7-.31.72-.69v-18.78h6.84Zm2.97,18.78c.02.38.33.69.72.69.39.01.71-.29.72-.68,0,0,0,0,0-.01v-19.62c0-.39-.32-.7-.71-.69,0,0,0,0-.01,0-.39,0-.7.31-.72.69v19.62Zm26.4-9.78c.04-5.82-4.65-10.58-10.47-10.62-5.82-.04-10.58,4.65-10.62,10.47-.04,5.82,4.65,10.58,10.47,10.62.02,0,.04,0,.06,0,5.8,0,10.51-4.68,10.56-10.47Zm-1.5,0c-.07,5-4.18,8.99-9.18,8.91-5-.07-8.99-4.18-8.91-9.18.07-4.94,4.09-8.9,9.03-8.91,5.03.03,9.09,4.13,9.06,9.16,0,0,0,.01,0,.02Zm22.83-9.87c0-.37-.31-.67-.69-.66,0,0,0,0,0,0-.36-.02-.67.26-.69.62,0,.01,0,.03,0,.04v17.79l-14.52-18c-.16-.27-.44-.43-.75-.45-.44,0-.8.34-.81.78v19.56c.01.38.32.67.7.66,0,0,.01,0,.02,0,.37,0,.68-.28.69-.66,0,0,0,0,0,0v-17.79l14.46,18c.17.27.46.44.78.45.43.02.79-.32.81-.75,0,0,0-.02,0-.03v-19.56Z"/></svg>