<?xml version="1.0" encoding="UTF-8"?><svg id="Layer_1" xmlns="http://www.w3.org/2000/svg" viewBox="0 0 98.59 98.6"><defs><style>.cls-1{fill:#cfedfc;}</style></defs><g id="g2246"><g id="path1419"><path class="cls-1" d="m2.47,98.59c-2.1.06-3.33-2.73-1.74-4.21,0,0,93.66-93.66,93.66-93.66.96-.96,2.52-.96,3.49,0,.96.96.96,2.52,0,3.49-1.72.73-93.08,94.99-95.4,94.38Z"/></g><g id="path1421"><path class="cls-1" d="m96.13,98.59C93.51,98.97,2.65,5.11.72,4.21c-.96-.96-.96-2.52,0-3.49C1.69-.24,3.25-.24,4.21.72l93.66,93.66c1.56,1.46.37,4.29-1.74,4.21Z"/></g></g></svg>