<svg viewBox="0 0 24 24" xmlns="http://www.w3.org/2000/svg"><path fill-rule="evenodd" clip-rule="evenodd" d="M16.945 5.963h.004a1.087 1.087 0 1 1-.004 0ZM8.924 8.924a4.35 4.35 0 1 1 6.152 6.152 4.35 4.35 0 0 1-6.152-6.152Zm1.06 1.06a2.85 2.85 0 1 1 4.031 4.031 2.85 2.85 0 0 1-4.03-4.03Z" fill="#fff"/><path fill-rule="evenodd" clip-rule="evenodd" d="M7.496 2.25A5.245 5.245 0 0 0 2.25 7.496v9.008a5.245 5.245 0 0 0 5.246 5.246h9.008a5.245 5.245 0 0 0 5.246-5.245V7.496a5.245 5.245 0 0 0-5.245-5.246H7.496Zm0 1.5A3.745 3.745 0 0 0 3.75 7.496v9.008a3.745 3.745 0 0 0 3.746 3.746h9.008a3.745 3.745 0 0 0 3.746-3.745V7.496a3.745 3.745 0 0 0-3.745-3.746H7.496Z" fill="#fff"/></svg>